<svg version="1.1" xmlns="http://www.w3.org/2000/svg" xmlns:xlink="http://www.w3.org/1999/xlink" x="0" y="0" viewBox="0 0 121 128.42" xml:space="preserve"><style type="text/css">.st0,.st1,.st2{fill-rule:evenodd;clip-rule:evenodd;fill:none;stroke:#000;stroke-miterlimit:10}.st1,.st2{stroke-width:.25}.st2{stroke-width:.5}.st3{opacity:.4}.st4{display:none}</style><g id="Слой_1"><path d="M45.25 70.17c1.53 2.21 3.3 3.9 5.27 5.17-.02-.04-.03-.08-.05-.11.42.4.87.54 1.3.78 3.24 1.74 6.06 1.89 8.44.35 2.96-1.91 3.93-5.56 2.77-10.75-1.3-5.8-5.77-12.42-12.2-14.51-.04.01-.07.03-.11.04-.11-.03-.23-.07-.34-.11-4.92-1.59-9.38 1.77-9.06 8.41.2 3.76 1.63 7.33 3.98 10.73zm-1.01-2.96c-1.05-2.03-1.73-4.08-1.98-6.16-.05-.41.04-.5.36-.32.48.26.97.48 1.46.73.52.26 1.04.52 1.56.76.26.12.37.3.38.61.04 1.42.28 2.88.62 4.34.07.32.04.45-.23.42-.6-.06-1.18-.05-1.76-.05-.17-.01-.27-.07-.41-.33zm.97 1.64c-.18-.29-.1-.33.06-.34.49-.03 1.01.02 1.54.1.15.02.24.11.3.3.42 1.43 1.03 2.81 1.79 4.17-1.43-1.12-2.64-2.56-3.69-4.23zm5.04 5c-.7-.79-1.15-1.71-1.57-2.66-.28-.64-.48-1.29-.7-1.94-.13-.38-.05-.43.23-.34.68.23 1.36.45 2.05.74v4.15c-.01.02-.01.04-.01.05zm.31-5.11c-.03.02-.05.04-.08.06-.86-.39-1.71-.69-2.54-.9-.26-.07-.38-.16-.46-.53-.29-1.34-.48-2.67-.57-3.98-.03-.43.06-.54.44-.34 1.41.72 2.83 1.4 4.27 2.1v-.08c1.66.83 3.34 1.68 5.04 2.5.42.2.51.38.46.82-.12 1.22-.37 2.32-.67 3.37-.09.31-.23.33-.55.09-1.76-1.29-3.55-2.38-5.34-3.11zm2.17 6.61c-.23-.23-.07-.63-.08-.95-.04-1.03 0-2.02.04-3.04.02-.52.19-.57.46-.36.91.55 1.67 1.03 2.42 1.57.33.24.44.42.27.73-.55.98-1.15 1.84-2.19 2.11-.3.06-.63.23-.92-.06zm6.11.43c-1.21.57-2.56.72-4.09.35.87-.51 1.49-1.33 2-2.31.08-.16.19-.17.39 0 .58.5 1.14 1.03 1.68 1.59.19.2.18.29.02.37zm3.45-4.97c-.33 1.89-1.11 3.29-2.29 4.26-.23.18-.39.15-.69-.18-.55-.63-1.14-1.19-1.75-1.7-.29-.24-.33-.43-.24-.67.41-1.08.64-2.3.74-3.63.03-.42.18-.55.59-.32.53.3 1.07.53 1.6.8.57.28 1.14.57 1.71.84.32.13.38.3.33.6zm-1.48-8.72c1.09 2.36 1.61 4.66 1.64 6.88 0 .33-.15.29-.37.18-.59-.3-1.19-.58-1.78-.87-.54-.26-1.08-.55-1.62-.78-.33-.14-.48-.3-.47-.72.04-1.47-.1-3.01-.39-4.63-.06-.33 0-.5.3-.46.73.1 1.45.08 2.14 0 .25-.04.4.08.55.4zm-1.08-2.06c.24.39.19.5-.11.52-.56.04-1.12.02-1.69-.02-.34-.02-.5-.22-.62-.66-.44-1.62-.91-3.26-1.83-4.8 1.67 1.31 3.07 3 4.25 4.96zm-6.67-6.59c.69.56 1.2 1.31 1.66 2.1.79 1.37 1.32 2.8 1.71 4.26.11.4.08.53-.27.46-.98-.2-1.96-.55-2.94-.92-.17-.06-.27-.16-.27-.39-.03-1.81-.06-3.66.11-5.51zm-2.44 5.71c.83.62 1.67.93 2.52 1.27 1.07.43 2.13.69 3.21.96.32.08.46.23.53.65.23 1.43.35 2.8.37 4.12 0 .49-.1.61-.55.38-1.72-.87-3.42-1.68-5.11-2.5v.08c-1.42-.7-2.83-1.41-4.22-2.08-.36-.17-.5-.34-.48-.79.06-1.28.18-2.53.45-3.72.07-.32.19-.33.48-.12.94.7 1.89 1.39 2.87 1.85-.04-.04-.05-.07-.07-.1zm-.56-6.29c.08-.04.16-.07.26-.06l-.03 5.09v.07c-.78-.43-1.55-.93-2.31-1.51-.17-.13-.33-.22-.23-.5.48-1.37 1.18-2.49 2.31-3.09zm-1.29-.78c-.89.8-1.44 1.96-1.89 3.2-.07.2-.16.19-.34.01-.66-.63-1.32-1.25-2.03-1.92 1.16-1.04 2.56-1.48 4.26-1.29zm-4.98 2.02c.13-.16.27-.09.46.12.62.7 1.28 1.33 1.95 1.9.24.21.31.38.25.65-.3 1.32-.48 2.7-.46 4.18 0 .29-.09.36-.33.23-.54-.28-1.08-.53-1.61-.79s-1.07-.53-1.59-.78c-.2-.1-.28-.21-.27-.46.03-2.1.56-3.78 1.6-5.05zm-6.42 18.38c-.14-.21-.29-.36-.44-.44-.23-.12-.43-.01-.59.33l-1.55 3.32-2.41-5.46c-.25-.56-.49-.9-.71-1.02-.15-.08-.28-.09-.38-.01-.1.07-.16.19-.17.36l-.5 5.41 1.1.61.26-4.16 2.39 5.31c.16.36.37.61.63.76.23.13.39.09.49-.12l1.57-3.17 1.23 5.06 1.14.64-1.79-6.81c-.06-.22-.15-.42-.27-.61zm7.09 3.92c-.18-.24-.35-.41-.51-.49a.593.593 0 0 0-.49-.03c-.15.05-.26.14-.34.25l-2.95 4.16 1.32.74 2.5-3.35 1.15 2.52-1.63-.9-.59.78 2.9 1.6 1.08 2.37 1.38.78-3.45-7.78c-.09-.23-.22-.45-.37-.65zm10.23 5.31l-2.45 1.21-2.33-3.78-1.57-.85 3.14 5.1-3.07 1.52 1.56.87 2.25-1.1 2.21 3.59 1.61.9-3.06-4.96 3.36-1.61-1.65-.89zm5.2 4.03l2.74 1.49-.5 5.33 1.16.65.55-5.33 2.8 1.52.15-1.18-6.81-3.67-.09 1.19zm15.49 7.11l-4.19 3.02-2.49-6.62-1.63-.88 3.15 8.15c.22.56.44.9.66 1.02.23.13.52.07.87-.17l5.34-3.6-1.71-.92z"/><path class="st0" d="M4.7 41.09l8.11 40.93s-.06 5.3 6.78 9.06c6.9 3.64 59.37 31.17 59.37 31.17s11.27 6.48 14 5.58c1.03-.34 1.15-.4 1.71-1.08 1.59-2.95 10.26-19.14 10.26-19.14l14.83-60.51s4.25-9.06-7.73-13.56c-4.76-1.79-19.1-6.94-34.49-12.72-23.31-8.74-49.2-18.7-49.2-18.7S24.24.5 22.78.5c-1.14 0-2.41.93-3.25 1.5C14.89 5.56 2.61 14.42 2.61 14.42S.01 15.76.58 19.81c.58 4.04 4.12 21.28 4.12 21.28z"/><path d="M7.94 12.53c.99 0 2.33.52 4.6 1.44 8.36 3.64 87.25 35.28 89.34 36.12.51.25 8.11 4.22 6.83 11.19-.07.39-.17.9-.29 1.5-.62-6.83-8.38-10.16-8.47-10.2-.8-.33-80.6-32.96-88.99-36.61-2.39-1.09-4.44-1.76-6.1-1.98 1.57-1.14 2.27-1.46 3.08-1.46m0-1c-1.25 0-2.26.61-4.04 1.94-1.23.98-1.99 1.26-2.86 2.53v.13s.33-1.22 2.62-1.22c1.42 0 3.58.47 6.89 1.98 8.51 3.71 89.03 36.62 89.03 36.62s9.21 3.84 7.73 11.85c-1.48 8.01-12.67 61.34-12.67 61.34l2.34-4.66s11.25-52.57 12.72-60.57c1.48-8.01-7.4-12.28-7.4-12.28S21.45 16.76 12.94 13.05c-2.44-.98-3.83-1.52-5-1.52zM95.65 32.41l10.96 4.01-5 6.14-10.89-4.19 4.93-5.96m-.16-.59l-5.61 6.78 11.88 4.57 5.67-6.97-11.94-4.38zM83.45 27.75c1.89 0 3.43.92 3.43 2.06 0 1.14-1.54 2.06-3.43 2.06-1.89 0-3.43-.92-3.43-2.06.01-1.14 1.54-2.06 3.43-2.06m0-.25c-2.03 0-3.68 1.03-3.68 2.31s1.65 2.31 3.68 2.31c2.03 0 3.68-1.03 3.68-2.31 0-1.27-1.65-2.31-3.68-2.31z"/><path class="st1" d="M47.25 24.74l9-8.74 17.61 6.72-8.55 9.44-18.06-7.42z"/><path d="M21.35 6.91c.49 0 .98.07 1.43.27.44.18.93.53.97 1.12.02.59-.44 1.04-.9 1.28-.47.25-.99.35-1.51.36-.52-.01-1.04-.11-1.51-.36-.45-.24-.92-.69-.89-1.28.05-.59.53-.93.97-1.12.47-.2.96-.27 1.44-.27zm0 0c-.49.01-.98.1-1.4.33-.42.22-.79.62-.75 1.05.04.43.43.73.83.89.41.17.87.24 1.32.24.45 0 .91-.07 1.32-.25.41-.16.79-.46.83-.89.03-.43-.34-.83-.75-1.05-.42-.22-.91-.31-1.4-.32z"/><path class="st1" d="M13.51 9.38l8.05-6.08 8.81 3.42-7.86 6.53-9-3.87z"/><path class="st2" d="M48.37 15.1l.05.02c.48.31-.35.97-.58 1.19l-1.39 1.27c-.38.33-.78.41-1.1.28l-14.22-5.75c-.31-.13-.26-.49.11-.81l1.38-1.19c.37-.32 1.23-.7 1.55-.58l.34.13c1.09.14 1.58-.4 2.94-.13l9.56 3.79c.31.12.85.31.84.58-.01.02-.01.04-.01.06v.02c-.11.36-.06.79.53 1.12z"/><path d="M56.47 16.03c.07 2.5.08 5 .1 7.5l-.07-.1c2.09.72 4.17 1.48 6.25 2.26 2.08.76 4.16 1.53 6.22 2.34-2.11-.69-4.19-1.43-6.28-2.16-2.09-.73-4.18-1.46-6.25-2.24l-.07-.03v-.07c.02-2.5.03-5 .1-7.5z" class="st3"/><path d="M56.47 23.53c-.51.66-1.09 1.24-1.66 1.84-.59.57-1.18 1.15-1.84 1.66.51-.66 1.09-1.24 1.66-1.84.6-.57 1.19-1.15 1.84-1.66z" class="st3"/><path d="M109.2 83.05l-3.35 13.91-4.11 7.05c1.36-5.96 3.16-13.71 3.35-14.13.19-.36 2.45-4.09 4.11-6.83m.62-1.49s-4.67 7.66-4.95 8.22c-.28.56-3.74 15.78-3.74 15.78l4.95-8.5 3.74-15.5zM114.2 62.05l-3.35 13.91-4.11 7.05c1.36-5.96 3.16-13.71 3.35-14.13.19-.36 2.45-4.09 4.11-6.83m.62-1.49s-4.67 7.66-4.95 8.22c-.28.56-3.74 15.78-3.74 15.78l4.95-8.5 3.74-15.5z"/><path class="st1" d="M81.01 112.46c5.46 4.81 9.01 9.72 7.92 10.96-1.09 1.24-6.41-1.65-11.87-6.47-5.46-4.81-9.01-9.72-7.92-10.96 1.09-1.24 6.41 1.66 11.87 6.47z"/><path d="M69.97 106.03c1.98.84 3.72 2.16 5.49 3.38 1.75 1.26 3.47 2.56 5.13 3.93 1.64 1.4 3.24 2.85 4.73 4.4 1.45 1.57 2.91 3.25 3.65 5.29-.42-.99-.99-1.91-1.66-2.75-.65-.85-1.38-1.64-2.11-2.42-1.51-1.53-3.12-2.95-4.77-4.33a97.668 97.668 0 0 0-5.07-3.99c-.87-.64-1.74-1.26-2.63-1.86-.89-.58-1.76-1.24-2.76-1.65z"/></g><image width="120" height="127" xlink:href="../../Sharing/Narezka/Box.png" transform="translate(-.026 1.034)" display="inline" overflow="visible" id="Слой_2" class="st4"/></svg>