<svg xmlns="http://www.w3.org/2000/svg" width="82.625" height="88.22" viewBox="0 0 82.625 88.22"><defs><style>.cls-1{fill-rule:evenodd}</style></defs><path class="cls-1" d="M81.258 41.35h-5.509V38.6a1.379 1.379 0 0 0-1.376-1.38h-2.755v-6.89a30.294 30.294 0 1 0-60.588 0v6.89H8.276a1.38 1.38 0 0 0-1.377 1.38v2.75H1.387A1.38 1.38 0 0 0 .01 42.73v17.92a1.38 1.38 0 0 0 1.377 1.38h5.508v2.75a1.38 1.38 0 0 0 1.377 1.38h8.262a1.38 1.38 0 0 0 1.377-1.38V38.6a1.38 1.38 0 0 0-1.377-1.38h-2.747v-6.89a27.54 27.54 0 1 1 55.08 0v6.89h-2.753a1.38 1.38 0 0 0-1.377 1.38v26.18a1.38 1.38 0 0 0 1.377 1.38h2.753v5.51a6.894 6.894 0 0 1-6.884 6.89H48.092a8.27 8.27 0 1 0 0 2.76H61.98a9.655 9.655 0 0 0 9.638-9.65v-5.51h2.755a1.379 1.379 0 0 0 1.376-1.38v-2.75h5.509a1.38 1.38 0 0 0 1.377-1.38V42.73a1.38 1.38 0 0 0-1.377-1.38zM6.899 59.27H2.768V44.11h4.131v15.16zm8.262-19.29V63.4H9.653V39.98h5.508zm24.786 45.47a5.51 5.51 0 1 1 5.508-5.51 5.514 5.514 0 0 1-5.508 5.51zM72.996 63.4h-5.509V39.98h5.508V63.4zm6.885-4.13h-4.132V44.11h4.132v15.16zm-38.557 6.61v-9.65a1.377 1.377 0 1 0-2.754 0v9.65a1.377 1.377 0 0 0 2.754 0zm4.819 3.04a1.38 1.38 0 0 0 1.193-.69l4.82-8.36a1.375 1.375 0 1 0-2.385-1.37l-4.82 8.35a1.376 1.376 0 0 0 .5 1.88 1.332 1.332 0 0 0 .692.19zm-12.391 0a1.326 1.326 0 0 0 .687-.19 1.374 1.374 0 0 0 .5-1.88L30.12 58.5a1.375 1.375 0 1 0-2.385 1.37l4.819 8.36a1.382 1.382 0 0 0 1.198.69z"/></svg>