<svg xmlns="http://www.w3.org/2000/svg" width="97.03" height="112.66" viewBox="0 0 97.03 112.66"><defs><style>.cls-1{fill-rule:evenodd}</style></defs><path class="cls-1" d="M80.15 78.62a16.9 16.9 0 1 0 16.88 16.9 16.907 16.907 0 0 0-16.88-16.9zm0 30.04a13.14 13.14 0 1 1 13.13-13.14 13.153 13.153 0 0 1-13.13 13.14zm8.7-20.22a1.881 1.881 0 0 0-2.64.24l-8.06 9.69-4.18-4.18a1.877 1.877 0 0 0-2.65 2.66l5.63 5.63a1.879 1.879 0 0 0 1.32.55h.09a1.891 1.891 0 0 0 1.35-.68l9.38-11.26a1.885 1.885 0 0 0-.24-2.65zM80.87.01H5.88A5.647 5.647 0 0 0 .01 5.4v101.39a6.035 6.035 0 0 0 5.85 5.86h56.52a1.88 1.88 0 0 0 0-3.76H5.86a2.291 2.291 0 0 1-2.1-2.1V5.4a1.919 1.919 0 0 1 2.12-1.64h74.99a1.518 1.518 0 0 1 1.65 1.63v65.72a1.875 1.875 0 1 0 3.75 0V5.39a5.234 5.234 0 0 0-5.4-5.38zM52.75 13.15H34a1.875 1.875 0 1 0 0 3.75h18.75a1.875 1.875 0 1 0 0-3.75zm16.88 13.14H17.12a1.88 1.88 0 0 0 0 3.76h52.51a1.88 1.88 0 0 0 0-3.76zm0 13.14H17.12a1.88 1.88 0 1 0 0 3.76h52.51a1.88 1.88 0 1 0 0-3.76zm0 13.14H17.12a1.88 1.88 0 1 0 0 3.76h52.51a1.88 1.88 0 1 0 0-3.76zm0 13.15H17.12a1.9 1.9 0 0 0-2.11 1.64v28.16a2.294 2.294 0 0 0 2.11 2.11h41.26a1.875 1.875 0 0 0 0-3.75H18.76V69.47h48.76v7.27a1.875 1.875 0 1 0 3.75 0v-9.38a1.5 1.5 0 0 0-1.64-1.64z"/></svg>