<svg xmlns="http://www.w3.org/2000/svg" width="115.5" height="109.13" viewBox="0 0 115.5 109.13"><defs><style>.cls-1{fill:#fff;fill-rule:evenodd}</style></defs><path class="cls-1" d="M14.45 28.22a5.645 5.645 0 1 0 5.64 5.65 5.657 5.657 0 0 0-5.64-5.65zm0 7.53a1.88 1.88 0 1 1 1.88-1.88 1.893 1.893 0 0 1-1.88 1.88zm101.04 8.86l-2.66-2.66-26.92 26.92c-.11-.11-.19-.24-.3-.35L69.78 52.68l2.44-2.43-2.66-2.66-5.59 5.59a8.972 8.972 0 0 1-11.07 1.24l13.67-13.57v-.01l35.75-35.75-2.66-2.66-34.42 34.42-2.43-2.43a1.844 1.844 0 0 0-1.33-.55h-6.75l-3.21-3.21L25.18 4.31l-2.66 2.66 17.49 17.49-24.07 24.06L2.55 36.24 0 39.02l21.97 20.14v4.81a1.885 1.885 0 0 0 .55 1.33l8.14 8.14a27.358 27.358 0 0 0 10.15 14.97 10.59 10.59 0 0 0 13.78 10.85l.14.14a7.544 7.544 0 0 0 10.65 0l20.23-20.24a7.463 7.463 0 0 0 2.07-6.74zm-96.77 6.46l23.95-23.95 4.86 4.87L23.8 55.72zm18.14 27.34a2.111 2.111 0 0 1-2.98-2.99l8.95-8.95a2.111 2.111 0 0 1 2.98 2.99zm5.64 5.64a2.062 2.062 0 0 1-1.49.62 2.107 2.107 0 0 1-1.49-3.6l8.95-8.95a2.107 2.107 0 0 1 3.6 1.49 2.129 2.129 0 0 1-.61 1.49zm5.65 5.65a2.107 2.107 0 0 1-3.6-1.49 2.135 2.135 0 0 1 .61-1.5l8.96-8.95a2.062 2.062 0 0 1 1.49-.62 2.114 2.114 0 0 1 1.49 3.61zm5.64 5.64a2.079 2.079 0 0 1-1.49.62 2.107 2.107 0 0 1-1.49-3.6l8.95-8.95a2.107 2.107 0 1 1 2.98 2.98zM82.95 76.5L62.72 96.74a3.856 3.856 0 0 1-5.15.14l7.84-7.83a23.112 23.112 0 0 0-9.59-15.65 9.967 9.967 0 0 0-15.65-9.59l-6.91 6.91-7.53-7.53v-4.08l24.46-24.46 2.43 2.43a1.92 1.92 0 0 0 1.33.55h6.75l1.88 1.88-13.83 13.72a1.876 1.876 0 0 0-.56 1.34 1.938 1.938 0 0 0 .56 1.33 12.712 12.712 0 0 0 17.88-.07l.49-.49 15.83 15.84a3.742 3.742 0 0 1 0 5.32zm-69.83 2.41l-3.3 1.81c.62 1.13 1.29 2.26 1.99 3.34l3.17-2.03c-.66-1.02-1.28-2.07-1.86-3.12zm26.85 23.27l-1.32 3.52c1.21.46 2.45.87 3.7 1.24l1.06-3.62c-1.17-.34-2.32-.72-3.44-1.14zm-12.7-6.94l-2.26 3.01c1.04.77 2.12 1.52 3.2 2.22l2.04-3.16c-1.01-.66-2.02-1.35-2.98-2.07zm6.1 3.92l-1.81 3.3c1.14.62 2.31 1.21 3.49 1.75l1.57-3.42c-1.1-.5-2.19-1.05-3.25-1.63zm-11.58-8.68l-2.66 2.66c.91.92 1.87 1.81 2.85 2.66l2.47-2.84c-.91-.79-1.81-1.63-2.66-2.48zM17.04 85l-3.01 2.26c.78 1.04 1.6 2.06 2.45 3.03l2.84-2.46c-.78-.91-1.55-1.86-2.28-2.83zM7.05 58.2l-3.75.27c.09 1.28.22 2.59.41 3.87l3.72-.53c-.17-1.2-.3-2.41-.38-3.61zM3.3 50.68c-.1 1.28-.14 2.58-.14 3.88v.01l3.76-.01c0-1.21.04-2.43.13-3.62zm4.77 14.69l-3.67.8c.27 1.27.59 2.54.96 3.78l3.61-1.06a51.82 51.82 0 0 1-.9-3.52zm2.04 6.96l-3.52 1.31c.45 1.21.95 2.42 1.49 3.6l3.42-1.57c-.5-1.09-.97-2.22-1.39-3.34zm93.83 3.34c-.51 1.1-1.06 2.19-1.63 3.25l3.3 1.8c.62-1.13 1.21-2.3 1.75-3.48zm-3.49 6.37c-.65 1.01-1.35 2.01-2.07 2.98l3.01 2.26c.78-1.03 1.52-2.11 2.23-3.2zm-4.35 5.8c-.79.91-1.62 1.8-2.47 2.65l2.66 2.67c.91-.92 1.81-1.88 2.65-2.85zm10.37-18.96c-.34 1.16-.72 2.31-1.14 3.44l3.52 1.32c.45-1.21.87-2.46 1.23-3.7zM108 61.8c-.17 1.19-.38 2.4-.64 3.57l3.68.79c.27-1.26.5-2.54.69-3.83zM90.97 92.97c-.9.78-1.86 1.55-2.82 2.28l2.26 3.01c1.03-.78 2.05-1.6 3.03-2.45zm-44.05 11.25l-.8 3.68c1.26.27 2.55.5 3.84.68l.53-3.72c-1.2-.17-2.4-.39-3.57-.64zm61.59-49.66c0 1.21-.04 2.44-.12 3.63l3.75.27c.09-1.29.14-2.6.14-3.9h-3.77zm-43.56 50.3c-1.19.17-2.4.3-3.6.38l.26 3.75c1.29-.09 2.59-.23 3.88-.41zm-7.23.51c-1.21 0-2.43-.04-3.62-.13l-.27 3.76c1.28.09 2.59.13 3.89.13v-3.76zm27.45-8.06c-1 .65-2.05 1.28-3.11 1.86l1.8 3.3a50.92 50.92 0 0 0 3.35-1.99zm-6.35 3.48c-1.1.5-2.22.97-3.34 1.39l1.31 3.52c1.21-.45 2.42-.95 3.59-1.49zm-6.78 2.53c-1.16.34-2.34.64-3.52.9l.8 3.67c1.27-.27 2.54-.59 3.77-.96zm7.62-98.55l-1.65 3.38c1.04.51 2.11 1.09 3.19 1.72l1.89-3.26c-1.15-.67-2.3-1.29-3.43-1.84zM57.72 0h-.79l.06 3.77.73-.01c.99 0 1.96.02 2.91.07l.18-3.76C59.8.02 58.77 0 57.72 0zm14.64 1.92l-1.05 3.62c1.13.33 2.28.72 3.4 1.15l1.37-3.5c-1.22-.48-2.47-.9-3.72-1.27zM64.68.38l-.43 3.74c1.21.14 2.41.33 3.56.56l.74-3.69C67.3.74 66 .54 64.68.38zM37.91 3.7c-1.21.48-2.41.99-3.58 1.55l1.62 3.4c1.08-.52 2.2-1 3.33-1.44zm7.44-2.29c-1.26.29-2.53.63-3.76 1.01l1.11 3.6c1.15-.36 2.32-.67 3.5-.95zM53.04.2c-1.29.11-2.59.26-3.87.46l.59 3.72c1.18-.19 2.4-.33 3.6-.43z"/></svg>