<?xml version="1.0" encoding="utf-8"?>
<!-- Generator: Adobe Illustrator 21.0.1, SVG Export Plug-In . SVG Version: 6.00 Build 0)  -->
<svg version="1.1" id="Слой_1" xmlns="http://www.w3.org/2000/svg" xmlns:xlink="http://www.w3.org/1999/xlink" x="0px" y="0px"
	 viewBox="0 0 688.5 120.3" style="enable-background:new 0 0 688.5 120.3;" xml:space="preserve">
<style type="text/css">
	.st0{fill:#FFFFFF;}
</style>
<path class="st0" d="M0,120.3c0,0,0-37.7,0-52.5c0-6.7,5.4-8.4,8.9-8.4c0.6,0,1.2,0,1.8,0L9.3,27.6h30.1l-2.2,32.1
	c0.8,0,1.7,0,2.5,0.1l2.9-5.9l-2.5,1.5l3.7-6l-2.1,1l4.3-7.6l3.9,7.5l-1.5-0.8l2.9,6L49,54l3,6c1.7,0.1,3.3,0.1,5,0.2V47.9h-3.5
	l7-12.6h19.1h5.4v-5.9h6v5.9h7.7l7,12.6h-3.5v14.5c3.8,0.2,7.5,0.5,11.3,0.8v-2.4c-0.1,0-0.1,0-0.1,0l-5.1,1.6l3.2-6.6l-2.5,1.5
	l3.7-6l-2.1,1l4.3-7.6l3.9,7.5l-1.5-0.8l2.9,6l-2.3-1.2l3.2,6.4l-3.8-1.3c0,0,0.7,1.6,0.5,1.6c-0.1,0-1.3-0.5-2.4-1v1.7
	c8.6,0.6,17,1.3,25.1,2v-3.9c-0.1,0-0.1,0-0.1,0l-5.1,1.6l3.2-6.6l-2.5,1.5l3.7-6l-2.1,1l4.3-7.6l3.9,7.5l-1.5-0.8l2.9,6l-2.3-1.2
	l3.2,6.4l-3.8-1.3c0,0,0.7,1.6,0.5,1.6c-0.1,0-1.3-0.5-2.4-1v3.2c3.8,0.3,7.6,0.7,11.3,1l-3.1-26.8l17.3-30.2l8,16.4l0.9-7.4
	l5.8,0.8l-2.6,15l3.9,7.9L180,69.3c39,4.3,67.4,8.8,78.4,10.7l-1.3-29.8h30.1l-1.9,27.4c2.4-0.3,4.8-0.7,7.2-1l2.9-6L293,72l3.7-6
	l-2.1,1l4.3-7.6l3.9,7.5l-1.5-0.8l2.9,6l-2.3-1.2L304,75c9-1.2,18.1-2.3,27.2-3.4v-4.3c-0.1,0-0.2-0.1-0.2-0.1l-9.3,2.9l5.7-11.9
	l-4.5,2.6l6.7-10.9l-3.9,1.8l7.7-13.7l7.1,13.5l-2.7-1.5l5.2,10.8l-4.2-2.2l5.7,11.3c6-0.7,12.1-1.3,18.1-1.9V55.4h-3.2l6.4-11.6
	h17.6h5v-5.5h5.5v5.5h7.1l6.4,11.6h-3.2v9c3.1-0.3,6.2-0.5,9.4-0.8v-3.4c-0.1,0-0.1,0-0.1,0l-5.1,1.6l3.2-6.6l-2.5,1.5l3.7-6l-2.1,1
	L415,44l3.9,7.5l-1.5-0.8l2.9,6l-2.3-1.2l3.2,6.4l-3.8-1.3c0,0,0.7,1.6,0.5,1.6c-0.1,0-1.3-0.5-2.4-1v2.4c4.8-0.4,9.5-0.7,14.2-1.1
	l-3.2-27.6l15.7-27.4l7.3,14.9l0.8-6.7l5.2,0.7l-2.3,13.6l3.5,7.2l-3.3,23.8c4.3-0.3,8.5-0.5,12.7-0.8v-5.9c-0.1,0-0.2-0.1-0.2-0.1
	l-9.3,2.9l5.7-11.9l-4.5,2.6l6.7-10.9l-3.9,1.8l7.7-13.7l7.1,13.5l-2.7-1.5l5.2,10.8l-4.2-2.2l5.8,11.6l-6.8-2.4c0,0,1.2,2.9,1,2.8
	c-0.1,0-2.3-1-4.3-1.9v4.1c3.9-0.2,7.8-0.5,11.6-0.7V44.7h-3.5l7-12.6H504h5.4v-5.9h6v5.9h7.7l6.9,12.5l4.1-7.2l3.9,7.5l-1.5-0.8
	l2.9,6l-2.3-1.2l3.2,6.4l-3.8-1.3c0,0,0.7,1.6,0.5,1.6c-0.1,0-1.3-0.5-2.4-1v2.1c2.3-0.1,4.7-0.2,7-0.3l-1.4-32.2h30.1l-2.2,31.2
	c3.9-0.1,7.7-0.2,11.4-0.3l-3.2-27.6L592,0l7.3,14.9l0.9-6.7l5.2,0.7l-2.3,13.6l3.5,7.2l-3.5,24.8c4.1-0.1,8.1-0.2,12-0.2
	c-0.2-0.1-0.3-0.2-0.3-0.2v-4.1c-0.1,0-0.1,0-0.1,0l-5.1,1.6l3.2-6.6l-2.5,1.5l3.7-6l-2.1,1l4.3-7.6l3.9,7.5l-1.5-0.8l2.9,6
	l-2.3-1.2l3.2,6.4l-3.8-1.3c0,0,0.7,1.6,0.5,1.6c-0.1,0-1.3-0.5-2.4-1v3.3c-0.1,0.1-0.2,0.1-0.3,0.1c4.1-0.1,8-0.1,11.8-0.2V40.9
	H625l6.4-11.6H649h5v-5.5h5.5v5.5h7.1l6.4,11.6h-3.2v12.7c3.9,0,7.2,0,10,0c9.1,0,8.6,5.2,8.7,10.5c0,18.8,0,56.2,0,56.2H0z
	 M15.8,34.2h-3.1V37h3.1V34.2z M15.8,37.4h-3.1v2.8h3.1V37.4z M15.8,44.2h-3.1V47h3.1V44.2z M15.8,47.4h-3.1v2.8h3.1V47.4z
	 M19.3,34.2h-3.1V37h3.1V34.2z M19.3,37.4h-3.1v2.8h3.1V37.4z M19.3,44.2h-3.1V47h3.1V44.2z M19.3,47.4h-3.1v2.8h3.1V47.4z
	 M28.7,34.2h-3.1V37h3.1V34.2z M28.7,37.4h-3.1v2.8h3.1V37.4z M28.7,44.2h-3.1V47h3.1V44.2z M28.7,47.4h-3.1v2.8h3.1V47.4z
	 M32.2,34.2h-3.1V37h3.1V34.2z M32.2,37.4h-3.1v2.8h3.1V37.4z M32.2,44.2h-3.1V47h3.1V44.2z M32.2,47.4h-3.1v2.8h3.1V47.4z
	 M163.3,49.6l-5.4,0.2l0.3,8.4l5.4-0.2L163.3,49.6z M167.9,25.3h-0.5v5h0.5V25.3z M167.9,30.8h-0.5v4.5h0.5V30.8z M170.1,49.6
	l-0.3,8.4l5.4,0.2l0.3-8.4L170.1,49.6z M438.3,43.8l-4.9,0.1l0.3,7.6l4.9-0.1L438.3,43.8z M441.9,21.8c-2,0.1-2.4,1.9-2.4,1.9v2.7
	h2.4V21.8z M441.9,26.7h-2.4v4.1h2.4V26.7z M444.5,23.6c0,0,0-1.8-2.1-1.9v4.5h2.1V23.6z M444.5,26.7h-2.1v4.1h2.1V26.7z
	 M444.5,43.8l-0.3,7.6l4.9,0.1l0.3-7.6L444.5,43.8z M548.7,30.8h-3.1v2.8h3.1V30.8z M548.7,34h-3.1v2.8h3.1V34z M548.7,40.8h-3.1
	v2.8h3.1V40.8z M548.7,44h-3.1v2.8h3.1V44z M552.2,30.8h-3.1v2.8h3.1V30.8z M552.2,34h-3.1v2.8h3.1V34z M552.2,40.8h-3.1v2.8h3.1
	V40.8z M552.2,44h-3.1v2.8h3.1V44z M561.7,30.8h-3.1v2.8h3.1V30.8z M561.7,34h-3.1v2.8h3.1V34z M561.7,40.8h-3.1v2.8h3.1V40.8z
	 M561.7,44h-3.1v2.8h3.1V44z M565.2,30.8h-3.1v2.8h3.1V30.8z M565.2,34h-3.1v2.8h3.1V34z M565.2,40.8h-3.1v2.8h3.1V40.8z M565.2,44
	h-3.1v2.8h3.1V44z M588,36.4l-4.9,0.1l0.3,7.6l4.9-0.1L588,36.4z M591.7,14.3c-2,0.1-2.4,1.9-2.4,1.9v2.6h2.4V14.3z M591.7,19.3
	h-2.4v4.1h2.4V19.3z M594.2,16.2c0,0,0-1.8-2.1-1.9v4.5h2.1V16.2z M594.2,19.3h-2.1v4.1h2.1V19.3z M594.2,36.4L594,44l4.9,0.1
	l0.3-7.6L594.2,36.4z M44.6,58.8l-3.1,1c1.1,0,2.1,0.1,3.2,0.1L44.6,58.8C44.6,58.8,44.6,58.8,44.6,58.8z M46.6,59.9
	c0.2,0,0.3,0,0.5,0c-0.2-0.1-0.3-0.1-0.5-0.2V59.9z M48.4,59.2c0,0,0.2,0.4,0.3,0.8c0.7,0,1.4,0,2.1,0.1L48.4,59.2z M265.6,56.7
	h-3.1v2.8h3.1V56.7z M265.6,59.9h-3.1v2.8h3.1V59.9z M265.6,66.8h-3.1v2.8h3.1V66.8z M265.6,70h-3.1v2.8h3.1V70z M269.1,56.7H266
	v2.8h3.1V56.7z M269.1,59.9H266v2.8h3.1V59.9z M269.1,66.8H266v2.8h3.1V66.8z M269.1,70H266v2.8h3.1V70z M278.5,56.7h-3.1v2.8h3.1
	V56.7z M278.5,59.9h-3.1v2.8h3.1V59.9z M278.5,66.8h-3.1v2.8h3.1V66.8z M278.5,70h-3.1v2.8h3.1V70z M282.1,56.7H279v2.8h3.1V56.7z
	 M282.1,59.9H279v2.8h3.1V59.9z M282.1,66.8H279v2.8h3.1V66.8z M282.1,70H279v2.8h3.1V70z M297.5,75.5
	C297.5,75.5,297.4,75.5,297.5,75.5l-2.2,0.6c0.7-0.1,1.5-0.2,2.2-0.3V75.5z M334.7,68.9v2.3c1.4-0.2,2.8-0.3,4.2-0.5
	C338.4,70.5,336.5,69.7,334.7,68.9z M338,68c0,0,1,2.4,1,2.8c1.7-0.2,3.5-0.4,5.2-0.6L338,68z M532.7,53.6
	C532.6,53.6,532.6,53.6,532.7,53.6l-5.2,1.6l3.2-6.6l-2.5,1.5l3.7-6l-2.1,1l0.2-0.3h-3.4v12.3c2.1-0.1,4.1-0.2,6.2-0.3V53.6z"/>
</svg>
