<svg version="1.1" xmlns="http://www.w3.org/2000/svg" x="0" y="0" viewBox="0 0 612 383" xml:space="preserve"><title>Монтажная область 1new</title><path fill="#6C6C6C" d="M284 167.3c-3 2.6-3.2 6.3-3.5 9.9-8.3.6-16.4 2-24.6 3.3-3.2.5-4.2 1.5-2.7 4.7 2.6 5.6 4.9 11.3 8.1 16.5 5 8.1 10.6 15.7 19.3 20.3.7 4.7-1.1 9.9 2.5 14-23.6-2.5-45-10.9-63.1-26.3-27.6-23.4-43.1-53-42.9-89.8C177.5 59 228.6 12 280.2 6.6l5.4-.6c-6.8 3.4-4.5 9.7-4.9 15.1-1.3.2-2.6.8-3.5 1.8-11.9 9.4-19.4 21.8-24.8 35.7-1.1 2.9.6 3 2.5 3.5 8.4 2 17 3.3 25.6 3.8.1 3.6.5 7.1 3.3 9.7-10.6.1-20.8-2.1-31.1-4.3-3.1-.7-4.4-.1-5.3 3.1-3.1 12-5 24.2-5.8 36.5-.3 4.3 1.2 5.3 5.3 5.3 16-.1 32 0 47.9.1-.1 3.3-.2 6.5-.2 9.8-16 .1-31.9.3-47.9.1-4.3-.1-5.4 1.4-5.1 5.4.7 12.5 2.7 24.8 5.8 36.9.9 3.4 2.4 3.6 5.4 3 10.4-2.5 20.7-3.8 31.2-4.2zm-74.5-41.2c-5.6 0-11.3.2-17-.1-3.8-.1-4.9 1.2-4.5 5 1.8 19.6 9 37 20.9 52.7 1.5 2 2.8 2.2 5 1.2 7-3.1 14-6.2 21.2-8.8 3.2-1.1 3.6-2.7 2.9-5.6-3.6-13.2-6.1-26.6-6.2-40.4 0-3-1.3-4.1-4.3-4.1-6 .2-12 .1-18 .1zm-.2-10.2c6.1 0 12.3-.1 18.4 0 2.8.1 3.8-1.1 3.9-3.8.3-13.8 2.4-27.6 6.2-40.8.7-2.6 0-3.9-2.6-4.8-7.3-2.2-14.4-5.1-21.2-8.7-2-1.1-3.6-1.2-5.1.9-12.2 15.5-19.6 34.4-21.1 54.1-.2 2.5.6 3.2 3 3.2 6.3-.1 12.4-.1 18.5-.1zm54.5-94.6c-18 5-33.3 14.3-46.5 28 7.8 3 14.9 5.7 22 8.5 2 .8 2.9.5 3.8-1.5 5.1-12.7 11.2-24.8 20.7-35zm0 199.4c-8.9-10.2-16-21.8-20.8-34.5-.6-1.7-1.7-2.1-3.5-1.6-6.4 1.9-12.6 4.4-18.6 7.3-2 1-3 1.9-.9 4 12.4 12 26.6 20.7 43.8 24.8z"/><path fill="#D60217" d="M285.4 6c64.3-6.5 110.1 30.8 126.9 74.6 15.8 41.2 9.4 79.9-19.7 113.7-24.7 28.7-56.4 43-94.4 42.6-5.3-.1-10.6 1-15.8-1.1-3.6-4.2-1.8-9.3-2.5-14 0-14.9 0-29.8-.1-44.7.3-3.6.4-7.2 3.5-9.9 20.4-1.8 40.5.1 60.4 4.1 3.6.7 5.1-.1 5.9-3.7 2.8-11.8 4.7-23.8 5.5-35.9.2-4.4-.7-5.7-5.3-5.6-18.6.2-37.2-.3-55.8-.3 0-4.7.2-4.9.2-9.8 18.5-.1 36.9-.1 55.4.2 4.8.1 5.9-1.5 5.6-6-.8-11.9-2.7-23.7-5.6-35.3-.9-3.4-2.4-4.1-5.6-3.5-11.1 2.1-22.2 4.3-33.5 5-9.1.6-18.5 1.2-27.5-1-2.8-2.6-3-5.8-3-9.4l.2-44.6c.2-5.2-1.7-12 5.2-15.4zm97.5 120.3c-4.2.1-8.3-.1-12.5-.1-4-.1-5.3 1.9-5.4 5.8-.2 13.1-2.2 26.2-5.9 38.8-1 3.2-.2 4.9 4.2 5.8 6.3 1.4 12.3 3.9 17.6 7.4 3.8 2.4 5.8 2.1 8.2-1.2 11.5-15.1 18.6-33.2 20.3-52.2.3-3-.5-4.3-3.7-4.2-7.5.1-15.2-.1-22.8-.1zm4.7-10.1H406c2.3 0 3.8-.3 3.5-3.3-2-19.8-8.8-37.7-21-53.5-1.9-2.5-3.7-2.6-6.9-.4-5.4 3.8-11.6 6.3-18.1 7.5-4.4.7-5.3 2.5-4.4 5.6 3.8 12.9 6 26.3 6.4 39.7.1 3.9 1.8 4.7 5.2 4.5 5.6-.3 11.3-.1 16.9-.1zm-79.5-98.9c-1.4 15.9-.7 31.5-.1 47.1.1 2.1 1.2 2.4 2.9 2.3 10.2-.8 20.5-1.8 30.5-4.1 3.5-.8 3.8-2 2.5-5-4.5-10.9-10.3-20.9-18.6-29.2-4.8-4.8-10.1-9-17.2-11.1zm4.5 159.6c-3.1-.7-5 .7-5 6.1-.2 10.6-.5 21.3.2 31.9.2 3.4-1.5 8.5 1.2 9.7 3.5 1.5 7.3-2.1 10.5-4.5 11.7-8.6 18.2-20.9 23.8-33.8 1.7-4 .5-5.3-3.3-6-9-1.6-18.2-2.7-27.4-3.4zm19.8 44.7c17.4-4.6 32.2-13.5 45-25.8 1.7-1.6 1.7-2.5-.5-3.6-6.2-2.9-12.5-5.4-19-7.4-2.3-.7-3.4 0-4.2 2-5.2 12.8-11.7 24.7-21.3 34.8zm.3-200c9.7 9.2 15 21.1 20.1 33 1.4 3.2 3.1 4.3 6.5 3.1 5.7-1.9 11.2-4.1 16.7-6.6 3-1.4 3.3-2.5.8-4.8-12.6-11.7-27-20.3-44.1-24.7zM132.9 366.1h-15.8l-11.7-56.4-27 52c-1.8 3.5-4.3 5.3-7.6 5.3-3.6 0-6.4-1.8-8.3-5.4l-27-51.9L24 366.1H8.1l18.1-74c.5-2.1 1.5-4 3.1-5.5 1.6-1.6 3.5-2.4 5.6-2.4 3.1 0 6 2.6 8.7 7.9l26.9 52.7 27-52.7c2.8-5.3 5.7-7.9 8.7-7.9 2 0 3.9.8 5.7 2.5 1.5 1.5 2.5 3.3 3.1 5.4l17.9 74z"/><path fill="none" stroke="#D60217" stroke-width="3" stroke-linecap="square" stroke-miterlimit="10" d="M132.9 366.1h-15.8l-11.7-56.4-27 52c-1.8 3.5-4.3 5.3-7.6 5.3-3.6 0-6.4-1.8-8.3-5.4l-27-51.9L24 366.1H8.1l18.1-74c.5-2.1 1.5-4 3.1-5.5 1.6-1.6 3.5-2.4 5.6-2.4 3.1 0 6 2.6 8.7 7.9l26.9 52.7 27-52.7c2.8-5.3 5.7-7.9 8.7-7.9 2 0 3.9.8 5.7 2.5 1.5 1.5 2.5 3.3 3.1 5.4l17.9 74z"/><path fill="#D60217" d="M256.3 366l-18.1-.1-13.6-22.5h-38.2l8.5-13.9h21.4l-14-23.2L166 366h-18.1l43.8-72.8c1.1-1.9 2.6-3.6 4.6-5.2 2.4-1.8 4.5-2.7 6.4-2.7 2 0 4.2.9 6.4 2.6 1.9 1.5 3.4 3.3 4.6 5.3l42.6 72.8z"/><path fill="none" stroke="#D60217" stroke-width="3" stroke-linecap="square" stroke-miterlimit="10" d="M256.3 366l-18.1-.1-13.6-22.5h-38.2l8.5-13.9h21.4l-14-23.2L166 366h-18.1l43.8-72.8c1.1-1.9 2.6-3.6 4.6-5.2 2.4-1.8 4.5-2.7 6.4-2.7 2 0 4.2.9 6.4 2.6 1.9 1.5 3.4 3.3 4.6 5.3l42.6 72.8z"/><path fill="#D60217" d="M364.4 366.1h-20.2l-28.4-29.4-28.3 29.4h-20.2l39.2-40.2-39.2-40.5h19.5l29 29.7 29-29.7h19.6l-39.3 40.5 39.3 40.2z"/><path fill="none" stroke="#D60217" stroke-width="3" stroke-linecap="square" stroke-miterlimit="10" d="M364.4 366.1h-20.2l-28.4-29.4-28.3 29.4h-20.2l39.2-40.2-39.2-40.5h19.5l29 29.7 29-29.7h19.6l-39.3 40.5 39.3 40.2z"/><path d="M476.2 298.4h-31.7V365h-13.9v-66.6h-31.9v-14h77.5v14zm118.6-14l-46 74c-3.2 5.3-6.1 7.9-8.7 7.9-2.5 0-5.4-2.6-8.6-7.9l-45.1-74h18.1l36 59.8 36.3-59.8h18z" fill="#6C6C6C"/><path d="M476.2 298.4h-31.7V365h-13.9v-66.6h-31.9v-14h77.5v14zm118.6-14l-46 74c-3.2 5.3-6.1 7.9-8.7 7.9-2.5 0-5.4-2.6-8.6-7.9l-45.1-74h18.1l36 59.8 36.3-59.8h18z" fill="none" stroke="#6C6C6C" stroke-width="3" stroke-miterlimit="10"/></svg>