<svg xmlns="http://www.w3.org/2000/svg" viewBox="0 0 939.09 499.7"><defs><style>.a{fill:#6c6c6c}.b{fill:#d60217}</style></defs><title>MaxTV_final</title><path class="a" d="M447.68.24c-5 3.23-6.1 7.67-5.73 12.6.19 2.58-.81 4-3 5.23-10.3 5.88-18.16 14.42-25 23.91a121.82 121.82 0 0 0-15 29c-.24.63-.37 1.31-.71 2.56 14.29 4 28.82 5.47 43.78 6.83-.06 4.88.73 9.37 5.15 12.46-17.8.06-35.07-3.29-52.47-7.17a31.19 31.19 0 0 0-1.38 3.27 227 227 0 0 0-8.31 53c-.19 4.34 0 4.53 4.38 4.53h66.82c1.36 0 2.72.13 4.14.2v13.27h-75.17c-.12 1.8-.3 3-.26 4.24a226.83 226.83 0 0 0 8.34 53.82c.8 2.86 1.26 3.06 4.67 2.43 6.74-1.25 13.44-2.79 20.23-3.69 9.41-1.25 18.89-2 28.54-2.7-3.76 3.49-5.28 7.67-4.73 13a396.45 396.45 0 0 0-43.29 5.95 15.08 15.08 0 0 0 .45 2.51c4.66 11.74 9.93 23.16 17.51 33.38 6.43 8.67 14 16 23.79 20.84a12.57 12.57 0 0 1 1.5 1c.32 5.57-.9 11.71 5.27 15.51l-.54.63c-4.49-.55-9-.89-13.45-1.67-55.41-9.64-95.4-40.09-120.65-90-7.4-14.64-10.7-30.55-12.64-46.8a124.51 124.51 0 0 1-.61-24.29c1.86-24.19 8-47.23 21.3-67.82 25.34-39.24 60.29-64.92 106.56-74.09 6-1.19 12.21-1.51 18.33-2.2a13 13 0 0 1 2.18.26zM343.81 239.73c1.54-.73 2.64-1.3 3.79-1.78q13.33-5.63 26.68-11.22a35.52 35.52 0 0 1 4.41-1.35c1.88-.51 2.42-1.71 1.93-3.5-.22-.81-.41-1.63-.64-2.43a228 228 0 0 1-8.6-55.87c-.08-3.33-.38-3.65-3.64-3.66h-52.1a10.73 10.73 0 0 0-2.6.69c1.14 30.19 12.14 56.02 30.77 79.12zm-31.08-93.29h55.79c1.89.05 2.89-.77 2.86-2.73 0-.84 0-1.68.05-2.52a234 234 0 0 1 8.62-54.59c1.23-4.33 1.28-4.34-2.86-5.64a189.34 189.34 0 0 1-29.49-12.05c-3.84-2-3.87-2-6.46 1.35a132.09 132.09 0 0 0-26.92 61.63c-.71 4.51-1 9.09-1.59 14.55zm103.86 140.68c-.45-.5-.91-1-1.33-1.51-4.33-5.29-8.91-10.41-12.93-15.93-6.62-9.09-11.37-19.23-15.5-29.67-1.26-3.19-1.72-3.48-4.59-2.58a159.36 159.36 0 0 0-26.86 10.66 19 19 0 0 0-2.25 1.73c17.89 18.28 38.66 30.98 63.46 37.3zM385.18 70.4c2.22-5.12 4.1-9.76 6.23-14.29s4.32-9.11 6.85-13.44a122.3 122.3 0 0 1 8.4-12.53c3-3.87 6.38-7.38 9.6-11a141.84 141.84 0 0 0-64.22 38.59z"/><path class="b" d="M537.55 160.13h-81.92v-13.25c5.81-.15 11.25-.39 16.69-.4 20 0 40.06 0 60.09.08h2.1c2.11.06 3.11-.91 3-3.05-.31-5-.44-10.08-.92-15.09a221.8 221.8 0 0 0-7.62-39.95c-.19-.66-.52-1.29-.94-2.31-1.58.13-3.22.16-4.83.43-9.52 1.59-19 3.43-28.56 4.8-11.92 1.71-23.9 2.95-36 2.6a86.64 86.64 0 0 0-9.66 0c-8 .66-12.36-4.81-12.19-12 .26-11.34.08-22.69.06-34s-.1-22.69-.13-34a35.86 35.86 0 0 1 .12-4.61c.79-6.21 4.58-9.38 10.86-9.3 10.36.14 20.72.2 31.08.31 11.6.12 22.72 3 33.77 6.13 40.56 11.58 88.27 49.72 104.4 101.11a138.27 138.27 0 0 1 6.18 30.81c.63 8.21 1.39 16.54.74 24.71-2.3 29-11.42 55.58-29.32 78.76-25.45 33-58.22 54.48-99.33 62.68a167.52 167.52 0 0 1-33.42 3c-4.9 0-9.81.07-14.71 0-6.24-.1-9.88-3.61-10.16-9.87-.14-3.21 0-6.44 0-9.66-.07-20.73-.22-41.46-.15-62.19a19 19 0 0 1 1.81-7.6 7.41 7.41 0 0 1 6.85-4.18c8.25-.2 16.52-.61 24.76-.29 18.08.71 36 3.29 53.71 6.67 3.92.75 4.55.35 5.53-3.66 3.67-15.11 6.85-30.31 7.39-45.93.11-3.45.44-6.75.72-10.75zm72.39-.08h-46.13c-3.08 0-6.16-.08-9.23 0s-3.24.36-3.5 3.43-.56 6.41-.74 9.62a202.35 202.35 0 0 1-8 47.43 32.39 32.39 0 0 0-.7 3.83 9 9 0 0 0 1.46.86 187.28 187.28 0 0 1 33.28 13.58c2.07 1.09 3.28.31 4.57-1.35 13.35-17.15 22.94-36.05 26.88-57.57 1.16-6.25 2.35-12.58 2.1-19.83zm-68-77.85a5.3 5.3 0 0 0-.22 1.49c.33 1.64.67 3.29 1.13 4.9a212.79 212.79 0 0 1 8.29 53.8c.08 3.79.5 4.16 4.56 4.16h50c1.35 0 2.69-.2 4.36-.34-.11-2.48-.09-4.57-.31-6.62a133.75 133.75 0 0 0-27.47-68.48c-3.23-4.2-3.25-4.24-7.85-2a193.8 193.8 0 0 1-28.78 11.62c-1.34.38-2.58.99-3.76 1.47zm-17.83-8.62c-.26-1.09-.33-1.64-.52-2.15-5.57-15.29-13.49-29.16-24.81-41A65.86 65.86 0 0 0 477 15.02c-.85-.36-1.76-.59-2.68-.9-.91 5.16-.7 62.9.31 66.29 16.55-.61 33.09-2.45 49.43-6.83zm-.18 160.28c-7.31-3.45-43.32-7.62-49.67-6-.81 4.77-.62 61.23.32 64.68 1.69-.59 3.41-1.08 5-1.78 9.61-4.16 17.22-10.84 23.74-18.9 7-8.67 12.25-18.37 16.64-28.56 1.32-3.04 2.56-6.14 3.92-9.44zM505.7 19.15c.43.49.82 1 1.29 1.47a88.83 88.83 0 0 1 17.91 23.67c3.69 7.06 6.83 14.4 10.22 21.61.64 1.36 1.31 2.72 1.92 4 7.9-1.22 29.36-9.67 32.88-13-18.08-18.21-39.28-31.03-64.22-37.75zm-.67 269.14a144 144 0 0 0 65-38.7 167.18 167.18 0 0 0-31-12.28c-1.53-.44-2.41.25-3 1.55-1 2.31-2 4.64-3 6.95-6.57 15.14-14.81 29.19-26.92 40.67a13.21 13.21 0 0 0-1.08 1.81zM176.92 497.57h-27.74v-90.5l-48.9 85.95a12 12 0 0 1-5 5 14.75 14.75 0 0 1-6.94 1.7 13.91 13.91 0 0 1-6.73-1.7 12.15 12.15 0 0 1-4.93-5L27.6 407.08v90.5H0v-140.2a13.82 13.82 0 0 1 10.18-13.46 14.6 14.6 0 0 1 4.45-.37 14.85 14.85 0 0 1 4.29 1 12.95 12.95 0 0 1 6.63 5.67l62.75 109 62.75-109a13.48 13.48 0 0 1 6.73-5.72 14.35 14.35 0 0 1 9-.53 13.82 13.82 0 0 1 7.31 5 13.5 13.5 0 0 1 2.86 8.48zm181.17 0h-27.57v-37.3h-96.88v37.3h-27.56v-76a80.11 80.11 0 0 1 5.72-30.62 71.49 71.49 0 0 1 15.9-24.05 72.41 72.41 0 0 1 24.06-15.68 80.11 80.11 0 0 1 30.32-5.62h62.1a13.93 13.93 0 0 1 5.41 1.06 13.63 13.63 0 0 1 7.42 7.42 13.91 13.91 0 0 1 1.06 5.4zm-124.45-64.85h96.89v-59.55h-48.45q-1.27 0-5.35.37a54.6 54.6 0 0 0-9.43 1.85 59.15 59.15 0 0 0-11.29 4.56 39.66 39.66 0 0 0-10.92 8.48 43.37 43.37 0 0 0-8.22 13.51q-3.24 8.11-3.23 19.66zm225.89-32.85l46.43-54.25h37.63l-65.41 76.18 65 75.77h-37.43l-46.22-53.83-46 53.83H376l64.88-75.77-65.09-76.19h37.31z"/><path class="a" d="M765.57 373.17h-60.74v124.4h-27.56v-124.4h-60.85v-27.55h149.15zm173.53-27.55l-72 146.55a13.35 13.35 0 0 1-5 5.46 13.73 13.73 0 0 1-7.37 2.07 13.53 13.53 0 0 1-7.26-2.07 14.1 14.1 0 0 1-5.14-5.46l-71.89-146.55h30.85l53.43 109.46 53.64-109.46z"/></svg>