<svg version="1.1" id="Max_TV" xmlns="http://www.w3.org/2000/svg" xmlns:xlink="http://www.w3.org/1999/xlink" x="0" y="0" viewBox="0 0 939.09 499.7" xml:space="preserve"><style type="text/css">.st0{fill:#6c6c6c}.st1{fill:#d60217}.st2{opacity:.4}.st3{clip-path:url(#SVGID_2_);fill:url(#SVGID_3_)}.st4{fill:url(#SVGID_4_)}.st5{fill:url(#SVGID_5_)}.st6{fill:url(#SVGID_6_)}.st7{clip-path:url(#SVGID_8_);fill:url(#SVGID_9_)}.st8{opacity:.71}.st9{clip-path:url(#SVGID_11_)}.st10{fill:url(#SVGID_12_)}.st11{fill:url(#SVGID_13_)}.st12{fill:url(#SVGID_14_)}.st13{fill:url(#SVGID_15_)}.st14{fill:url(#SVGID_16_)}.st15{fill:url(#SVGID_17_)}.st16{clip-path:url(#SVGID_19_)}.st17{fill:url(#SVGID_20_)}.st18{fill:url(#SVGID_21_)}.st19{fill:url(#SVGID_22_)}.st20{fill:url(#SVGID_23_)}.st21{fill:url(#SVGID_24_)}.st22{fill:url(#SVGID_25_)}.st23,.st24{opacity:.71;fill:url(#SVGID_26_)}.st24{fill:url(#SVGID_27_)}</style><path class="st0" d="M447.68.24c-5 3.23-6.1 7.67-5.73 12.6.19 2.58-.81 4-3 5.23-10.3 5.88-18.16 14.42-25 23.91a121.84 121.84 0 0 0-15 29c-.24.63-.37 1.31-.71 2.56 14.29 4 28.82 5.47 43.78 6.83-.06 4.88.73 9.37 5.15 12.46-17.8.06-35.07-3.29-52.47-7.17-.52 1.06-.98 2.15-1.38 3.27a227.051 227.051 0 0 0-8.31 53c-.19 4.34 0 4.53 4.38 4.53h66.82c1.36 0 2.72.13 4.14.2v13.27h-75.17c-.12 1.8-.3 3-.26 4.24.61 18.21 3.41 36.28 8.34 53.82.8 2.86 1.26 3.06 4.67 2.43 6.74-1.25 13.44-2.79 20.23-3.69 9.41-1.25 18.89-2 28.54-2.7-3.76 3.49-5.28 7.67-4.73 13a396.823 396.823 0 0 0-43.29 5.95c.08.85.23 1.69.45 2.51 4.66 11.74 9.93 23.16 17.51 33.38 6.43 8.67 14 16 23.79 20.84.52.3 1.02.63 1.5 1 .32 5.57-.9 11.71 5.27 15.51l-.54.63c-4.49-.55-9-.89-13.45-1.67-55.41-9.64-95.4-40.09-120.65-90-7.4-14.64-10.7-30.55-12.64-46.8-.99-8.06-1.2-16.19-.61-24.29 1.86-24.19 8-47.23 21.3-67.82 25.34-39.24 60.29-64.92 106.56-74.09 6-1.19 12.21-1.51 18.33-2.2.73.03 1.46.11 2.18.26zM343.81 239.73c1.54-.73 2.64-1.3 3.79-1.78 8.89-3.75 17.78-7.49 26.68-11.22 1.44-.55 2.91-1 4.41-1.35 1.88-.51 2.42-1.71 1.93-3.5-.22-.81-.41-1.63-.64-2.43a228.198 228.198 0 0 1-8.6-55.87c-.08-3.33-.38-3.65-3.64-3.66h-52.1c-.89.12-1.77.35-2.6.69 1.14 30.19 12.14 56.02 30.77 79.12zm-31.08-93.29h55.79c1.89.05 2.89-.77 2.86-2.73 0-.84 0-1.68.05-2.52.71-18.47 3.6-36.8 8.62-54.59 1.23-4.33 1.28-4.34-2.86-5.64a188.915 188.915 0 0 1-29.49-12.05c-3.84-2-3.87-2-6.46 1.35a132.16 132.16 0 0 0-26.92 61.63c-.71 4.51-1 9.09-1.59 14.55zm103.86 140.68c-.45-.5-.91-1-1.33-1.51-4.33-5.29-8.91-10.41-12.93-15.93-6.62-9.09-11.37-19.23-15.5-29.67-1.26-3.19-1.72-3.48-4.59-2.58-9.26 2.73-18.25 6.3-26.86 10.66-.79.52-1.54 1.1-2.25 1.73 17.89 18.28 38.66 30.98 63.46 37.3zM385.18 70.4c2.22-5.12 4.1-9.76 6.23-14.29s4.32-9.11 6.85-13.44c2.54-4.35 5.34-8.53 8.4-12.53 3-3.87 6.38-7.38 9.6-11a141.755 141.755 0 0 0-64.22 38.59l33.14 12.67z"/><path class="st1" d="M537.55 160.13h-81.92v-13.25c5.81-.15 11.25-.39 16.69-.4 20 0 40.06 0 60.09.08h2.1c2.11.06 3.11-.91 3-3.05-.31-5-.44-10.08-.92-15.09a221.647 221.647 0 0 0-7.62-39.95c-.19-.66-.52-1.29-.94-2.31-1.58.13-3.22.16-4.83.43-9.52 1.59-19 3.43-28.56 4.8-11.92 1.71-23.9 2.95-36 2.6a86.47 86.47 0 0 0-9.66 0c-8 .66-12.36-4.81-12.19-12 .26-11.34.08-22.69.06-34s-.1-22.69-.13-34c-.06-1.54-.02-3.08.12-4.61.79-6.21 4.58-9.38 10.86-9.3 10.36.14 20.72.2 31.08.31 11.6.12 22.72 3 33.77 6.13 40.56 11.58 88.27 49.72 104.4 101.11 3.22 10 5.3 20.34 6.18 30.81.63 8.21 1.39 16.54.74 24.71-2.3 29-11.42 55.58-29.32 78.76-25.45 33-58.22 54.48-99.33 62.68a167.302 167.302 0 0 1-33.42 3c-4.9 0-9.81.07-14.71 0-6.24-.1-9.88-3.61-10.16-9.87-.14-3.21 0-6.44 0-9.66-.07-20.73-.22-41.46-.15-62.19.07-2.63.69-5.22 1.81-7.6a7.404 7.404 0 0 1 6.85-4.18c8.25-.2 16.52-.61 24.76-.29 18.08.71 36 3.29 53.71 6.67 3.92.75 4.55.35 5.53-3.66 3.67-15.11 6.85-30.31 7.39-45.93.11-3.45.44-6.75.72-10.75zm72.39-.08h-46.13c-3.08 0-6.16-.08-9.23 0s-3.24.36-3.5 3.43-.56 6.41-.74 9.62c-.77 16.07-3.46 31.99-8 47.43-.31 1.26-.54 2.54-.7 3.83.46.33.95.62 1.46.86 11.5 3.45 22.65 8 33.28 13.58 2.07 1.09 3.28.31 4.57-1.35 13.35-17.15 22.94-36.05 26.88-57.57 1.16-6.25 2.35-12.58 2.1-19.83h.01zm-68-77.85c-.14.48-.22.99-.22 1.49.33 1.64.67 3.29 1.13 4.9 5.06 17.5 7.84 35.59 8.29 53.8.08 3.79.5 4.16 4.56 4.16h50c1.35 0 2.69-.2 4.36-.34-.11-2.48-.09-4.57-.31-6.62a133.682 133.682 0 0 0-27.47-68.48c-3.23-4.2-3.25-4.24-7.85-2-9.27 4.64-18.89 8.52-28.78 11.62-1.34.38-2.58.99-3.76 1.47h.05zm-17.83-8.62c-.26-1.09-.33-1.64-.52-2.15-5.57-15.29-13.49-29.16-24.81-41A65.812 65.812 0 0 0 477 15.02c-.85-.36-1.76-.59-2.68-.9-.91 5.16-.7 62.9.31 66.29 16.55-.61 33.09-2.45 49.43-6.83h.05zm-.18 160.28c-7.31-3.45-43.32-7.62-49.67-6-.81 4.77-.62 61.23.32 64.68 1.69-.59 3.41-1.08 5-1.78 9.61-4.16 17.22-10.84 23.74-18.9 7-8.67 12.25-18.37 16.64-28.56 1.32-3.04 2.56-6.14 3.92-9.44h.05zM505.7 19.15c.43.49.82 1 1.29 1.47a88.71 88.71 0 0 1 17.91 23.67c3.69 7.06 6.83 14.4 10.22 21.61.64 1.36 1.31 2.72 1.92 4 7.9-1.22 29.36-9.67 32.88-13-18.08-18.21-39.28-31.03-64.22-37.75zm-.67 269.14a144.04 144.04 0 0 0 65-38.7c-9.9-5.12-20.28-9.23-31-12.28-1.53-.44-2.41.25-3 1.55-1 2.31-2 4.64-3 6.95-6.57 15.14-14.81 29.19-26.92 40.67-.41.57-.77 1.18-1.08 1.81zM176.92 497.57h-27.74v-90.5l-48.9 85.95a12.05 12.05 0 0 1-5 5 14.717 14.717 0 0 1-6.94 1.7c-2.35.01-4.67-.57-6.73-1.7-2.1-1.15-3.81-2.88-4.93-5L27.6 407.08v90.5H0v-140.2a13.81 13.81 0 0 1 10.18-13.46c1.46-.35 2.96-.48 4.45-.37 1.47.12 2.92.46 4.29 1 2.8 1.07 5.14 3.07 6.63 5.67l62.75 109 62.75-109c1.54-2.61 3.91-4.62 6.73-5.72 2.87-1.14 6.02-1.32 9-.53 2.92.82 5.49 2.58 7.31 5a13.49 13.49 0 0 1 2.86 8.48l-.03 140.12zM358.09 497.57h-27.57v-37.3h-96.88v37.3h-27.56v-76a80.047 80.047 0 0 1 5.72-30.62c3.61-9.01 9.02-17.2 15.9-24.05a72.388 72.388 0 0 1 24.06-15.68 80.045 80.045 0 0 1 30.32-5.62h62.1c1.86-.01 3.7.35 5.41 1.06 3.36 1.38 6.04 4.06 7.42 7.42a13.9 13.9 0 0 1 1.06 5.4l.02 138.09zm-124.45-64.85h96.89v-59.55h-48.45c-.85 0-2.63.12-5.35.37-3.19.34-6.35.96-9.43 1.85a59.693 59.693 0 0 0-11.29 4.56c-4.11 2.17-7.8 5.04-10.92 8.48a43.454 43.454 0 0 0-8.22 13.51c-2.16 5.41-3.24 11.96-3.23 19.66v11.12zM459.53 399.87l46.43-54.25h37.63l-65.41 76.18 65 75.77h-37.43l-46.22-53.83-46 53.83H376l64.88-75.77-65.09-76.19h37.31l46.43 54.26z"/><path class="st0" d="M765.57 373.17h-60.74v124.4h-27.56v-124.4h-60.85v-27.55h149.15v27.55zM939.1 345.62l-72 146.55a13.302 13.302 0 0 1-5 5.46 13.801 13.801 0 0 1-7.37 2.07c-2.57.01-5.09-.71-7.26-2.07a14.127 14.127 0 0 1-5.14-5.46l-71.89-146.55h30.85l53.43 109.46 53.64-109.46h30.74z"/><g id="shadow" class="st2"><defs><path id="SVGID_1_" d="M459.53 399.87l46.43-54.25h37.63l-65.41 76.18 65 75.77h-37.43l-46.22-53.83-46 53.83H376l64.88-75.77-65.09-76.19h37.31l46.43 54.26z"/></defs><clipPath id="SVGID_2_"><use xlink:href="#SVGID_1_" overflow="visible"/></clipPath><linearGradient id="SVGID_3_" gradientUnits="userSpaceOnUse" x1="468.843" y1="440.47" x2="505.891" y2="460.726" gradientTransform="rotate(-73.667 449.18 427.282)"><stop offset="0" stop-color="#000"/><stop offset="1" stop-color="#d60217" stop-opacity="0"/></linearGradient><path class="st3" d="M483.87 428.59l-32.72-38.53 29.52-19.39 35.66 30.66z"/><linearGradient id="SVGID_4_" gradientUnits="userSpaceOnUse" x1="233.64" y1="446.423" x2="265.375" y2="446.423"><stop offset="0" stop-color="#000"/><stop offset="1" stop-color="#d60217" stop-opacity="0"/></linearGradient><path class="st4" d="M233.64 432.72h31.74v27.41h-31.74z"/><linearGradient id="SVGID_5_" gradientUnits="userSpaceOnUse" x1="677.753" y1="386.365" x2="709.487" y2="386.365" gradientTransform="rotate(90 690.995 386.423)"><stop offset="0" stop-color="#000"/><stop offset="1" stop-color="#6c6c6c" stop-opacity="0"/></linearGradient><path class="st5" d="M677.29 373.18h27.52v31.74h-27.52z"/><linearGradient id="SVGID_6_" gradientUnits="userSpaceOnUse" x1="163.064" y1="364.833" x2="163.064" y2="429.333"><stop offset="0" stop-color="#000"/><stop offset="1" stop-color="#d60217" stop-opacity="0"/></linearGradient><path class="st6" d="M149.18 407.07l27.77-42.24v64.5h-27.77z"/><defs><path id="SVGID_7_" d="M939.1 345.62l-72 146.55a13.302 13.302 0 0 1-5 5.46 13.801 13.801 0 0 1-7.37 2.07c-2.57.01-5.09-.71-7.26-2.07a14.127 14.127 0 0 1-5.14-5.46l-71.89-146.55h30.85l53.43 109.46 53.64-109.46h30.74z"/></defs><clipPath id="SVGID_8_"><use xlink:href="#SVGID_7_" overflow="visible"/></clipPath><linearGradient id="SVGID_9_" gradientUnits="userSpaceOnUse" x1="820.375" y1="411.796" x2="844.287" y2="468.727" gradientTransform="rotate(172.793 834.559 448.619)"><stop offset="0" stop-color="#000"/><stop offset="1" stop-color="#6c6c6c" stop-opacity="0"/></linearGradient><path class="st7" d="M858.22 448l-22.24 45.39-35.66-50.71L845 418.17z"/><g class="st8"><defs><path id="SVGID_10_" class="st8" d="M537.55 160.13h-81.92v-13.25c5.81-.15 11.25-.39 16.69-.4 20 0 40.06 0 60.09.08h2.1c2.11.06 3.11-.91 3-3.05-.31-5-.44-10.08-.92-15.09a221.647 221.647 0 0 0-7.62-39.95c-.19-.66-.52-1.29-.94-2.31-1.58.13-3.22.16-4.83.43-9.52 1.59-19 3.43-28.56 4.8-11.92 1.71-23.9 2.95-36 2.6a86.47 86.47 0 0 0-9.66 0c-8 .66-12.36-4.81-12.19-12 .26-11.34.08-22.69.06-34s-.1-22.69-.13-34c-.06-1.54-.02-3.08.12-4.61.79-6.21 4.58-9.38 10.86-9.3 10.36.14 20.72.2 31.08.31 11.6.12 22.72 3 33.77 6.13 40.56 11.58 88.27 49.72 104.4 101.11 3.22 10 5.3 20.34 6.18 30.81.63 8.21 1.39 16.54.74 24.71-2.3 29-11.42 55.58-29.32 78.76-25.45 33-58.22 54.48-99.33 62.68a167.302 167.302 0 0 1-33.42 3c-4.9 0-9.81.07-14.71 0-6.24-.1-9.88-3.61-10.16-9.87-.14-3.21 0-6.44 0-9.66-.07-20.73-.22-41.46-.15-62.19.07-2.63.69-5.22 1.81-7.6a7.404 7.404 0 0 1 6.85-4.18c8.25-.2 16.52-.61 24.76-.29 18.08.71 36 3.29 53.71 6.67 3.92.75 4.55.35 5.53-3.66 3.67-15.11 6.85-30.31 7.39-45.93.11-3.45.44-6.75.72-10.75zm72.39-.08h-46.13c-3.08 0-6.16-.08-9.23 0s-3.24.36-3.5 3.43-.56 6.41-.74 9.62c-.77 16.07-3.46 31.99-8 47.43-.31 1.26-.54 2.54-.7 3.83.46.33.95.62 1.46.86 11.5 3.45 22.65 8 33.28 13.58 2.07 1.09 3.28.31 4.57-1.35 13.35-17.15 22.94-36.05 26.88-57.57 1.16-6.25 2.35-12.58 2.1-19.83h.01zm-68-77.85c-.14.48-.22.99-.22 1.49.33 1.64.67 3.29 1.13 4.9 5.06 17.5 7.84 35.59 8.29 53.8.08 3.79.5 4.16 4.56 4.16h50c1.35 0 2.69-.2 4.36-.34-.11-2.48-.09-4.57-.31-6.62a133.682 133.682 0 0 0-27.47-68.48c-3.23-4.2-3.25-4.24-7.85-2-9.27 4.64-18.89 8.52-28.78 11.62-1.34.38-2.58.99-3.76 1.47h.05zm-17.83-8.62c-.26-1.09-.33-1.64-.52-2.15-5.57-15.29-13.49-29.16-24.81-41A65.812 65.812 0 0 0 477 15.02c-.85-.36-1.76-.59-2.68-.9-.91 5.16-.7 62.9.31 66.29 16.55-.61 33.09-2.45 49.43-6.83h.05zm-.18 160.28c-7.31-3.45-43.32-7.62-49.67-6-.81 4.77-.62 61.23.32 64.68 1.69-.59 3.41-1.08 5-1.78 9.61-4.16 17.22-10.84 23.74-18.9 7-8.67 12.25-18.37 16.64-28.56 1.32-3.04 2.56-6.14 3.92-9.44h.05zM505.7 19.15c.43.49.82 1 1.29 1.47a88.71 88.71 0 0 1 17.91 23.67c3.69 7.06 6.83 14.4 10.22 21.61.64 1.36 1.31 2.72 1.92 4 7.9-1.22 29.36-9.67 32.88-13-18.08-18.21-39.28-31.03-64.22-37.75zm-.67 269.14a144.04 144.04 0 0 0 65-38.7c-9.9-5.12-20.28-9.23-31-12.28-1.53-.44-2.41.25-3 1.55-1 2.31-2 4.64-3 6.95-6.57 15.14-14.81 29.19-26.92 40.67-.41.57-.77 1.18-1.08 1.81z"/></defs><clipPath id="SVGID_11_"><use xlink:href="#SVGID_10_" overflow="visible"/></clipPath><g class="st9"><linearGradient id="SVGID_12_" gradientUnits="userSpaceOnUse" x1="544.066" y1="146.56" x2="544.066" y2="122.224"><stop offset="0" stop-color="#000"/><stop offset="1" stop-color="#d60217" stop-opacity="0"/></linearGradient><path class="st10" d="M554.64 146.54v-24.32h-19.31l-1.83 24.34z"/><linearGradient id="SVGID_13_" gradientUnits="userSpaceOnUse" x1="536.276" y1="185.511" x2="536.276" y2="159.989"><stop offset="0" stop-color="#d60217" stop-opacity="0"/><stop offset="1" stop-color="#000"/></linearGradient><path class="st11" d="M520.36 160.08l-2.49 25.43h36.77l.04-25.52z"/></g><g class="st9"><linearGradient id="SVGID_14_" gradientUnits="userSpaceOnUse" x1="532.759" y1="73.36" x2="532.759" y2="49.024" gradientTransform="rotate(-15.334 525.466 78.66)"><stop offset="0" stop-color="#000"/><stop offset="1" stop-color="#d60217" stop-opacity="0"/></linearGradient><path class="st12" d="M541.3 68.82l-6.43-23.45-18.62 5.1 4.66 23.96z"/><linearGradient id="SVGID_15_" gradientUnits="userSpaceOnUse" x1="531.208" y1="111.308" x2="531.208" y2="85.692" gradientTransform="rotate(-15.334 525.466 78.66)"><stop offset="0" stop-color="#d60217" stop-opacity="0"/><stop offset="1" stop-color="#000"/></linearGradient><path class="st13" d="M523.2 86.59l9.74 22.04 15.44-2.38-5.68-24.39z"/></g><g class="st9"><linearGradient id="SVGID_16_" gradientUnits="userSpaceOnUse" x1="491.696" y1="218.396" x2="491.696" y2="193.771" gradientTransform="rotate(13.069 492.29 404.861)"><stop offset="0" stop-color="#000"/><stop offset="1" stop-color="#d60217" stop-opacity="0"/></linearGradient><path class="st14" d="M544.18 225.47l5.57-23.99-18.8-4.36-7.29 23.29z"/><linearGradient id="SVGID_17_" gradientUnits="userSpaceOnUse" x1="490.02" y1="256.121" x2="490.02" y2="230.762" gradientTransform="rotate(13.069 492.29 404.861)"><stop offset="0" stop-color="#d60217" stop-opacity="0"/><stop offset="1" stop-color="#000"/></linearGradient><path class="st15" d="M519.71 232.48l-1.9 23.76 14.71 5.25 6.61-24.15z"/></g></g><g class="st8"><defs><path id="SVGID_18_" class="st8" d="M447.68.24c-5 3.23-6.1 7.67-5.73 12.6.19 2.58-.81 4-3 5.23-10.3 5.88-18.16 14.42-25 23.91a121.84 121.84 0 0 0-15 29c-.24.63-.37 1.31-.71 2.56 14.29 4 28.82 5.47 43.78 6.83-.06 4.88.73 9.37 5.15 12.46-17.8.06-35.07-3.29-52.47-7.17-.52 1.06-.98 2.15-1.38 3.27a227.051 227.051 0 0 0-8.31 53c-.19 4.34 0 4.53 4.38 4.53h66.82c1.36 0 2.72.13 4.14.2v13.27h-75.17c-.12 1.8-.3 3-.26 4.24.61 18.21 3.41 36.28 8.34 53.82.8 2.86 1.26 3.06 4.67 2.43 6.74-1.25 13.44-2.79 20.23-3.69 9.41-1.25 18.89-2 28.54-2.7-3.76 3.49-5.28 7.67-4.73 13a396.823 396.823 0 0 0-43.29 5.95c.08.85.23 1.69.45 2.51 4.66 11.74 9.93 23.16 17.51 33.38 6.43 8.67 14 16 23.79 20.84.52.3 1.02.63 1.5 1 .32 5.57-.9 11.71 5.27 15.51l-.54.63c-4.49-.55-9-.89-13.45-1.67-55.41-9.64-95.4-40.09-120.65-90-7.4-14.64-10.7-30.55-12.64-46.8-.99-8.06-1.2-16.19-.61-24.29 1.86-24.19 8-47.23 21.3-67.82 25.34-39.24 60.29-64.92 106.56-74.09 6-1.19 12.21-1.51 18.33-2.2.73.03 1.46.11 2.18.26zM343.81 239.73c1.54-.73 2.64-1.3 3.79-1.78 8.89-3.75 17.78-7.49 26.68-11.22 1.44-.55 2.91-1 4.41-1.35 1.88-.51 2.42-1.71 1.93-3.5-.22-.81-.41-1.63-.64-2.43a228.198 228.198 0 0 1-8.6-55.87c-.08-3.33-.38-3.65-3.64-3.66h-52.1c-.89.12-1.77.35-2.6.69 1.14 30.19 12.14 56.02 30.77 79.12zm-31.08-93.29h55.79c1.89.05 2.89-.77 2.86-2.73 0-.84 0-1.68.05-2.52.71-18.47 3.6-36.8 8.62-54.59 1.23-4.33 1.28-4.34-2.86-5.64a188.915 188.915 0 0 1-29.49-12.05c-3.84-2-3.87-2-6.46 1.35a132.16 132.16 0 0 0-26.92 61.63c-.71 4.51-1 9.09-1.59 14.55zm103.86 140.68c-.45-.5-.91-1-1.33-1.51-4.33-5.29-8.91-10.41-12.93-15.93-6.62-9.09-11.37-19.23-15.5-29.67-1.26-3.19-1.72-3.48-4.59-2.58-9.26 2.73-18.25 6.3-26.86 10.66-.79.52-1.54 1.1-2.25 1.73 17.89 18.28 38.66 30.98 63.46 37.3zM385.18 70.4c2.22-5.12 4.1-9.76 6.23-14.29s4.32-9.11 6.85-13.44c2.54-4.35 5.34-8.53 8.4-12.53 3-3.87 6.38-7.38 9.6-11a141.755 141.755 0 0 0-64.22 38.59l33.14 12.67z"/></defs><clipPath id="SVGID_19_"><use xlink:href="#SVGID_18_" overflow="visible"/></clipPath><g class="st16"><linearGradient id="SVGID_20_" gradientUnits="userSpaceOnUse" x1="415.254" y1="146.932" x2="415.254" y2="122.596" gradientTransform="rotate(180 395.464 153.43)"><stop offset="0" stop-color="#000"/><stop offset="1" stop-color="#6c6c6c" stop-opacity="0"/></linearGradient><path class="st17" d="M364.28 159.95v24.32l22.78-.54-1.64-23.8z"/><linearGradient id="SVGID_21_" gradientUnits="userSpaceOnUse" x1="405.338" y1="185.886" x2="405.338" y2="160.364" gradientTransform="rotate(180 395.464 153.43)"><stop offset="0" stop-color="#6c6c6c" stop-opacity="0"/><stop offset="1" stop-color="#000"/></linearGradient><path class="st18" d="M401.5 146.4l2.49-25.42h-36.76l-.04 25.52z"/></g><g class="st16"><linearGradient id="SVGID_22_" gradientUnits="userSpaceOnUse" x1="404.836" y1="39.09" x2="404.836" y2="14.559" gradientTransform="rotate(164.666 385.4 135.933)"><stop offset="0" stop-color="#000"/><stop offset="1" stop-color="#6c6c6c" stop-opacity="0"/></linearGradient><path class="st19" d="M382.88 237.25l6.68 23.38 18.62-5.1-9.46-22.56s-5.22 1.15-6.92 1.61c-2.26.61-8.92 2.67-8.92 2.67z"/><linearGradient id="SVGID_23_" gradientUnits="userSpaceOnUse" x1="405.99" y1="76.675" x2="405.99" y2="51.059" gradientTransform="rotate(164.666 385.4 135.933)"><stop offset="0" stop-color="#6c6c6c" stop-opacity="0"/><stop offset="1" stop-color="#000"/></linearGradient><path class="st20" d="M398.73 220.27l-9.74-22.04-15.44 2.38 3.57 25.18s8.16-2.53 10.96-3.25c2.6-.66 10.65-2.27 10.65-2.27z"/></g><g class="st16"><linearGradient id="SVGID_24_" gradientUnits="userSpaceOnUse" x1="364.117" y1="248.2" x2="364.117" y2="223.627" gradientTransform="rotate(-166.931 366.655 164.528)"><stop offset="0" stop-color="#000"/><stop offset="1" stop-color="#6c6c6c" stop-opacity="0"/></linearGradient><path class="st21" d="M378.57 81.41l-5.4 23.97 18.8 4.37 2.72-24.08s-5.22-1.2-6.97-1.66c-2.27-.61-9.15-2.6-9.15-2.6z"/><linearGradient id="SVGID_25_" gradientUnits="userSpaceOnUse" x1="361.087" y1="285.977" x2="361.087" y2="260.31" gradientTransform="rotate(-166.931 366.655 164.528)"><stop offset="0" stop-color="#6c6c6c" stop-opacity="0"/><stop offset="1" stop-color="#000"/></linearGradient><path class="st22" d="M398.24 73.54l8.7-16.35-16.53-11.82-5.23 25.03"/></g></g><linearGradient id="SVGID_26_" gradientUnits="userSpaceOnUse" x1="446.287" y1="69.32" x2="475.163" y2="54.608"><stop offset="0" stop-color="#000"/><stop offset=".006" stop-color="#030000" stop-opacity=".992"/><stop offset=".299" stop-color="#960211" stop-opacity=".615"/><stop offset=".427" stop-color="#d10317" stop-opacity=".451"/><stop offset="1" stop-color="#d10317" stop-opacity="0"/></linearGradient><path class="st23" d="M455.38 81.5h13.96V43.17h-18.67v33.62c0 2.59 2.12 4.71 4.71 4.71z"/><linearGradient id="SVGID_27_" gradientUnits="userSpaceOnUse" x1="446.287" y1="255.654" x2="475.163" y2="240.941" gradientTransform="matrix(1 0 0 -1 0 495.333)"><stop offset="0" stop-color="#000"/><stop offset=".006" stop-color="#030000" stop-opacity=".992"/><stop offset=".299" stop-color="#960211" stop-opacity=".615"/><stop offset=".427" stop-color="#d10317" stop-opacity=".451"/><stop offset="1" stop-color="#d10317" stop-opacity="0"/></linearGradient><path class="st24" d="M455.38 227.5h13.96v38.33h-18.67V232.2c0-2.58 2.12-4.7 4.71-4.7z"/></g></svg>