<svg 
 xmlns="http://www.w3.org/2000/svg"
 xmlns:xlink="http://www.w3.org/1999/xlink"
 width="NaN%" height="NaN%">
<path fill-rule="evenodd"  opacity="0.212" fill="rgb(0, 0, 0)"
 d="M14.292,8.862 C14.849,7.981 15.173,6.944 15.173,5.828 C15.173,2.683 12.607,0.117 9.462,0.117 C6.316,0.117 3.751,2.683 3.751,5.828 C3.751,6.944 4.074,7.981 4.632,8.862 C3.059,9.320 0.896,10.870 0.896,15.945 C0.896,18.243 2.602,20.106 4.699,20.106 L14.225,20.106 C16.322,20.106 18.028,18.243 18.028,15.945 C18.028,10.870 15.864,9.320 14.292,8.862 ZM9.462,1.545 C11.827,1.545 13.745,3.464 13.745,5.828 C13.745,8.193 11.827,10.112 9.462,10.112 C7.097,10.112 5.179,8.193 5.179,5.828 C5.179,3.464 7.097,1.545 9.462,1.545 ZM14.225,18.678 L4.699,18.678 C3.394,18.678 2.323,17.462 2.323,15.945 C2.323,12.432 3.506,10.234 5.714,10.123 C6.718,11.004 8.023,11.539 9.462,11.539 C10.901,11.539 12.206,11.004 13.210,10.123 C15.418,10.234 16.601,12.432 16.601,15.945 C16.601,17.462 15.530,18.678 14.225,18.678 Z"/>
</svg>