<svg xmlns="http://www.w3.org/2000/svg" width="92.157" height="91.62" viewBox="0 0 92.157 91.62"><defs><style>.cls-1{fill-rule:evenodd}</style></defs><path class="cls-1" d="M88.872 88.79V51.73L65.361 40.45V11.74h-5.642V4.22H47.494V-.01h-2.821v4.23H32.447v7.52h-5.642v26.31h-5.643v-7.99h-2.821v7.99H7.994v7.51h-4.7v43.23H.003v2.82h92.16v-2.82h-3.291zM26.805 55.9h-17.4v2.82h17.4v4.7h-17.4v2.82h17.4v4.7h-17.4v2.82h17.4v4.69h-17.4v2.82h17.4v7.52H6.116V48.38h20.689v7.52zm0-10.34H10.818v-4.69h15.987v4.69zm8.463-38.52h21.626v4.7h-21.63v-4.7zM62.54 88.79H29.626V14.55H62.54v74.24zm23.51-7.52h-5.642v-4.7h5.642v4.7zm0-15.03h-5.642v-4.7h5.642v4.7zm0-7.52H69.123v10.34H86.05v4.7H69.123v10.33H86.05v4.7H65.361V43.58L86.05 53.5v5.22zm-8.463 2.82v4.7h-5.643v-4.7h5.643zm0 15.03v4.7h-5.643v-4.7h5.643zm-8.934-24.43h3.762v2.82h-3.762v-2.82zM43.262 20.19h5.642v2.82h-5.642v-2.82zm0 7.52h5.642v2.82h-5.642v-2.82zm0 7.52h5.642v2.82h-5.642v-2.82zm0 7.52h5.642v2.81h-5.642v-2.81zm9.4 0h5.642v2.81h-5.642v-2.81zm-18.808 0h5.642v2.81h-5.642v-2.81zm9.4 7.51h5.642v2.82h-5.642v-2.82zm9.4 0h5.642v2.82h-5.642v-2.82zm-18.808 0h5.642v2.82h-5.642v-2.82zm9.4 7.52h5.642v2.82h-5.642v-2.82zm9.4 0h5.642v2.82h-5.642v-2.82zm-18.808 0h5.642v2.82h-5.642v-2.82zm9.4 7.52h5.642v2.82h-5.642V65.3zm9.4 0h5.642v2.82h-5.642V65.3zm-18.808 0h5.642v2.82H33.83V65.3zm9.4 7.52h5.642v2.81H43.23v-2.81zm9.4 0h5.642v2.81H52.63v-2.81zm-18.808 0h5.642v2.81h-5.642v-2.81zm9.4 7.51h5.642v2.82h-5.642v-2.82zm9.4 0h5.642v2.82h-5.642v-2.82zm-18.808 0h5.642v2.82h-5.642v-2.82zm18.808-45.1h5.642v2.82h-5.642v-2.82zm-18.808 0h5.642v2.82h-5.642v-2.82zm18.808-7.52h5.642v2.82h-5.642v-2.82zm-18.808 0h5.642v2.82h-5.642v-2.82zm18.808-7.52h5.642v2.82h-5.642v-2.82zm-18.808 0h5.642v2.82h-5.642v-2.82z"/></svg>