<svg version="1.1" id="path" xmlns="http://www.w3.org/2000/svg" x="0" y="0" viewBox="0 0 866 264.3" xml:space="preserve"><style type="text/css">.st0,.st1,.st2{fill:none;stroke:#656d89;stroke-linecap:round;stroke-linejoin:round}.st1,.st2{stroke-dasharray:5.0044,6.0053}.st2{stroke:#ffdf54;stroke-width:1.4;stroke-miterlimit:10;stroke-dasharray:0,4}</style><g id="path_1_"><path class="st0" d="M.5 1C.7.7 1.6.5 2.9.5"/><path class="st1" d="M8.8 1.2C23.6 3.9 54.6 13.7 75.5 28c20.4 14 19.5 22.9 12 31s8.8 41.7 18 28c11.9-17.7-37-15.1-40 5s41.5 53.9 66 59c21.4 5 50.1 25.3 73 32 24.2 7.1 49.4 4.1 41-7-10.2-13.6-34.8 2.4-16 20 4.8 4.5 65.8 27.3 77 30 108.7 66.3 187.1 27.7 206.4 16"/><path class="st0" d="M515.4 240.4c1.4-.9 2.1-1.4 2.1-1.4"/></g><path class="st2" d="M528.5 231.5s30.3-22.3 75-29c38.3-5.7 109 45 109 45l153-76"/></svg>