<svg xmlns="http://www.w3.org/2000/svg" width="19.344" height="19.38" viewBox="0 0 19.344 19.38"><defs><style>.cls-1{stroke:#a7a7a7;stroke-width:1px;fill-rule:evenodd}</style></defs><path id="Forma_1" data-name="Forma 1" class="cls-1" d="M892.863 5219.7a1.4 1.4 0 0 0-.7-1.04l-4.526-2.61a1.421 1.421 0 0 0-1.71.22l-.891.9a.66.66 0 0 1-.873.04 25.086 25.086 0 0 1-2.057-1.85 24.394 24.394 0 0 1-1.85-2.06.65.65 0 0 1 .049-.87l.891-.9a1.418 1.418 0 0 0 .227-1.71l-2.606-4.53a1.419 1.419 0 0 0-2.231-.3l-1.344 1.35c-.937.94-.952 2.66-.042 4.84a23.759 23.759 0 0 0 11.086 11.1 7.521 7.521 0 0 0 2.841.67 2.732 2.732 0 0 0 1.988-.71l1.343-1.35a1.4 1.4 0 0 0 .405-1.19zm-5.52-3.14l4.526 2.61a.832.832 0 0 1 .251 1.21l-6.015-3.44.245-.25a.836.836 0 0 1 .993-.13zm-9.645-11.38a.8.8 0 0 1 .606.41l2.606 4.53a.82.82 0 0 1-.132.99l-.224.23-3.452-6.01a.844.844 0 0 1 .486-.16c.036 0 .073.01.112.01zm13 16.63c-.745.75-2.269.72-4.18-.08a23.161 23.161 0 0 1-10.767-10.78c-.8-1.92-.83-3.44-.086-4.19l1-1 3.457 6.01-.232.24a1.239 1.239 0 0 0-.092 1.66 25.208 25.208 0 0 0 1.893 2.11 26.187 26.187 0 0 0 2.1 1.9 1.25 1.25 0 0 0 1.666-.09l.211-.22 6.024 3.45z" transform="translate(-874.031 -5204.06)"/></svg>