<svg 
 xmlns="http://www.w3.org/2000/svg"
 xmlns:xlink="http://www.w3.org/1999/xlink"
 width="NaN%" height="NaN%">
<path fill-rule="evenodd"  opacity="0.212" fill="rgb(0, 0, 0)"
 d="M16.601,12.949 C16.601,12.871 16.601,12.792 16.567,12.714 C16.489,12.480 15.943,12.235 15.719,12.123 C15.084,11.766 14.437,11.421 13.812,11.052 C13.522,10.874 13.165,10.539 12.819,10.539 C12.139,10.539 11.146,12.558 10.544,12.558 C10.243,12.558 9.852,12.279 9.585,12.123 C7.555,10.997 6.149,9.591 5.023,7.561 C4.866,7.293 4.588,6.903 4.588,6.602 C4.588,6.000 6.606,5.007 6.606,4.326 C6.606,3.981 6.272,3.624 6.093,3.334 C5.725,2.709 5.380,2.062 5.023,1.426 C4.911,1.203 4.666,0.657 4.431,0.579 C4.353,0.545 4.275,0.545 4.197,0.545 C3.796,0.545 3.015,0.724 2.647,0.891 C2.100,1.125 1.743,1.750 1.464,2.252 C1.107,2.910 0.896,3.579 0.896,4.326 C0.896,5.364 1.319,6.301 1.665,7.249 C1.911,7.929 2.212,8.587 2.591,9.201 C3.762,11.097 6.049,13.384 7.945,14.555 C8.558,14.934 9.217,15.235 9.897,15.481 C10.845,15.826 11.782,16.250 12.819,16.250 C13.567,16.250 14.236,16.038 14.894,15.681 C15.396,15.403 16.021,15.046 16.255,14.499 C16.422,14.131 16.601,13.350 16.601,12.949 Z"/>
</svg>