<svg 
 xmlns="http://www.w3.org/2000/svg"
 xmlns:xlink="http://www.w3.org/1999/xlink"
 width="NaN%" height="NaN%">
<path fill-rule="evenodd"  opacity="0.212" fill="rgb(0, 0, 0)"
 d="M5.179,14.752 C5.179,14.562 5.011,14.395 4.822,14.395 L4.108,14.395 C3.918,14.395 3.751,14.562 3.751,14.752 L3.751,15.466 C3.751,15.655 3.918,15.823 4.108,15.823 L4.822,15.823 C5.011,15.823 5.179,15.655 5.179,15.466 L5.179,14.752 ZM5.179,11.896 C5.179,11.707 5.011,11.539 4.822,11.539 L4.108,11.539 C3.918,11.539 3.751,11.707 3.751,11.896 L3.751,12.610 C3.751,12.800 3.918,12.967 4.108,12.967 L4.822,12.967 C5.011,12.967 5.179,12.800 5.179,12.610 L5.179,11.896 ZM8.034,11.896 C8.034,11.707 7.867,11.539 7.677,11.539 L6.963,11.539 C6.774,11.539 6.606,11.707 6.606,11.896 L6.606,12.610 C6.606,12.800 6.774,12.967 6.963,12.967 L7.677,12.967 C7.867,12.967 8.034,12.800 8.034,12.610 L8.034,11.896 ZM5.179,9.041 C5.179,8.851 5.011,8.684 4.822,8.684 L4.108,8.684 C3.918,8.684 3.751,8.851 3.751,9.041 L3.751,9.755 C3.751,9.944 3.918,10.112 4.108,10.112 L4.822,10.112 C5.011,10.112 5.179,9.944 5.179,9.755 L5.179,9.041 ZM13.745,14.752 C13.745,14.562 13.578,14.395 13.388,14.395 L12.674,14.395 C12.485,14.395 12.317,14.562 12.317,14.752 L12.317,15.466 C12.317,15.655 12.485,15.823 12.674,15.823 L13.388,15.823 C13.578,15.823 13.745,15.655 13.745,15.466 L13.745,14.752 ZM10.890,11.896 C10.890,11.707 10.722,11.539 10.533,11.539 L9.819,11.539 C9.629,11.539 9.462,11.707 9.462,11.896 L9.462,12.610 C9.462,12.800 9.629,12.967 9.819,12.967 L10.533,12.967 C10.722,12.967 10.890,12.800 10.890,12.610 L10.890,11.896 ZM8.034,9.041 C8.034,8.851 7.867,8.684 7.677,8.684 L6.963,8.684 C6.774,8.684 6.606,8.851 6.606,9.041 L6.606,9.755 C6.606,9.944 6.774,10.112 6.963,10.112 L7.677,10.112 C7.867,10.112 8.034,9.944 8.034,9.755 L8.034,9.041 ZM5.179,6.185 C5.179,5.996 5.011,5.828 4.822,5.828 L4.108,5.828 C3.918,5.828 3.751,5.996 3.751,6.185 L3.751,6.899 C3.751,7.089 3.918,7.256 4.108,7.256 L4.822,7.256 C5.011,7.256 5.179,7.089 5.179,6.899 L5.179,6.185 ZM13.745,11.896 C13.745,11.707 13.578,11.539 13.388,11.539 L12.674,11.539 C12.485,11.539 12.317,11.707 12.317,11.896 L12.317,12.610 C12.317,12.800 12.485,12.967 12.674,12.967 L13.388,12.967 C13.578,12.967 13.745,12.800 13.745,12.610 L13.745,11.896 ZM10.890,9.041 C10.890,8.851 10.722,8.684 10.533,8.684 L9.819,8.684 C9.629,8.684 9.462,8.851 9.462,9.041 L9.462,9.755 C9.462,9.944 9.629,10.112 9.819,10.112 L10.533,10.112 C10.722,10.112 10.890,9.944 10.890,9.755 L10.890,9.041 ZM8.034,6.185 C8.034,5.996 7.867,5.828 7.677,5.828 L6.963,5.828 C6.774,5.828 6.606,5.996 6.606,6.185 L6.606,6.899 C6.606,7.089 6.774,7.256 6.963,7.256 L7.677,7.256 C7.867,7.256 8.034,7.089 8.034,6.899 L8.034,6.185 ZM5.179,3.330 C5.179,3.140 5.011,2.973 4.822,2.973 L4.108,2.973 C3.918,2.973 3.751,3.140 3.751,3.330 L3.751,4.044 C3.751,4.233 3.918,4.401 4.108,4.401 L4.822,4.401 C5.011,4.401 5.179,4.233 5.179,4.044 L5.179,3.330 ZM13.745,9.041 C13.745,8.851 13.578,8.684 13.388,8.684 L12.674,8.684 C12.485,8.684 12.317,8.851 12.317,9.041 L12.317,9.755 C12.317,9.944 12.485,10.112 12.674,10.112 L13.388,10.112 C13.578,10.112 13.745,9.944 13.745,9.755 L13.745,9.041 ZM10.890,6.185 C10.890,5.996 10.722,5.828 10.533,5.828 L9.819,5.828 C9.629,5.828 9.462,5.996 9.462,6.185 L9.462,6.899 C9.462,7.089 9.629,7.256 9.819,7.256 L10.533,7.256 C10.722,7.256 10.890,7.089 10.890,6.899 L10.890,6.185 ZM8.034,3.330 C8.034,3.140 7.867,2.973 7.677,2.973 L6.963,2.973 C6.774,2.973 6.606,3.140 6.606,3.330 L6.606,4.044 C6.606,4.233 6.774,4.401 6.963,4.401 L7.677,4.401 C7.867,4.401 8.034,4.233 8.034,4.044 L8.034,3.330 ZM13.745,6.185 C13.745,5.996 13.578,5.828 13.388,5.828 L12.674,5.828 C12.485,5.828 12.317,5.996 12.317,6.185 L12.317,6.899 C12.317,7.089 12.485,7.256 12.674,7.256 L13.388,7.256 C13.578,7.256 13.745,7.089 13.745,6.899 L13.745,6.185 ZM10.890,3.330 C10.890,3.140 10.722,2.973 10.533,2.973 L9.819,2.973 C9.629,2.973 9.462,3.140 9.462,3.330 L9.462,4.044 C9.462,4.233 9.629,4.401 9.819,4.401 L10.533,4.401 C10.722,4.401 10.890,4.233 10.890,4.044 L10.890,3.330 ZM13.745,3.330 C13.745,3.140 13.578,2.973 13.388,2.973 L12.674,2.973 C12.485,2.973 12.317,3.140 12.317,3.330 L12.317,4.044 C12.317,4.233 12.485,4.401 12.674,4.401 L13.388,4.401 C13.578,4.401 13.745,4.233 13.745,4.044 L13.745,3.330 ZM10.890,18.678 L10.890,16.179 C10.890,15.990 10.722,15.823 10.533,15.823 L6.963,15.823 C6.774,15.823 6.606,15.990 6.606,16.179 L6.606,18.678 L2.323,18.678 L2.323,1.545 L15.173,1.545 L15.173,18.678 L10.890,18.678 ZM16.601,0.831 C16.601,0.441 16.277,0.117 15.887,0.117 L1.609,0.117 C1.219,0.117 0.896,0.441 0.896,0.831 L0.896,19.392 C0.896,19.782 1.219,20.106 1.609,20.106 L15.887,20.106 C16.277,20.106 16.601,19.782 16.601,19.392 L16.601,0.831 Z"/>
</svg>