<svg xmlns="http://www.w3.org/2000/svg" width="46.78" height="109.09" viewBox="0 0 46.78 109.09"><defs><style>.cls-1{fill:#fff;fill-rule:evenodd}</style></defs><path id="Forma_1" data-name="Forma 1" class="cls-1" d="M2586.39 5109.02a7.407 7.407 0 0 1-5.27 2.19l-31.86-.01a7.456 7.456 0 0 1-7.45-7.45l-.02-94.18a7.443 7.443 0 0 1 7.45-7.45l31.85.01a7.46 7.46 0 0 1 7.46 7.45l.02 94.18a7.4 7.4 0 0 1-2.18 5.26zm-40.98-103.28a5.345 5.345 0 0 0-1.59 3.83l.02 94.18a5.424 5.424 0 0 0 5.42 5.42l31.86.01a5.429 5.429 0 0 0 5.42-5.42l-.02-94.18a5.424 5.424 0 0 0-5.42-5.42l-31.86-.01a5.345 5.345 0 0 0-3.83 1.59zm32.89 85.1a1 1 0 0 1-.68.29 1.039 1.039 0 0 1-.76-.29l-2.9-2.9a1.035 1.035 0 0 1-.07-1.36 11.179 11.179 0 0 0 .38-13.47 1.016 1.016 0 0 1 .1-1.31l2.93-2.92a1 1 0 0 1 1.51.09 17.316 17.316 0 0 1-.46 21.81.265.265 0 0 1-.05.06zm-2.28-3.72l1.47 1.48a15.311 15.311 0 0 0 .4-17.45l-1.49 1.5a13.22 13.22 0 0 1-.38 14.47zm-.68 6.44a1.47 1.47 0 0 1-.13.1 17.346 17.346 0 0 1-20.64-.44 1.028 1.028 0 0 1-.39-.74 1 1 0 0 1 .3-.78l2.92-2.92a1 1 0 0 1 1.31-.11 11.1 11.1 0 0 0 12.43.36 1.012 1.012 0 0 1 1.25.14l2.95 2.95a1.007 1.007 0 0 1 0 1.44zm-18.59-1.27a15.353 15.353 0 0 0 16.28.38l-1.51-1.51a13.109 13.109 0 0 1-13.27-.36l-1.5 1.49zm13.83-7.3a7.629 7.629 0 1 1 2.24-5.4 7.58 7.58 0 0 1-2.24 5.4zm-9.36-9.37a5.613 5.613 0 1 0 3.96-1.64 5.568 5.568 0 0 0-3.96 1.64zm14.67-8.15l-2.92 2.93a1.016 1.016 0 0 1-1.31.1 11.179 11.179 0 0 0-13.47.38 1.035 1.035 0 0 1-1.36-.07l-2.9-2.9a1.039 1.039 0 0 1-.29-.76.983.983 0 0 1 .35-.73 17.316 17.316 0 0 1 21.81-.46 1 1 0 0 1 .09 1.51zm-3.77.9l1.5-1.49a15.312 15.312 0 0 0-17.45.4l1.48 1.47a13.22 13.22 0 0 1 14.47-.38zm-16.13 19l-2.92 2.92a.989.989 0 0 1-.78.3 1.028 1.028 0 0 1-.74-.39 17.346 17.346 0 0 1-.44-20.64 1 1 0 0 1 .74-.43 1.032 1.032 0 0 1 .8.3l2.95 2.95a1.012 1.012 0 0 1 .14 1.25 11.1 11.1 0 0 0 .36 12.43 1 1 0 0 1-.11 1.31zm-3.51.65l1.49-1.5a13.133 13.133 0 0 1-.36-13.27l-1.51-1.51a15.353 15.353 0 0 0 .38 16.28zm30.12-34.3a2.61 2.61 0 0 1-1.86.77h-3.92a2.623 2.623 0 0 1-2.62-2.62v-.92a2.612 2.612 0 0 1 2.62-2.62h3.92a2.616 2.616 0 0 1 2.62 2.62v.92a2.6 2.6 0 0 1-.76 1.85zm-6.2-3.19a.589.589 0 0 0-.17.42v.92a.591.591 0 0 0 .59.59h3.92a.6.6 0 0 0 .59-.59v-.92a.585.585 0 0 0-.59-.59h-3.92a.589.589 0 0 0-.42.17zm6.19-5.07a2.611 2.611 0 0 1-1.85.77l-3.92-.01a2.612 2.612 0 0 1-2.63-2.62v-.92a2.629 2.629 0 0 1 2.62-2.62l3.93.01a2.623 2.623 0 0 1 2.62 2.62v.92a2.587 2.587 0 0 1-.77 1.85zm-6.19-3.19a.554.554 0 0 0-.18.41v.92a.615.615 0 0 0 .6.6h3.92a.606.606 0 0 0 .59-.6v-.91a.593.593 0 0 0-.59-.6h-3.93a.554.554 0 0 0-.41.18zm-7.41 11.45a2.611 2.611 0 0 1-1.85.77l-3.92-.01a2.6 2.6 0 0 1-1.86-.76 2.642 2.642 0 0 1-.76-1.86v-.91a2.6 2.6 0 0 1 2.61-2.62h3.93a2.612 2.612 0 0 1 2.62 2.62v.92a2.587 2.587 0 0 1-.77 1.85zm-6.19-3.19a.6.6 0 0 0-.18.42v.91a.6.6 0 0 0 .18.42.56.56 0 0 0 .42.18h3.92a.6.6 0 0 0 .59-.59v-.92a.589.589 0 0 0-.17-.42.551.551 0 0 0-.42-.17l-3.92-.01a.6.6 0 0 0-.42.18zm19.79-13.34a2.57 2.57 0 0 1-1.85.77h-3.93a2.629 2.629 0 0 1-2.62-2.62v-.92a2.629 2.629 0 0 1 2.62-2.62h3.93a2.629 2.629 0 0 1 2.62 2.62v.92a2.57 2.57 0 0 1-.77 1.85zm-6.19-3.19a.56.56 0 0 0-.18.42v.92a.591.591 0 0 0 .59.59h3.93a.6.6 0 0 0 .59-.59v-.92a.6.6 0 0 0-.59-.59h-3.93a.583.583 0 0 0-.41.17zm-7.41 11.46a2.6 2.6 0 0 1-1.85.76h-3.93a2.629 2.629 0 0 1-2.62-2.62v-.92a2.629 2.629 0 0 1 2.62-2.62h3.93a2.629 2.629 0 0 1 2.62 2.62v.92a2.61 2.61 0 0 1-.77 1.86zm-6.19-3.2a.576.576 0 0 0-.18.42v.92a.56.56 0 0 0 .18.42.583.583 0 0 0 .41.17h3.93a.6.6 0 0 0 .59-.59v-.92a.607.607 0 0 0-.17-.42.589.589 0 0 0-.42-.17h-3.93a.583.583 0 0 0-.41.17zm19.79-13.33a2.587 2.587 0 0 1-1.85.77h-3.93a2.629 2.629 0 0 1-2.62-2.62v-.92a2.612 2.612 0 0 1 2.62-2.62h3.93a2.629 2.629 0 0 1 2.62 2.62v.92a2.611 2.611 0 0 1-.77 1.85zm-6.2-3.19a.589.589 0 0 0-.17.42v.92a.581.581 0 0 0 .59.59h3.93a.612.612 0 0 0 .59-.59v-.92a.56.56 0 0 0-.18-.42.583.583 0 0 0-.41-.17h-3.93a.589.589 0 0 0-.42.17zm-21 27.98a2.6 2.6 0 0 1-1.85.76h-3.92a2.631 2.631 0 0 1-2.63-2.62v-.92a2.629 2.629 0 0 1 2.62-2.62h3.93a2.629 2.629 0 0 1 2.62 2.62v.92a2.61 2.61 0 0 1-.77 1.86zm-6.19-3.2a.576.576 0 0 0-.18.42v.92a.593.593 0 0 0 .6.59h3.92a.6.6 0 0 0 .59-.59v-.92a.591.591 0 0 0-.59-.59h-3.93a.583.583 0 0 0-.41.17zm19.79-13.33a2.57 2.57 0 0 1-1.85.77h-3.93a2.629 2.629 0 0 1-2.62-2.62v-.92a2.629 2.629 0 0 1 2.62-2.62h3.93a2.629 2.629 0 0 1 2.62 2.62v.92a2.57 2.57 0 0 1-.77 1.85zm-6.2-3.19a.589.589 0 0 0-.17.42v.92a.6.6 0 0 0 .59.59h3.93a.6.6 0 0 0 .59-.59v-.92a.589.589 0 0 0-.17-.42.607.607 0 0 0-.42-.17h-3.93a.607.607 0 0 0-.42.17zm-7.4 11.45a2.57 2.57 0 0 1-1.85.77h-3.93a2.629 2.629 0 0 1-2.62-2.62v-.92a2.629 2.629 0 0 1 2.62-2.62h3.93a2.629 2.629 0 0 1 2.62 2.62v.92a2.57 2.57 0 0 1-.77 1.85zm-6.19-3.19a.56.56 0 0 0-.18.42v.92a.6.6 0 0 0 .59.59h3.93a.6.6 0 0 0 .59-.59v-.92a.591.591 0 0 0-.59-.59h-3.93a.566.566 0 0 0-.41.17zm32.75-26.09a4.5 4.5 0 0 1-3.18 1.31 4.483 4.483 0 1 1 4.49-4.49 4.5 4.5 0 0 1-1.31 3.18zm-4.92-4.92a2.463 2.463 0 0 0 0 3.48 2.461 2.461 0 1 0 1.74-4.2 2.468 2.468 0 0 0-1.74.72zm-8.04 17.68a2.628 2.628 0 0 1-1.85.77l-3.93-.01a2.623 2.623 0 0 1-2.62-2.62v-.92a2.629 2.629 0 0 1 2.62-2.62l3.92.01a2.631 2.631 0 0 1 2.63 2.62v.92a2.628 2.628 0 0 1-.77 1.85zm-6.2-3.19a.583.583 0 0 0-.17.41v.92a.593.593 0 0 0 .59.6h3.93a.613.613 0 0 0 .59-.6v-.91a.6.6 0 0 0-.59-.6h-3.93a.56.56 0 0 0-.42.18zm-7.4 11.45a2.628 2.628 0 0 1-1.85.77h-3.93a2.629 2.629 0 0 1-2.62-2.63v-.91a2.61 2.61 0 0 1 .77-1.86 2.56 2.56 0 0 1 1.85-.76h3.93a2.623 2.623 0 0 1 2.62 2.62v.92a2.587 2.587 0 0 1-.77 1.85zm-6.2-3.19a.589.589 0 0 0-.17.42v.92a.583.583 0 0 0 .17.41.576.576 0 0 0 .42.18h3.93a.612.612 0 0 0 .59-.59v-.92a.56.56 0 0 0-.18-.42.641.641 0 0 0-.41-.18h-3.93a.617.617 0 0 0-.42.18zm6.2-5.07a2.619 2.619 0 0 1-1.85.76h-3.93a2.629 2.629 0 0 1-2.62-2.62v-.92a2.629 2.629 0 0 1 2.62-2.62h3.92a2.652 2.652 0 0 1 1.86.77 2.619 2.619 0 0 1 .76 1.85v.92a2.6 2.6 0 0 1-.76 1.86zm-6.2-3.2a.607.607 0 0 0-.17.42v.92a.581.581 0 0 0 .59.59h3.92a.606.606 0 0 0 .6-.59v-.92a.617.617 0 0 0-.18-.42.589.589 0 0 0-.42-.17h-3.92a.589.589 0 0 0-.42.17zm5.55-9.57a4.49 4.49 0 0 1-6.34 0 4.478 4.478 0 0 1 0-6.35 4.49 4.49 0 0 1 6.34 0 4.478 4.478 0 0 1 0 6.35zm-4.91-4.91a2.451 2.451 0 0 0-.72 1.74 2.458 2.458 0 0 0 2.46 2.46 2.451 2.451 0 0 0 1.74-.72 2.486 2.486 0 0 0 .72-1.74 2.458 2.458 0 0 0-2.46-2.46 2.41 2.41 0 0 0-1.74.72z" transform="translate(-2541.78 -5002.13)"/></svg>