<?xml version="1.0" encoding="utf-8"?>
<!-- Generator: Adobe Illustrator 21.0.1, SVG Export Plug-In . SVG Version: 6.00 Build 0)  -->
<svg version="1.1" id="santa" xmlns="http://www.w3.org/2000/svg" xmlns:xlink="http://www.w3.org/1999/xlink" x="0px" y="0px"
	 viewBox="0 0 240.6 236.9" style="enable-background:new 0 0 240.6 236.9;" xml:space="preserve">
<style type="text/css">
	.st0{fill:#DE383C;}
	.st1{fill:#FFFFFF;}
	.st2{fill:#231F20;}
	.st3{fill:#FFD97B;}
	.st4{fill:#F7A277;}
	.st5{filter:url(#Adobe_OpacityMaskFilter);}
	.st6{filter:url(#Adobe_OpacityMaskFilter_1_);}
	.st7{mask:url(#SVGID_1_);fill:url(#SVGID_2_);}
	.st8{opacity:0.5;}
	.st9{clip-path:url(#SVGID_4_);fill:#FFFFFF;}
	.st10{clip-path:url(#SVGID_4_);fill:#FFFBFC;}
	.st11{clip-path:url(#SVGID_4_);fill:#FFF8F9;}
	.st12{clip-path:url(#SVGID_4_);fill:#FFF4F6;}
	.st13{clip-path:url(#SVGID_4_);fill:#FFF1F3;}
	.st14{clip-path:url(#SVGID_4_);fill:#FFEDF0;}
	.st15{clip-path:url(#SVGID_4_);fill:#FFEAED;}
	.st16{clip-path:url(#SVGID_4_);fill:#FFE7EA;}
	.st17{clip-path:url(#SVGID_4_);fill:#FFE3E7;}
	.st18{clip-path:url(#SVGID_4_);fill:#FFE0E4;}
	.st19{clip-path:url(#SVGID_4_);fill:#FFDDE2;}
	.st20{clip-path:url(#SVGID_4_);fill:#FFDADF;}
	.st21{clip-path:url(#SVGID_4_);fill:#FFD7DC;}
	.st22{clip-path:url(#SVGID_4_);fill:#FFD4DA;}
	.st23{clip-path:url(#SVGID_4_);fill:#FFD1D7;}
	.st24{clip-path:url(#SVGID_4_);fill:#FFCED4;}
	.st25{clip-path:url(#SVGID_4_);fill:#FFCBD2;}
	.st26{clip-path:url(#SVGID_4_);fill:#FFC8D0;}
	.st27{clip-path:url(#SVGID_4_);fill:#FFC5CD;}
	.st28{clip-path:url(#SVGID_4_);fill:#FFC3CB;}
	.st29{clip-path:url(#SVGID_4_);fill:#FFC0C9;}
	.st30{clip-path:url(#SVGID_4_);fill:#FFBDC6;}
	.st31{clip-path:url(#SVGID_4_);fill:#FFBBC4;}
	.st32{clip-path:url(#SVGID_4_);fill:#FFB8C2;}
	.st33{clip-path:url(#SVGID_4_);fill:#FFB6C0;}
	.st34{clip-path:url(#SVGID_4_);fill:#FFB3BE;}
	.st35{clip-path:url(#SVGID_4_);fill:#FFB1BC;}
	.st36{clip-path:url(#SVGID_4_);fill:#FFAFBA;}
	.st37{clip-path:url(#SVGID_4_);fill:#FFACB8;}
	.st38{clip-path:url(#SVGID_4_);fill:#FFAAB6;}
	.st39{clip-path:url(#SVGID_4_);fill:#FFA8B4;}
	.st40{clip-path:url(#SVGID_4_);fill:#FFA6B2;}
	.st41{clip-path:url(#SVGID_4_);fill:#FFA4B0;}
	.st42{clip-path:url(#SVGID_4_);fill:#FFA2AE;}
	.st43{clip-path:url(#SVGID_4_);fill:#FFA0AC;}
	.st44{clip-path:url(#SVGID_4_);fill:#FF9EAB;}
	.st45{clip-path:url(#SVGID_4_);fill:#FF9CA9;}
	.st46{clip-path:url(#SVGID_4_);fill:#FF9AA7;}
	.st47{clip-path:url(#SVGID_4_);fill:#FF98A6;}
	.st48{clip-path:url(#SVGID_4_);fill:#FF96A4;}
	.st49{clip-path:url(#SVGID_4_);fill:#FF94A3;}
	.st50{clip-path:url(#SVGID_4_);fill:#FF92A1;}
	.st51{clip-path:url(#SVGID_4_);fill:#FF919F;}
	.st52{clip-path:url(#SVGID_4_);fill:#FF8F9E;}
	.st53{clip-path:url(#SVGID_4_);fill:#FF8D9D;}
	.st54{clip-path:url(#SVGID_4_);fill:#FF8C9B;}
	.st55{clip-path:url(#SVGID_4_);fill:#FF8A9A;}
	.st56{clip-path:url(#SVGID_4_);fill:#FF8898;}
	.st57{clip-path:url(#SVGID_4_);fill:#FF8797;}
	.st58{clip-path:url(#SVGID_4_);fill:#FF8596;}
	.st59{clip-path:url(#SVGID_4_);fill:#FF8495;}
	.st60{clip-path:url(#SVGID_4_);fill:#FF8293;}
	.st61{clip-path:url(#SVGID_4_);fill:#FF8192;}
	.st62{clip-path:url(#SVGID_4_);fill:#FF8091;}
	.st63{clip-path:url(#SVGID_4_);fill:#FF7E90;}
	.st64{clip-path:url(#SVGID_4_);fill:#FF7D8F;}
	.st65{clip-path:url(#SVGID_4_);fill:#FF7C8E;}
	.st66{clip-path:url(#SVGID_4_);fill:#FF7B8C;}
	.st67{clip-path:url(#SVGID_4_);fill:#FF798B;}
	.st68{clip-path:url(#SVGID_4_);fill:#FF788A;}
	.st69{clip-path:url(#SVGID_4_);fill:#FF7789;}
	.st70{clip-path:url(#SVGID_4_);fill:#FF7688;}
	.st71{clip-path:url(#SVGID_4_);fill:#FF7587;}
	.st72{clip-path:url(#SVGID_4_);fill:#FF7487;}
	.st73{clip-path:url(#SVGID_4_);fill:#FF7386;}
	.st74{clip-path:url(#SVGID_4_);fill:#FF7285;}
	.st75{clip-path:url(#SVGID_4_);fill:#FF7184;}
	.st76{clip-path:url(#SVGID_4_);fill:#FF7083;}
	.st77{clip-path:url(#SVGID_4_);fill:#FF6F82;}
	.st78{clip-path:url(#SVGID_4_);fill:#FF6E81;}
	.st79{clip-path:url(#SVGID_4_);fill:#FF6D81;}
	.st80{clip-path:url(#SVGID_4_);fill:#FF6C80;}
	.st81{clip-path:url(#SVGID_4_);fill:#FF6B7F;}
	.st82{clip-path:url(#SVGID_4_);fill:#FF6A7E;}
	.st83{clip-path:url(#SVGID_4_);fill:#FF697D;}
	.st84{clip-path:url(#SVGID_4_);fill:#FF687C;}
	.st85{clip-path:url(#SVGID_4_);fill:#FF677C;}
	.st86{clip-path:url(#SVGID_4_);fill:#FF677B;}
	.st87{clip-path:url(#SVGID_4_);fill:#FF667B;}
	.st88{clip-path:url(#SVGID_4_);fill:#FF657A;}
	.st89{clip-path:url(#SVGID_4_);fill:#FF6479;}
	.st90{clip-path:url(#SVGID_4_);fill:#FF6378;}
	.st91{clip-path:url(#SVGID_4_);fill:#FF6277;}
	.st92{clip-path:url(#SVGID_4_);fill:#FF6177;}
	.st93{clip-path:url(#SVGID_4_);fill:#FF6176;}
	.st94{clip-path:url(#SVGID_4_);fill:#FF6076;}
	.st95{clip-path:url(#SVGID_4_);fill:#FF6075;}
	.st96{clip-path:url(#SVGID_4_);fill:#FF5F75;}
	.st97{clip-path:url(#SVGID_4_);fill:#FF5E74;}
	.st98{clip-path:url(#SVGID_4_);fill:#FF5E73;}
	.st99{clip-path:url(#SVGID_4_);fill:#FF5D73;}
	.st100{clip-path:url(#SVGID_4_);fill:#FF5C72;}
	.st101{clip-path:url(#SVGID_4_);fill:#FF5B71;}
	.st102{clip-path:url(#SVGID_4_);fill:#FF5A71;}
	.st103{clip-path:url(#SVGID_4_);fill:#FF5A70;}
	.st104{clip-path:url(#SVGID_4_);fill:#FF5970;}
	.st105{clip-path:url(#SVGID_4_);fill:#FF596F;}
	.st106{clip-path:url(#SVGID_4_);fill:#FF586F;}
	.st107{clip-path:url(#SVGID_4_);fill:#FF586E;}
	.st108{clip-path:url(#SVGID_4_);fill:#FF576E;}
	.st109{clip-path:url(#SVGID_4_);fill:#FF576D;}
	.st110{clip-path:url(#SVGID_4_);fill:#FF566D;}
	.st111{clip-path:url(#SVGID_4_);fill:#FF566C;}
	.st112{clip-path:url(#SVGID_4_);fill:#FF556C;}
	.st113{fill:#83B8B0;}
	.st114{fill:#020202;}
	.st115{fill:#99252E;}
</style>
<g>
	<g>
		
			<rect x="191.4" y="192.8" transform="matrix(-0.5877 0.8091 -0.8091 -0.5877 478.374 165.5668)" class="st0" width="11.1" height="23.8"/>
		<path class="st0" d="M183.9,202.2l6.7-9.3l19.5,14.2l-6.7,9.3L183.9,202.2z M190.7,193.4l-6.3,8.7l19,13.8l6.3-8.7L190.7,193.4z"
			/>
	</g>
	<g>
		<polygon class="st1" points="188.2,205.2 192.8,194.7 190.7,193.2 186.2,203.7 		"/>
		<path class="st1" d="M186,203.7l4.7-10.7l2.3,1.7l-4.7,10.7L186,203.7z M190.8,193.5l-4.4,10.1l1.8,1.3l4.4-10.1L190.8,193.5z"/>
	</g>
	<g>
		<polygon class="st1" points="192.3,208.1 196.9,197.7 194.8,196.2 190.2,206.6 		"/>
		<path class="st1" d="M190,206.7l4.7-10.7l2.3,1.7l-4.7,10.7L190,206.7z M194.9,196.4l-4.4,10.1l1.8,1.3l4.4-10.1L194.9,196.4z"/>
	</g>
	<g>
		<polygon class="st1" points="196.3,211.1 200.9,200.6 198.8,199.1 194.3,209.5 		"/>
		<path class="st1" d="M194.1,209.6l4.7-10.7l2.3,1.7l-4.7,10.7L194.1,209.6z M198.9,199.4l-4.4,10.1l1.8,1.3l4.4-10.1L198.9,199.4z
			"/>
	</g>
	<g>
		<polygon class="st1" points="200.4,214 204.9,203.6 202.9,202.1 198.3,212.5 		"/>
		<path class="st1" d="M198.1,212.5l4.7-10.7l2.3,1.7l-4.7,10.7L198.1,212.5z M202.9,202.3l-4.4,10.1l1.8,1.3l4.4-10.1L202.9,202.3z
			"/>
	</g>
	<g>
		<path class="st2" d="M203.2,226.2l2.3-3.2l-4.8-3.5c-1.2-0.9-1.5-2.5-0.6-3.7l8.2-11.2c0.9-1.2,2.5-1.5,3.7-0.6l4.8,3.5l3.2,2.3
			c4.3,3.1,5.2,9.1,2.1,13.4l-5.6,7.8l-2.3,3.2c-2.2,3-6.4,3.7-9.4,1.5l0,0C201.7,233.4,201,229.2,203.2,226.2z"/>
	</g>
	<g>
		
			<rect x="205.4" y="166.7" transform="matrix(-0.3625 0.932 -0.932 -0.3625 453.9292 46.6779)" class="st0" width="11.1" height="23.8"/>
		<path class="st0" d="M197.8,179.6l-0.2-0.1l4.2-10.7l22.3,8.7l0.2,0.1l-4.2,10.7L197.8,179.6z M202,169.3l-3.9,10.1l21.9,8.5
			l3.9-10.1L202,169.3z"/>
	</g>
	<g>
		<polygon class="st1" points="202.7,181.3 204.4,170.1 202,169.1 200.3,180.4 		"/>
		<path class="st1" d="M200.1,180.5l1.8-11.6l2.7,1.1l-1.8,11.6L200.1,180.5z M202.2,169.4l-1.7,10.9l2.1,0.8l1.7-10.9L202.2,169.4z
			"/>
	</g>
	<g>
		<polygon class="st1" points="207.3,183.1 209.1,171.9 206.7,170.9 204.9,182.2 		"/>
		<path class="st1" d="M204.7,182.3l1.8-11.6l2.7,1.1l-1.8,11.6L204.7,182.3z M206.8,171.2l-1.7,10.9l2.1,0.8l1.7-10.9L206.8,171.2z
			"/>
	</g>
	<g>
		<polygon class="st1" points="212,184.9 213.7,173.7 211.4,172.8 209.6,184 		"/>
		<path class="st1" d="M209.4,184.1l1.8-11.6l2.7,1.1l-1.8,11.6L209.4,184.1z M211.5,173l-1.7,10.9l2.1,0.8l1.7-10.9L211.5,173z"/>
	</g>
	<g>
		<polygon class="st1" points="216.6,186.7 218.4,175.5 216,174.6 214.2,185.8 		"/>
		<path class="st1" d="M214.1,185.9l1.8-11.6l2.7,1.1l-1.8,11.6L214.1,185.9z M216.1,174.8l-1.7,10.9l2.1,0.8l1.7-10.9L216.1,174.8z
			"/>
	</g>
	<g>
		<path class="st2" d="M222.5,197.8l1.4-3.6l-5.5-2.1c-1.4-0.5-2-2.1-1.5-3.4l5-13c0.5-1.4,2.1-2,3.4-1.5l5.5,2.1l3.6,1.4
			c4.9,1.9,7.4,7.5,5.5,12.4l-3.5,9l-1.4,3.6c-1.4,3.5-5.3,5.2-8.8,3.9l0,0C222.8,205.2,221.1,201.3,222.5,197.8z"/>
	</g>
	<g>
		<path class="st0" d="M67.9,114c0,0-10.8,25.9-33.1,27.9c0,0-0.3,5.4,3,24c0,0,45.5-13.3,48.1-58.4L67.9,114z"/>
		<path class="st0" d="M37.7,166.1l0.2-0.1c0.1,0,11.5-3.4,23.1-12.3c6.8-5.2,12.4-11.3,16.5-18c5.1-8.4,8.1-17.9,8.7-28.2l-0.3,0
			c-1.4,23.2-14.4,37.8-25,46c-10.8,8.2-21.4,11.7-22.9,12.2C35,149,35,143,35,142c11.5-1,19.9-8.6,24.9-14.7
			c5.4-6.7,8.2-13.2,8.2-13.2l-0.3-0.1c0,0.1-2.8,6.5-8.2,13.2c-5,6.1-13.3,13.6-24.8,14.6l-0.1,0l0,0.1c0,0.1-0.2,5.6,3,24
			L37.7,166.1z"/>
	</g>
	<g>
		<path class="st0" d="M33.9,152.6l0.5,5.5c0.3,2.7-1.1,5.3-3.4,6.6c-3,1.7-7.5,3.6-11.7,2.6c-7-1.6-8.3-11.1-2.2-14.8
			c2-1.2,4.6-2.3,8.2-3.1c0,0-4.4-4-1.3-6.3c1.5-1.1,3.3-0.4,4.9,0.7C31.8,145.9,33.6,149.1,33.9,152.6z"/>
		<path class="st0" d="M19.3,167.5c-3.3-0.8-5.6-3.3-6.1-6.6c-0.5-3.4,0.9-6.7,3.9-8.4c2.1-1.3,4.8-2.3,8-3.1
			c-0.6-0.6-2.4-2.5-2.3-4.4c0-0.8,0.4-1.5,1.2-2c1.3-1,3-0.7,5.1,0.7c2.9,2,4.7,5.3,5.1,8.9l0.5,5.5c0.3,2.8-1.1,5.4-3.5,6.8
			c-2.4,1.4-5.8,2.9-9.3,2.9C21,167.8,20.1,167.7,19.3,167.5z M24.1,143.3c-0.6,0.5-1,1.1-1,1.8c-0.1,2,2.4,4.3,2.4,4.3l0.2,0.2
			l-0.3,0.1c-3.3,0.8-6.1,1.8-8.2,3.1c-2.8,1.7-4.2,4.8-3.7,8.1c0.5,3.2,2.8,5.6,5.9,6.4c4.2,1,8.6-0.9,11.6-2.6
			c2.3-1.3,3.6-3.9,3.3-6.5l-0.5-5.5c-0.3-3.5-2.1-6.7-4.9-8.6c-1.2-0.8-2.2-1.3-3.2-1.3C25.1,142.8,24.6,142.9,24.1,143.3z"/>
	</g>
	<g>
		<g>
			<path class="st1" d="M31.8,142.6c-1.6,7.7-0.3,15.7,3.8,22.4c1.7,2.8,4.9,3.6,6.5,2l0,0c1.6-1.6,1.6-4.2,0.4-6.2
				c-3-5-4-10.9-2.8-16.6c0.5-2.3-0.4-4.8-2.4-5.7l0,0C35.3,137.6,32.5,139.4,31.8,142.6z"/>
		</g>
		<g>
			<path class="st1" d="M39.5,168c-1.6-0.2-3.1-1.3-4-2.9c-4.1-6.8-5.5-14.8-3.8-22.6v0c0.4-1.8,1.5-3.3,2.9-4c1-0.5,2-0.5,2.9-0.1
				c2.2,1,3,3.8,2.5,5.9c-1.2,5.7-0.2,11.5,2.8,16.4c1.1,1.9,1.3,4.7-0.5,6.4c-0.6,0.6-1.3,0.9-2.2,0.8C39.9,168,39.7,168,39.5,168z
				 M34.7,138.8c-1.3,0.7-2.3,2.1-2.7,3.8v0c-1.6,7.7-0.3,15.6,3.8,22.3c0.9,1.5,2.3,2.5,3.8,2.7c1,0.1,1.9-0.1,2.5-0.7
				c1.7-1.6,1.5-4.2,0.4-6c-3-5-4-10.9-2.8-16.7c0.4-2-0.3-4.6-2.4-5.5c-0.3-0.2-0.7-0.2-1.1-0.2C35.7,138.5,35.2,138.6,34.7,138.8z
				"/>
		</g>
	</g>
	<g>
		<path class="st0" d="M156.2,224.3l2.1-1.3c15.6-9.5,28.2-22.6,37-38c9.1-16.1,14-34.6,13.6-53.7c-11.8-16.5-28.2-29.7-48-38.5
			c-2.7-1.2-5.4-2.3-8.3-3.4C118.4,76.6,75.7,75.9,31,91.8c9.3,46.6,31.8,82.9,60.3,105.7c2.3,1.9,4.7,3.7,7.1,5.3
			C116.2,215.2,136,222.6,156.2,224.3z"/>
		<path class="st0" d="M156.1,224.4c-20-1.6-40-9.1-57.8-21.5c-2.5-1.7-4.9-3.5-7.1-5.4C61.1,173.5,39.6,136,30.8,91.8l0-0.1l0.1,0
			c42.5-15,85.7-15.9,121.8-2.4c2.8,1,5.5,2.2,8.3,3.4c19.8,8.9,36.4,22.2,48.1,38.6l0,0l0,0.1c0.3,18.8-4.4,37.4-13.7,53.8
			c-8.9,15.6-21.7,28.8-37,38.1L156.1,224.4L156.1,224.4z M160.8,92.9c-2.7-1.2-5.5-2.4-8.2-3.4c-36-13.4-79.1-12.6-121.4,2.4
			c8.9,44,30.3,81.5,60.3,105.5c2.3,1.8,4.7,3.6,7.1,5.3c17.7,12.4,37.6,19.8,57.6,21.4l2.1-1.3c15.3-9.3,28.1-22.4,36.9-37.9
			c9.2-16.3,14-34.8,13.6-53.5C197.1,115.1,180.5,101.8,160.8,92.9z"/>
	</g>
	<g>
		<path class="st1" d="M211.7,132.9c0,0,2.4,20.9-14.9,54.4c0,0-12.9,24.4-37.8,38.6c0,0-5.1,2.9-9.9,0.2c-1.3-0.8-1.4-2.7-0.1-3.5
			c6.9-4.6,27.1-19.5,39.6-41.4c12.2-21.4,14.5-46,14.9-55c0.1-2.1,2.5-3.3,4.3-2.2C209.7,125.3,211.6,127.8,211.7,132.9z"/>
		<path class="st1" d="M148.9,226.2c-0.7-0.4-1.1-1.1-1.1-1.8c0-0.8,0.3-1.5,1-2c7.8-5.3,27.3-19.8,39.5-41.3
			c12.1-21.2,14.4-45.5,14.9-54.9c0.1-1.1,0.6-2,1.6-2.5c0.9-0.5,2-0.4,2.9,0.1c1.8,1.2,4,3.7,4.1,9c0.1,0.5,2,21.6-15,54.4
			c-0.1,0.2-13.2,24.6-37.9,38.7c0,0-2.5,1.4-5.6,1.4C152,227.4,150.4,227.1,148.9,226.2z M205,124c-0.8,0.4-1.3,1.2-1.4,2.2
			c-0.5,9.4-2.8,33.7-14.9,55c-12.3,21.6-31.8,36.2-39.6,41.4c-0.6,0.4-0.9,1-0.9,1.7c0,0.7,0.4,1.2,0.9,1.6
			c4.7,2.6,9.7-0.2,9.8-0.2c24.5-14,37.6-38.3,37.7-38.5c17.1-33,14.9-54,14.9-54.3l0,0c0-4.2-1.4-7.1-3.9-8.7
			c-0.4-0.3-0.9-0.4-1.4-0.4C205.8,123.7,205.3,123.8,205,124z"/>
	</g>
	<g>
		<path class="st2" d="M98.4,202.8l62.5-110.1c-2.7-1.2-5.4-2.3-8.3-3.4L91.3,197.5C93.6,199.3,96,201.1,98.4,202.8z"/>
	</g>
	<g>
		<polygon class="st3" points="90.6,191.1 92.8,187.2 98.7,176.8 102.9,179.2 97,189.5 103,192.9 108.9,182.6 113.1,184.9 
			107.2,195.3 104.9,199.3 104.8,199.5 90.5,191.3 		"/>
		<path class="st2" d="M90.3,191.4l8.4-14.8l4.5,2.5l-5.9,10.4l5.7,3.2l5.9-10.4l4.5,2.5l-8.4,14.8L90.3,191.4z M108.9,182.8
			l-5.9,10.4l-6.3-3.6l5.9-10.4l-3.9-2.2l-8,14.2l0,0.1l14,8l8.1-14.2L108.9,182.8z"/>
	</g>
	<g>
		
			<ellipse transform="matrix(0.4935 -0.8697 0.8697 0.4935 -91.7579 134.1631)" class="st2" cx="69.3" cy="145.9" rx="4.6" ry="4.6"/>
	</g>
	<g>
		
			<ellipse transform="matrix(0.4935 -0.8697 0.8697 0.4935 -97.053 158.4189)" class="st2" cx="87.5" cy="162.5" rx="4.6" ry="4.6"/>
	</g>
	<g>
		<path class="st0" d="M170.2,173.1c-5.7,8-20.9,7.8-30.9,2.5l-2.3-1.2l16.6-32l2.3,1.2c11.1,5.7,19.9,19,15.1,28.2
			C170.7,172.2,170.5,172.7,170.2,173.1L170.2,173.1z"/>
		<path class="st2" d="M139.1,175.9l-2.6-1.3l16.9-32.6l2.6,1.3c11.2,5.8,20.1,19.3,15.2,28.6c-0.2,0.5-0.5,0.9-0.8,1.3l0,0
			c0,0,0,0,0,0l0,0c-3.2,4.4-9.1,6.4-15.6,6.4C149.4,179.7,143.7,178.3,139.1,175.9z M169.9,172.9c0.3-0.4,0.5-0.8,0.8-1.3
			c4.7-9-4-22.1-15-27.7l-2-1l-16.3,31.4l2,1C149.3,180.5,164.3,180.8,169.9,172.9L169.9,172.9z"/>
	</g>
	<g>
		<g>
			<g>
				<path class="st0" d="M140.4,173.4c9.9,5.1,24.4,4.8,28.3-2.8c3.9-7.6-4.1-19.6-14-24.7L140.4,173.4z"/>
			</g>
			<g>
				<g>
					<path class="st2" d="M140.9,174l0.3-0.6c-0.1-0.1-0.2-0.1-0.4-0.2l0.2-0.4l-0.6-0.3l-0.5,1l0.3,0.2
						C140.5,173.8,140.7,173.9,140.9,174z"/>
				</g>
				<g>
					<path class="st2" d="M154,177.1l0-0.7c0.3,0,0.6,0,0.9,0l0.1,0l0,0.7l-0.1,0C154.5,177.2,154.2,177.2,154,177.1z M155.9,176.5
						c0.3,0,0.7,0,1-0.1l0.1,0.7c-0.3,0-0.7,0-1,0.1L155.9,176.5z M152,177l0.1-0.7c0.3,0,0.7,0.1,1,0.1l0,0.7
						C152.6,177.1,152.3,177.1,152,177z M157.9,176.3c0.3,0,0.6-0.1,1-0.1l0.1,0.7c-0.3,0.1-0.7,0.1-1,0.1L157.9,176.3z M150,176.8
						l0.1-0.7c0.3,0.1,0.6,0.1,1,0.1l-0.1,0.7C150.6,176.9,150.3,176.8,150,176.8z M159.8,176c0.3-0.1,0.6-0.1,0.9-0.2l0.2,0.6
						c-0.3,0.1-0.6,0.2-1,0.2L159.8,176z M148,176.4l0.1-0.6c0.3,0.1,0.6,0.1,1,0.2l-0.1,0.7C148.7,176.5,148.3,176.5,148,176.4z
						 M146.1,175.9l0.2-0.6c0.3,0.1,0.6,0.2,0.9,0.3l-0.2,0.6C146.7,176.1,146.4,176,146.1,175.9z M161.7,175.5
						c0.3-0.1,0.6-0.2,0.9-0.3l0.2,0.6c-0.3,0.1-0.6,0.2-1,0.3L161.7,175.5z M144.2,175.3l0.2-0.6c0.3,0.1,0.6,0.2,0.9,0.3l-0.2,0.6
						C144.8,175.5,144.5,175.4,144.2,175.3z M163.5,174.8c0.3-0.1,0.6-0.3,0.9-0.4l0.3,0.6c-0.3,0.2-0.6,0.3-0.9,0.5L163.5,174.8z
						 M142.3,174.6l0.3-0.6c0.3,0.1,0.6,0.2,0.9,0.4l-0.2,0.6C142.9,174.9,142.6,174.7,142.3,174.6z M165.2,173.9
						c0.3-0.2,0.5-0.4,0.8-0.6l0.4,0.5c-0.3,0.2-0.5,0.4-0.8,0.6L165.2,173.9z M166.7,172.7c0.2-0.2,0.5-0.5,0.7-0.7l0.5,0.4
						c-0.2,0.3-0.5,0.5-0.7,0.7L166.7,172.7z M167.9,171.3c0.2-0.3,0.3-0.5,0.5-0.8l0.6,0.3c-0.2,0.3-0.3,0.6-0.5,0.9L167.9,171.3z
						 M168.8,169.6c0.1-0.3,0.2-0.6,0.3-0.9l0.6,0.2c-0.1,0.3-0.2,0.7-0.3,1L168.8,169.6z M169.3,167.8c0-0.3,0.1-0.6,0.1-1l0.7,0
						c0,0.3-0.1,0.7-0.1,1L169.3,167.8z M169.3,164.9l0.7-0.1c0,0.3,0.1,0.7,0.1,1l-0.7,0C169.4,165.5,169.4,165.2,169.3,164.9z
						 M169,163l0.6-0.2c0.1,0.3,0.2,0.7,0.2,1l-0.7,0.1C169.1,163.6,169.1,163.3,169,163z M168.4,161.1l0.6-0.2
						c0.1,0.3,0.2,0.6,0.3,1l-0.6,0.2C168.6,161.8,168.5,161.4,168.4,161.1z M167.6,159.4l0.6-0.3c0.1,0.3,0.3,0.6,0.4,0.9l-0.6,0.3
						C167.9,159.9,167.8,159.6,167.6,159.4z M166.7,157.6l0.6-0.3c0.2,0.3,0.3,0.6,0.5,0.9l-0.6,0.3
						C167,158.2,166.9,157.9,166.7,157.6z M165.6,156l0.5-0.4c0.2,0.3,0.4,0.6,0.6,0.8l-0.6,0.4C166,156.5,165.8,156.3,165.6,156z
						 M164.5,154.4l0.5-0.4c0.2,0.3,0.4,0.5,0.6,0.8l-0.5,0.4C164.9,154.9,164.7,154.7,164.5,154.4z M163.2,152.9l0.5-0.4
						c0.2,0.2,0.4,0.5,0.7,0.8l-0.5,0.4C163.6,153.4,163.4,153.2,163.2,152.9z M161.9,151.5l0.5-0.5c0.2,0.2,0.5,0.5,0.7,0.7
						l-0.5,0.5C162.3,152,162.1,151.7,161.9,151.5z M160.4,150.2l0.4-0.5c0.3,0.2,0.5,0.4,0.7,0.7l-0.5,0.5
						C160.9,150.6,160.7,150.4,160.4,150.2z M158.9,148.9l0.4-0.5c0.3,0.2,0.5,0.4,0.8,0.6l-0.4,0.5
						C159.4,149.3,159.2,149.1,158.9,148.9z M157.3,147.8l0.4-0.6c0.3,0.2,0.6,0.4,0.8,0.6l-0.4,0.5
						C157.8,148.2,157.6,148,157.3,147.8z M155.8,146.9l0.3-0.6c0.2,0.1,0.4,0.3,0.7,0.4l-0.4,0.6
						C156.3,147.1,156.1,147,155.8,146.9z"/>
				</g>
				<g>
					<path class="st2" d="M154.7,146.7l0.2-0.4c0.1,0.1,0.2,0.1,0.4,0.2l0.3-0.6c-0.2-0.1-0.4-0.2-0.7-0.4l-0.3-0.2l-0.5,1
						L154.7,146.7z"/>
				</g>
				<g>
					<path class="st2" d="M140.8,171.9L140.8,171.9l0.6,0.3l0,0L140.8,171.9z M141.3,170.9l0.5-0.9l0.6,0.3l-0.5,0.9L141.3,170.9z
						 M142.3,169l0.5-0.9l0.6,0.3l-0.5,0.9L142.3,169z M143.3,167.2l0.5-0.9l0.6,0.3l-0.5,0.9L143.3,167.2z M144.2,165.3l0.5-0.9
						l0.6,0.3l-0.5,0.9L144.2,165.3z M145.2,163.5l0.5-0.9l0.6,0.3l-0.5,0.9L145.2,163.5z M146.1,161.6l0.5-0.9l0.6,0.3l-0.5,0.9
						L146.1,161.6z M147.1,159.8l0.5-0.9l0.6,0.3l-0.5,0.9L147.1,159.8z M148.1,157.9l0.5-0.9l0.6,0.3l-0.5,0.9L148.1,157.9z
						 M149,156.1l0.5-0.9l0.6,0.3l-0.5,0.9L149,156.1z M150,154.2l0.5-0.9l0.6,0.3l-0.5,0.9L150,154.2z M151,152.4l0.5-0.9l0.6,0.3
						l-0.5,0.9L151,152.4z M151.9,150.5l0.5-0.9l0.6,0.3l-0.5,0.9L151.9,150.5z M152.9,148.7l0.5-0.9l0.6,0.3l-0.5,0.9L152.9,148.7z
						"/>
				</g>
			</g>
		</g>
	</g>
	<g>
		<path class="st4" d="M77.2,61.1c0,0-6.4,41.4-39.6,45.7C17.5,109.4,13.8,95.2,14,83.6c0.1-6.5,1.5-12.9,3.9-19l9.7-24.1
			C27.5,40.5,59.5,47.1,77.2,61.1z"/>
		<path class="st4" d="M20.2,103c-4.4-3.9-6.6-10.5-6.4-19.5c0.1-6.4,1.4-12.8,3.9-19l9.7-24.1l0.1-0.1l0.1,0
			c0.3,0.1,32.2,6.8,49.7,20.6l0.1,0.1l0,0.1c0,0.1-1.7,10.5-7.4,21.3c-5.3,10-15.1,22.3-32.3,24.5c-1.6,0.2-3.1,0.3-4.6,0.3
			C27.7,107.3,23.4,105.9,20.2,103z M27.6,40.7l-9.6,24c-2.5,6.2-3.8,12.6-3.9,18.9c-0.1,8.9,2,15.3,6.3,19.2
			c3.9,3.5,9.7,4.8,17.1,3.8c17-2.2,26.9-14.5,32.1-24.3c5.4-10.2,7.1-20,7.3-21.1C60.1,47.9,29.9,41.2,27.6,40.7z"/>
	</g>
	<g>
		<path class="st1" d="M80,63.3l-1.4,7.4c-0.4,2-0.4,4.1,0,6.1c0.7,3.6,2.3,8.8-2.3,11.5c0,0,3.1,7-2.8,10.6c0,0,3,6.1-3,9.7
			c0,0,1.5,7-5.3,7.6c0,0-0.5,6.8-7.5,5.8c0,0-1.1,7.1-8.4,5.1c0,0-2.2,6.5-9.4,3.5c-1.7,3.5-6.5,4.7-9.7,1.3c0,0-3.9,4.8-9.6,0.5
			c0,0-5.4,5.7-10-1.2c0,0-7.1,0.9-6.5-6.6c0,0-5.8-3.6-1.7-8.9c0,0-5.4-5.8,0.4-10c0,0-3.5-5.5,1.7-9.4c0,0-2.5-9,4.2-9.4l50,8.3
			c0,0,20.1-17.9,14.3-36.9L80,63.3z"/>
		<path class="st1" d="M15.4,134.7c-1.8-0.2-3.4-1.3-4.8-3.3c-0.6,0.1-3.2,0.2-5-1.5c-1.2-1.2-1.8-2.9-1.6-5.2
			c-0.5-0.3-2.7-1.9-3.1-4.4c-0.3-1.5,0.2-3.1,1.3-4.6c-0.5-0.5-2.5-3-2.2-5.8c0.2-1.6,1-3,2.6-4.2c-0.5-0.9-3-5.8,1.8-9.5
			c-0.2-0.8-1.2-5.1,0.7-7.6c0.8-1.1,2.1-1.8,3.7-1.9l0,0l50,8.2C59.4,94.4,64,90,68,83.6C71.9,77.4,76,68,73,58.2l-0.1-0.5l7.4,5.5
			l-1.4,7.5c-0.4,2.1-0.4,4.1,0,6.1c0.1,0.2,0.1,0.5,0.2,0.8c0.8,3.5,1.8,8.3-2.4,10.9c0.4,1,2.6,7.2-2.8,10.6
			c0.4,0.9,2.4,6.4-3,9.7c0.1,0.6,0.5,3.4-1.1,5.5c-0.9,1.2-2.4,2-4.3,2.2c-0.1,0.6-0.5,3.1-2.4,4.7c-1.3,1-3,1.4-5.1,1.1
			c-0.1,0.7-0.8,3.1-2.9,4.5c-1.5,1-3.4,1.2-5.6,0.6c-0.2,0.6-1.2,2.7-3.4,3.7c-1.7,0.8-3.7,0.7-6-0.3c-0.9,1.7-2.5,2.9-4.4,3.2
			c-1.9,0.3-3.9-0.4-5.4-1.9c-0.7,0.8-4.5,4.2-9.5,0.5c-0.5,0.5-2.4,2.2-4.8,2.2C15.7,134.7,15.6,134.7,15.4,134.7z M20.8,132.2
			c5.4,4.1,9.2-0.3,9.3-0.5l0.1-0.1l0.1,0.1c1.4,1.5,3.3,2.2,5.2,1.9c1.8-0.3,3.4-1.5,4.3-3.2l0.1-0.1l0.1,0.1
			c2.2,0.9,4.2,1.1,5.8,0.3c2.4-1.1,3.3-3.7,3.3-3.7l0-0.1l0.2,0c2.2,0.6,4,0.4,5.5-0.5c2.3-1.5,2.8-4.4,2.8-4.5l0-0.2l0.2,0
			c2.1,0.3,3.7,0,5-1c2.1-1.7,2.3-4.5,2.3-4.6l0-0.1l0.1,0c1.9-0.1,3.3-0.8,4.2-2c1.6-2.2,1-5.3,1-5.4l0-0.1l0.1-0.1
			c5.7-3.5,3-9.3,2.9-9.5l-0.1-0.1l0.1-0.1c5.7-3.5,2.8-10.3,2.7-10.4l-0.1-0.1l0.1-0.1c4.1-2.5,3.1-7.2,2.3-10.6
			c-0.1-0.3-0.1-0.5-0.2-0.8c-0.4-2-0.4-4.1,0-6.2l1.4-7.3l-6.4-4.8c2.8,9.7-1.2,19-5.1,25.2C64,90.6,59,95.2,58.9,95.2l-0.1,0.1
			L8.8,87c-1.5,0.1-2.7,0.7-3.4,1.8c-1.9,2.7-0.6,7.4-0.6,7.5l0,0.1l-0.1,0.1c-5.1,3.8-1.8,9-1.7,9.2l0.1,0.1L3,105.8
			c-1.6,1.2-2.5,2.5-2.6,4.1c-0.3,3,2.2,5.6,2.2,5.7l0.1,0.1l-0.1,0.1c-1.2,1.5-1.6,3-1.4,4.4c0.5,2.6,3,4.2,3.1,4.2l0.1,0.1l0,0.1
			c-0.2,2.2,0.3,3.9,1.5,5c1.9,1.8,4.8,1.4,4.8,1.4l0.1,0l0.1,0.1c1.3,2,2.9,3.1,4.6,3.3c2.8,0.3,5.1-2.1,5.1-2.1l0.1-0.1
			L20.8,132.2z"/>
	</g>
	<g>
		<path class="st4" d="M71.5,76.4c2,5.3,1.7,12.2-2.4,16.4c-5.7,5.9-14.8,3.1-21.4,0.6L71.5,76.4z"/>
		<path class="st4" d="M60.2,96.5c3.4,0,6.5-0.9,9-3.6c4.3-4.5,4.3-11.6,2.4-16.6l-0.3,0.1c1.8,4.9,1.8,11.9-2.3,16.2
			c-5.4,5.6-13.7,3.4-21.2,0.5l-0.1,0.3C51.6,95.1,56.1,96.5,60.2,96.5z"/>
	</g>
	<g>
		<circle class="st1" cx="50.1" cy="68.4" r="3"/>
		<path class="st2" d="M47,68.4c0-1.7,1.4-3.1,3.1-3.1s3.1,1.4,3.1,3.1c0,1.7-1.4,3.1-3.1,3.1S47,70.1,47,68.4z M47.3,68.4
			c0,1.5,1.3,2.8,2.8,2.8c1.5,0,2.8-1.3,2.8-2.8s-1.3-2.8-2.8-2.8C48.6,65.6,47.3,66.8,47.3,68.4z"/>
	</g>
	<g>
		<circle class="st2" cx="49.9" cy="68.1" r="2.5"/>
	</g>
	<g>
		<circle class="st1" cx="49.2" cy="67.5" r="0.4"/>
	</g>
	<g>
		<circle class="st1" cx="34.3" cy="62.6" r="3"/>
		<path class="st2" d="M31.2,62.6c0-1.7,1.4-3.1,3.1-3.1c1.7,0,3.1,1.4,3.1,3.1c0,1.7-1.4,3.1-3.1,3.1
			C32.6,65.8,31.2,64.3,31.2,62.6z M31.5,62.6c0,1.5,1.3,2.8,2.8,2.8c1.5,0,2.8-1.3,2.8-2.8c0-1.5-1.3-2.8-2.8-2.8
			C32.8,59.8,31.5,61.1,31.5,62.6z"/>
	</g>
	<g>
		<circle class="st2" cx="34" cy="62.3" r="2.4"/>
	</g>
	<g>
		<circle class="st1" cx="33.4" cy="61.7" r="0.4"/>
	</g>
	<defs>
		<filter id="Adobe_OpacityMaskFilter" filterUnits="userSpaceOnUse" x="47.5" y="71" width="25.6" height="25.6">
			<feFlood  style="flood-color:white;flood-opacity:1" result="back"/>
			<feBlend  in="SourceGraphic" in2="back" mode="normal"/>
		</filter>
	</defs>
	<mask maskUnits="userSpaceOnUse" x="47.5" y="71" width="25.6" height="25.6" id="SVGID_1_">
		<g class="st5">
			<defs>
				<filter id="Adobe_OpacityMaskFilter_1_" filterUnits="userSpaceOnUse" x="47.7" y="71.1" width="25.4" height="25.4">
					<feFlood  style="flood-color:white;flood-opacity:1" result="back"/>
					<feBlend  in="SourceGraphic" in2="back" mode="normal"/>
				</filter>
			</defs>
			<mask maskUnits="userSpaceOnUse" x="47.7" y="71.1" width="25.4" height="25.4" id="SVGID_1_">
				<g class="st6">
				</g>
			</mask>
			
				<radialGradient id="SVGID_2_" cx="366.5032" cy="83.8324" r="12.7202" gradientTransform="matrix(-1 0 0 1 426.8758 0)" gradientUnits="userSpaceOnUse">
				<stop  offset="0" style="stop-color:#FFFFFF"/>
				<stop  offset="0.2753" style="stop-color:#FDFDFD"/>
				<stop  offset="0.4129" style="stop-color:#F5F5F5"/>
				<stop  offset="0.5201" style="stop-color:#E8E8E8"/>
				<stop  offset="0.6115" style="stop-color:#D5D5D5"/>
				<stop  offset="0.6929" style="stop-color:#BDBDBD"/>
				<stop  offset="0.7671" style="stop-color:#9F9F9F"/>
				<stop  offset="0.836" style="stop-color:#7B7B7B"/>
				<stop  offset="0.9006" style="stop-color:#515151"/>
				<stop  offset="0.9595" style="stop-color:#242424"/>
				<stop  offset="1" style="stop-color:#000000"/>
			</radialGradient>
			<circle class="st7" cx="60.4" cy="83.8" r="12.7"/>
		</g>
	</mask>
	<g class="st8">
		<g>
			<defs>
				<circle id="SVGID_3_" cx="60.4" cy="83.8" r="12.7"/>
			</defs>
			<clipPath id="SVGID_4_">
				<use xlink:href="#SVGID_3_"  style="overflow:visible;"/>
			</clipPath>
			<rect x="47.5" y="71" class="st9" width="25.6" height="25.6"/>
			<circle class="st9" cx="60.4" cy="83.8" r="12.7"/>
			<circle class="st10" cx="60.4" cy="83.8" r="12.6"/>
			<circle class="st11" cx="60.4" cy="83.8" r="12.6"/>
			<circle class="st12" cx="60.4" cy="83.8" r="12.5"/>
			<circle class="st13" cx="60.4" cy="83.8" r="12.4"/>
			<circle class="st14" cx="60.4" cy="83.8" r="12.3"/>
			<circle class="st15" cx="60.4" cy="83.8" r="12.3"/>
			<circle class="st16" cx="60.4" cy="83.8" r="12.2"/>
			<circle class="st17" cx="60.4" cy="83.8" r="12.1"/>
			<circle class="st18" cx="60.4" cy="83.8" r="12"/>
			<circle class="st19" cx="60.4" cy="83.8" r="12"/>
			<circle class="st20" cx="60.4" cy="83.8" r="11.9"/>
			<circle class="st21" cx="60.4" cy="83.8" r="11.8"/>
			<circle class="st22" cx="60.4" cy="83.8" r="11.7"/>
			<circle class="st23" cx="60.4" cy="83.8" r="11.7"/>
			<circle class="st24" cx="60.4" cy="83.8" r="11.6"/>
			<circle class="st25" cx="60.4" cy="83.8" r="11.5"/>
			<circle class="st26" cx="60.4" cy="83.8" r="11.4"/>
			<circle class="st27" cx="60.4" cy="83.8" r="11.4"/>
			<circle class="st28" cx="60.4" cy="83.8" r="11.3"/>
			<circle class="st29" cx="60.4" cy="83.8" r="11.2"/>
			<circle class="st30" cx="60.4" cy="83.8" r="11.1"/>
			<circle class="st31" cx="60.4" cy="83.8" r="11.1"/>
			<circle class="st32" cx="60.4" cy="83.8" r="11"/>
			<circle class="st33" cx="60.4" cy="83.8" r="10.9"/>
			<circle class="st34" cx="60.4" cy="83.8" r="10.8"/>
			<circle class="st35" cx="60.4" cy="83.8" r="10.8"/>
			<circle class="st36" cx="60.4" cy="83.8" r="10.7"/>
			<circle class="st37" cx="60.4" cy="83.8" r="10.6"/>
			<circle class="st38" cx="60.4" cy="83.8" r="10.6"/>
			<circle class="st39" cx="60.4" cy="83.8" r="10.5"/>
			<circle class="st40" cx="60.4" cy="83.8" r="10.4"/>
			<circle class="st41" cx="60.4" cy="83.8" r="10.3"/>
			<circle class="st42" cx="60.4" cy="83.8" r="10.3"/>
			<circle class="st43" cx="60.4" cy="83.8" r="10.2"/>
			<circle class="st44" cx="60.4" cy="83.8" r="10.1"/>
			<circle class="st45" cx="60.4" cy="83.8" r="10"/>
			<circle class="st46" cx="60.4" cy="83.8" r="10"/>
			<circle class="st47" cx="60.4" cy="83.8" r="9.9"/>
			<circle class="st48" cx="60.4" cy="83.8" r="9.8"/>
			<circle class="st49" cx="60.4" cy="83.8" r="9.7"/>
			<circle class="st50" cx="60.4" cy="83.8" r="9.7"/>
			<circle class="st51" cx="60.4" cy="83.8" r="9.6"/>
			<circle class="st52" cx="60.4" cy="83.8" r="9.5"/>
			<circle class="st53" cx="60.4" cy="83.8" r="9.4"/>
			<circle class="st54" cx="60.4" cy="83.8" r="9.4"/>
			<circle class="st55" cx="60.4" cy="83.8" r="9.3"/>
			<circle class="st56" cx="60.4" cy="83.8" r="9.2"/>
			<circle class="st57" cx="60.4" cy="83.8" r="9.1"/>
			<circle class="st58" cx="60.4" cy="83.8" r="9.1"/>
			<circle class="st59" cx="60.4" cy="83.8" r="9"/>
			<circle class="st60" cx="60.4" cy="83.8" r="8.9"/>
			<circle class="st61" cx="60.4" cy="83.8" r="8.8"/>
			<circle class="st62" cx="60.4" cy="83.8" r="8.8"/>
			<circle class="st63" cx="60.4" cy="83.8" r="8.7"/>
			<circle class="st64" cx="60.4" cy="83.8" r="8.6"/>
			<circle class="st65" cx="60.4" cy="83.8" r="8.5"/>
			<circle class="st66" cx="60.4" cy="83.8" r="8.5"/>
			<circle class="st67" cx="60.4" cy="83.8" r="8.4"/>
			<circle class="st68" cx="60.4" cy="83.8" r="8.3"/>
			<circle class="st69" cx="60.4" cy="83.8" r="8.2"/>
			<circle class="st70" cx="60.4" cy="83.8" r="8.2"/>
			<circle class="st71" cx="60.4" cy="83.8" r="8.1"/>
			<circle class="st72" cx="60.4" cy="83.8" r="8"/>
			<circle class="st73" cx="60.4" cy="83.8" r="7.9"/>
			<circle class="st74" cx="60.4" cy="83.8" r="7.9"/>
			<circle class="st75" cx="60.4" cy="83.8" r="7.8"/>
			<circle class="st76" cx="60.4" cy="83.8" r="7.7"/>
			<circle class="st77" cx="60.4" cy="83.8" r="7.6"/>
			<circle class="st78" cx="60.4" cy="83.8" r="7.6"/>
			<circle class="st79" cx="60.4" cy="83.8" r="7.5"/>
			<circle class="st80" cx="60.4" cy="83.8" r="7.4"/>
			<circle class="st81" cx="60.4" cy="83.8" r="7.3"/>
			<circle class="st82" cx="60.4" cy="83.8" r="7.3"/>
			<circle class="st82" cx="60.4" cy="83.8" r="7.2"/>
			<circle class="st83" cx="60.4" cy="83.8" r="7.1"/>
			<circle class="st84" cx="60.4" cy="83.8" r="7"/>
			<circle class="st85" cx="60.4" cy="83.8" r="7"/>
			<circle class="st86" cx="60.4" cy="83.8" r="6.9"/>
			<circle class="st87" cx="60.4" cy="83.8" r="6.8"/>
			<circle class="st88" cx="60.4" cy="83.8" r="6.7"/>
			<circle class="st89" cx="60.4" cy="83.8" r="6.7"/>
			<circle class="st89" cx="60.4" cy="83.8" r="6.6"/>
			<circle class="st90" cx="60.4" cy="83.8" r="6.5"/>
			<circle class="st90" cx="60.4" cy="83.8" r="6.4"/>
			<circle class="st91" cx="60.4" cy="83.8" r="6.4"/>
			<circle class="st92" cx="60.4" cy="83.8" r="6.3"/>
			<circle class="st93" cx="60.4" cy="83.8" r="6.2"/>
			<circle class="st94" cx="60.4" cy="83.8" r="6.1"/>
			<circle class="st95" cx="60.4" cy="83.8" r="6.1"/>
			<circle class="st96" cx="60.4" cy="83.8" r="6"/>
			<circle class="st96" cx="60.4" cy="83.8" r="5.9"/>
			<circle class="st97" cx="60.4" cy="83.8" r="5.8"/>
			<circle class="st97" cx="60.4" cy="83.8" r="5.8"/>
			<circle class="st98" cx="60.4" cy="83.8" r="5.7"/>
			<circle class="st99" cx="60.4" cy="83.8" r="5.6"/>
			<circle class="st99" cx="60.4" cy="83.8" r="5.5"/>
			<circle class="st100" cx="60.4" cy="83.8" r="5.5"/>
			<circle class="st100" cx="60.4" cy="83.8" r="5.4"/>
			<circle class="st100" cx="60.4" cy="83.8" r="5.3"/>
			<circle class="st101" cx="60.4" cy="83.8" r="5.2"/>
			<circle class="st101" cx="60.4" cy="83.8" r="5.2"/>
			<circle class="st101" cx="60.4" cy="83.8" r="5.1"/>
			<circle class="st102" cx="60.4" cy="83.8" r="5"/>
			<circle class="st103" cx="60.4" cy="83.8" r="4.9"/>
			<circle class="st103" cx="60.4" cy="83.8" r="4.9"/>
			<circle class="st103" cx="60.4" cy="83.8" r="4.8"/>
			<circle class="st104" cx="60.4" cy="83.8" r="4.7"/>
			<circle class="st105" cx="60.4" cy="83.8" r="4.6"/>
			<circle class="st105" cx="60.4" cy="83.8" r="4.6"/>
			<circle class="st105" cx="60.4" cy="83.8" r="4.5"/>
			<circle class="st106" cx="60.4" cy="83.8" r="4.4"/>
			<circle class="st106" cx="60.4" cy="83.8" r="4.3"/>
			<circle class="st106" cx="60.4" cy="83.8" r="4.3"/>
			<circle class="st107" cx="60.4" cy="83.8" r="4.2"/>
			<circle class="st107" cx="60.4" cy="83.8" r="4.1"/>
			<circle class="st108" cx="60.4" cy="83.8" r="4"/>
			<circle class="st108" cx="60.4" cy="83.8" r="4"/>
			<circle class="st108" cx="60.4" cy="83.8" r="3.9"/>
			<circle class="st108" cx="60.4" cy="83.8" r="3.8"/>
			<circle class="st108" cx="60.4" cy="83.8" r="3.7"/>
			<circle class="st109" cx="60.4" cy="83.8" r="3.7"/>
			<circle class="st109" cx="60.4" cy="83.8" r="3.6"/>
			<circle class="st110" cx="60.4" cy="83.8" r="3.5"/>
			<circle class="st110" cx="60.4" cy="83.8" r="3.4"/>
			<circle class="st110" cx="60.4" cy="83.8" r="3.4"/>
			<circle class="st110" cx="60.4" cy="83.8" r="3.3"/>
			<circle class="st110" cx="60.4" cy="83.8" r="3.2"/>
			<circle class="st110" cx="60.4" cy="83.8" r="3.1"/>
			<circle class="st110" cx="60.4" cy="83.8" r="3.1"/>
			<circle class="st110" cx="60.4" cy="83.8" r="3"/>
			<circle class="st110" cx="60.4" cy="83.8" r="2.9"/>
			<circle class="st110" cx="60.4" cy="83.8" r="2.8"/>
			<circle class="st110" cx="60.4" cy="83.8" r="2.8"/>
			<circle class="st111" cx="60.4" cy="83.8" r="2.7"/>
			<circle class="st112" cx="60.4" cy="83.8" r="2.6"/>
			<circle class="st112" cx="60.4" cy="83.8" r="2.5"/>
			<circle class="st112" cx="60.4" cy="83.8" r="2.5"/>
			<circle class="st112" cx="60.4" cy="83.8" r="2.4"/>
			<circle class="st112" cx="60.4" cy="83.8" r="2.3"/>
			<circle class="st112" cx="60.4" cy="83.8" r="2.2"/>
			<circle class="st112" cx="60.4" cy="83.8" r="2.2"/>
			<circle class="st112" cx="60.4" cy="83.8" r="2.1"/>
			<circle class="st112" cx="60.4" cy="83.8" r="2"/>
			<circle class="st112" cx="60.4" cy="83.8" r="1.9"/>
			<circle class="st112" cx="60.4" cy="83.8" r="1.9"/>
			<circle class="st112" cx="60.4" cy="83.8" r="1.8"/>
			<circle class="st112" cx="60.4" cy="83.8" r="1.7"/>
			<circle class="st112" cx="60.4" cy="83.8" r="1.6"/>
			<circle class="st112" cx="60.4" cy="83.8" r="1.6"/>
			<circle class="st112" cx="60.4" cy="83.8" r="1.5"/>
			<circle class="st112" cx="60.4" cy="83.8" r="1.4"/>
			<circle class="st112" cx="60.4" cy="83.8" r="1.3"/>
			<circle class="st112" cx="60.4" cy="83.8" r="1.3"/>
			<circle class="st112" cx="60.4" cy="83.8" r="1.2"/>
			<circle class="st112" cx="60.4" cy="83.8" r="1.1"/>
			<circle class="st112" cx="60.4" cy="83.8" r="1"/>
			<circle class="st112" cx="60.4" cy="83.8" r="1"/>
			<circle class="st112" cx="60.4" cy="83.8" r="0.9"/>
			<circle class="st112" cx="60.4" cy="83.8" r="0.8"/>
			<circle class="st112" cx="60.4" cy="83.8" r="0.7"/>
			<circle class="st112" cx="60.4" cy="83.8" r="0.7"/>
			<circle class="st112" cx="60.4" cy="83.8" r="0.6"/>
			<circle class="st112" cx="60.4" cy="83.8" r="0.5"/>
			<circle class="st112" cx="60.4" cy="83.8" r="0.4"/>
			<circle class="st112" cx="60.4" cy="83.8" r="0.4"/>
			<circle class="st112" cx="60.4" cy="83.8" r="0.3"/>
			<circle class="st112" cx="60.4" cy="83.8" r="0.2"/>
			<circle class="st112" cx="60.4" cy="83.8" r="0.1"/>
			<circle class="st112" cx="60.4" cy="83.8" r="0.1"/>
		</g>
	</g>
	<g>
		<g>
			<path class="st113" d="M45.4,99.4c0.2,0.1,0.5,0.2,0.7,0.3c2,0.8,4.2,0.2,5.4-1.4c1.4-1.9,0.7-4.2,0.7-4.2l0-0.2l0.2,0
				c1.6-0.4-7.9-5-11.2-6.6c-0.8-0.4-15.6-2.9-17.4-0.7L23.5,87l0-0.4c-0.1-2.8-22.5-10.4-21.7-9.2l0.1,0.1l-0.1,0.1
				c0,0-1.5,1.5-1.4,3.8c0,1.9,1.2,3.6,2.8,3.9c0.2,0,0.4,0.1,0.6,0.1l0.1,0l0,0.1c0,0,0.1,1.9,1.4,2.9c0.8,0.6,1.8,0.8,3,0.6l0.1,0
				l0.1,0.1c0,0,1,2.1,2.6,2.3c0.8,0.1,1.7-0.2,2.5-1l0.1-0.1l0.1,0.2c0,0,0.9,1.3,2.3,1.5c0.7,0.1,1.5-0.2,2.2-0.9l0.2-0.1l0.1,0.2
				c0,0,0.6,0.9,1.5,1.1c0.5,0.1,1.1,0,1.7-0.5l0.2-0.1l0.1,0.2c0.3,0.6,0.7,1.1,1.2,1.3c1,0.4,2.2-0.1,2.2-0.1l0.2-0.1l0,0.2
				c0.2,1.4,0.8,2.4,1.8,3.1c1.7,1.1,4.1,0.5,4.1,0.5l0.2,0l0,0.1c0.4,1.3,1.2,2.3,2.2,2.7c1.9,0.8,4.2-0.2,4.2-0.2l0.1,0l0.1,0.1
				c1.4,1.2,2.8,1.7,4.1,1.6c1.7-0.2,2.8-1.5,2.8-1.5l0.1-0.1L45.4,99.4z"/>
		</g>
	</g>
	<g>
		<path class="st1" d="M2,76.4L2,76.4c-0.9-1.2-1.3-2.7-1.4-4.3c0-4.7,3.3-8.3,7-6.9c1.1,0.4,2.1,1.4,2,3.4C9.4,72.9,6,71.5,6,71.5
			c0,5.1,5.3,4.8,8.1,5.6c1.7,0.4,3.3,1,4.8,1.9c1.9,1.1,4.9,3.5,5,6.6c2-2.4,6.4-2.4,9.1-2c2.2,0.3,4.3,1,6.3,1.8
			c3.5,1.3,8.9,5.2,12,0.9c0,0-4.4-1.1-2.2-5c1.1-1.8,2.7-1.9,4.1-1.5c4.8,1.3,6.3,6.8,3.5,10.7c-1,1.3-2.4,2.3-4,2.7l0,0
			c0,0,0.7,2.4-0.7,4.4c-1.2,1.8-3.6,2.3-5.6,1.4c-0.2-0.1-0.5-0.2-0.7-0.3c0,0-2.8,3.6-7.1-0.1c0,0-5,2.3-6.6-2.6
			c0,0-5.3,1.4-6.1-3.7c0,0-2.6,1.2-3.6-1.3c-2.1,1.5-3.4-0.7-3.4-0.7c-2.6,2.4-4.7-0.6-4.7-0.6c-3.2,3.2-5.4-1.3-5.4-1.3
			c-4.4,0.7-4.6-3.7-4.6-3.7c-0.2,0-0.4-0.1-0.6-0.1c-1.7-0.4-3-2-3-4.1C0.4,78,2,76.4,2,76.4z"/>
		<path class="st1" d="M38.5,98.7c-0.5,0.2-2.5,1-4.4,0.2c-1.1-0.5-1.9-1.4-2.3-2.8c-0.6,0.1-2.6,0.5-4.2-0.6
			c-1-0.6-1.6-1.7-1.9-3.1c-0.4,0.1-1.4,0.4-2.2,0c-0.6-0.2-1-0.7-1.3-1.3c-0.6,0.4-1.2,0.5-1.8,0.4c-0.8-0.2-1.4-0.8-1.6-1.1
			c-0.7,0.6-1.5,0.9-2.3,0.8c-1.2-0.1-2.1-1.1-2.4-1.5c-0.9,0.8-1.8,1.2-2.7,1c-1.6-0.3-2.6-2-2.8-2.4c-1.3,0.2-2.4-0.1-3.2-0.7
			c-1.2-1-1.5-2.5-1.5-3c-0.2,0-0.3-0.1-0.5-0.1c-1.8-0.4-3.1-2.2-3.1-4.3c0-2.1,1.1-3.5,1.4-3.9c-0.8-1.2-1.3-2.7-1.3-4.3
			c0-2.7,1.1-5.2,3-6.5c1.3-0.9,2.8-1.1,4.3-0.5c1,0.4,2.2,1.3,2.1,3.6c-0.1,1.4-0.5,2.4-1.3,2.9c-0.9,0.5-1.9,0.3-2.3,0.2
			c0.2,3.8,3.3,4.3,6.1,4.8c0.7,0.1,1.3,0.2,1.9,0.4c2,0.5,3.5,1.1,4.9,1.9c0.8,0.4,4.6,2.8,5,6.3c2.6-2.6,7.9-2,9-1.8
			c1.9,0.3,3.9,0.9,6.3,1.8c0.7,0.3,1.4,0.6,2.2,1c3.3,1.5,7,3.3,9.4,0.2c-0.6-0.2-2-0.8-2.5-2c-0.4-0.9-0.2-1.9,0.4-3.1
			c0.9-1.6,2.4-2.1,4.3-1.6c2.2,0.6,3.9,2.1,4.6,4.2c0.8,2.2,0.4,4.7-1,6.8c-0.9,1.3-2.3,2.3-3.9,2.8c0.1,0.6,0.5,2.6-0.8,4.3
			c-1.3,1.8-3.7,2.4-5.8,1.5c-0.2-0.1-0.4-0.2-0.6-0.3c-0.3,0.3-1.3,1.3-2.9,1.5c-0.1,0-0.3,0-0.4,0C41.1,100.3,39.8,99.8,38.5,98.7
			z M45.8,98.4c0.2,0.1,0.5,0.2,0.7,0.3c2,0.8,4.2,0.2,5.4-1.4c1.4-1.9,0.7-4.2,0.7-4.2l0-0.2l0.2,0c1.6-0.4,2.9-1.4,3.9-2.7
			c1.4-1.9,1.7-4.3,1-6.5c-0.7-2-2.3-3.4-4.4-4c-1.8-0.5-3.1,0-3.9,1.5c-0.6,1.1-0.8,2-0.4,2.8c0.6,1.4,2.5,1.9,2.5,1.9l0.2,0.1
			l-0.1,0.2c-2.6,3.6-6.7,1.7-10,0.1c-0.8-0.4-1.5-0.7-2.2-1c-2.4-0.9-4.4-1.5-6.3-1.7c-3-0.5-7.1-0.2-8.9,2L23.8,86l0-0.4
			c-0.1-2.8-2.7-5.2-4.9-6.4c-1.4-0.8-2.9-1.4-4.8-1.9c-0.5-0.1-1.2-0.3-1.8-0.4c-2.8-0.5-6.4-1.1-6.4-5.4l0-0.3l0.2,0.1
			c0,0,1.3,0.5,2.2-0.1C9,70.9,9.4,70,9.5,68.7c0.1-1.6-0.5-2.7-1.9-3.2c-1.4-0.5-2.8-0.4-4,0.5c-1.8,1.2-2.8,3.6-2.8,6.2
			c0,1.6,0.5,3,1.3,4.2l0.1,0.1l-0.1,0.1c0,0-1.5,1.5-1.4,3.8c0,1.9,1.2,3.6,2.8,3.9c0.2,0,0.4,0.1,0.6,0.1l0.1,0l0,0.1
			c0,0,0.1,1.9,1.4,2.9c0.8,0.6,1.8,0.8,3,0.6l0.1,0l0.1,0.1c0,0,1,2.1,2.6,2.3c0.8,0.1,1.7-0.2,2.5-1l0.1-0.1l0.1,0.2
			c0,0,0.9,1.3,2.3,1.5c0.7,0.1,1.5-0.2,2.2-0.9l0.2-0.1l0.1,0.2c0,0,0.6,0.9,1.5,1.1c0.5,0.1,1.1,0,1.7-0.5l0.2-0.1l0.1,0.2
			c0.3,0.6,0.7,1.1,1.2,1.3c1,0.4,2.2-0.1,2.2-0.1l0.2-0.1l0,0.2c0.2,1.4,0.8,2.4,1.8,3.1c1.7,1.1,4.1,0.5,4.1,0.5l0.2,0l0,0.1
			c0.4,1.3,1.2,2.3,2.2,2.7c1.9,0.8,4.2-0.2,4.2-0.2l0.1,0l0.1,0.1c1.4,1.2,2.8,1.7,4.1,1.6c1.7-0.2,2.8-1.5,2.8-1.5l0.1-0.1
			L45.8,98.4z"/>
	</g>
	<g>
		<g>
			<g>
				<path class="st4" d="M39.8,52.3c0.5,3.2,0.7,6.8-0.5,9.8c-1.7,4.3-5.7,4.4-9.6,3.1c-3.6-1.1-8.1-3.9-12-2.6
					c-7.8,2.6-6.9,14-2.1,18.9c4.6,4.8,12.6,6.5,18.8,5.2c6.2-1.3,15.6-8.5,8.4-15.1L39.8,52.3z"/>
			</g>
			<g>
				<path class="st2" d="M39.8,52.3c0,0,0.1,0.4,0.2,1.1c0.1,0.7,0.2,1.8,0.2,3.1c0,1.3-0.1,3-0.6,4.8c-0.3,0.9-0.7,1.8-1.3,2.6
					c-0.3,0.4-0.7,0.7-1.2,1.1c-0.5,0.3-1,0.5-1.5,0.7c-1.1,0.3-2.3,0.3-3.5,0.1c-1.2-0.2-2.4-0.6-3.7-1c-1.2-0.5-2.5-1-3.8-1.5
					c-1.3-0.5-2.7-0.9-4.2-1c-3-0.3-6.1,1.5-7.5,4.2c-0.7,1.4-1.1,2.9-1.2,4.5c-0.1,1.6,0,3.1,0.4,4.6c0.4,1.5,0.9,3,1.8,4.3
					c0.4,0.7,0.9,1.3,1.4,1.9c0.6,0.6,1.1,1.1,1.7,1.5c2.4,1.9,5.3,3.1,8.1,3.7c2.8,0.6,5.7,0.7,8.3,0.3c1.3-0.2,2.6-0.6,3.7-1
					c1.2-0.5,2.2-1.1,3.2-1.7c1.9-1.3,3.5-2.8,4.3-4.5c0.4-0.8,0.7-1.7,0.8-2.5c0.1-0.8,0-1.6-0.3-2.2c-0.4-1.3-1.1-2.1-1.6-2.6
					c-0.2-0.3-0.5-0.4-0.6-0.6c-0.1-0.1-0.2-0.2-0.2-0.2s0.1,0.1,0.2,0.2c0.1,0.1,0.3,0.3,0.6,0.6c0.5,0.5,1.2,1.4,1.5,2.7
					c0.2,0.6,0.3,1.4,0.2,2.2c-0.1,0.8-0.4,1.6-0.8,2.4c-0.9,1.6-2.4,3.1-4.3,4.4c-1,0.6-2,1.2-3.1,1.7c-1.1,0.5-2.4,0.8-3.7,1
					c-2.6,0.4-5.4,0.2-8.2-0.4c-2.8-0.6-5.6-1.8-7.9-3.6c-0.6-0.4-1.1-1-1.7-1.5c-0.5-0.5-0.9-1.1-1.3-1.8c-0.8-1.3-1.3-2.7-1.7-4.2
					c-0.3-1.5-0.5-3-0.4-4.5c0.1-1.5,0.5-3,1.2-4.3c1.4-2.6,4.3-4.3,7.1-4c1.4,0.1,2.8,0.5,4.1,0.9c1.3,0.5,2.5,1,3.8,1.4
					c1.2,0.5,2.5,0.8,3.7,1c1.2,0.2,2.5,0.2,3.6-0.1c0.6-0.1,1.1-0.4,1.6-0.7c0.5-0.3,0.9-0.7,1.2-1.1c0.7-0.9,1-1.8,1.3-2.7
					c0.5-1.8,0.6-3.5,0.5-4.8c0-1.3-0.2-2.4-0.3-3.1C39.9,52.7,39.8,52.3,39.8,52.3z"/>
			</g>
		</g>
	</g>
	<g>
		<path class="st1" d="M36.3,56.1c-1.5-1-4.8-2.3-10.2-0.4c-0.7,0.2-1.5,0.1-2-0.5c-0.4-0.5-0.6-1.2,0.5-2.1c0,0-0.4-3.1,2.9-2.1
			c0,0,1.4-2.3,3.4-0.5c0,0,1.9-2.1,3.8,0.1c0,0,3.4-1.2,3.4,2.8c0,0,1,0.9,0.5,2C38.4,56.5,37.2,56.7,36.3,56.1z"/>
		<path class="st1" d="M36.2,56.3L36.2,56.3c-1.5-1-4.7-2.3-10-0.4c-0.8,0.3-1.7,0.1-2.2-0.5c-0.3-0.3-0.4-0.7-0.4-1
			c0-0.4,0.3-0.8,0.8-1.2c0-0.3,0-1.4,0.7-2c0.5-0.4,1.3-0.5,2.4-0.2c0.2-0.3,0.8-1,1.7-1.1c0.6-0.1,1.2,0.1,1.9,0.6
			c0.3-0.3,1-0.8,1.9-0.8c0,0,0,0,0,0c0.7,0,1.3,0.4,1.9,1c0.4-0.1,1.6-0.4,2.5,0.3c0.7,0.5,1,1.4,1.1,2.6c0.2,0.2,1,1.1,0.5,2.2
			c-0.2,0.4-0.6,0.8-1.1,0.9c-0.2,0-0.3,0.1-0.5,0.1C36.9,56.6,36.5,56.5,36.2,56.3z M34.9,50.9l-0.1,0l-0.1-0.1
			c-0.5-0.6-1.1-1-1.7-1c0,0,0,0,0,0c-1,0-1.8,0.8-1.8,0.8l-0.1,0.1l-0.1-0.1c-0.6-0.5-1.2-0.7-1.7-0.6c-0.9,0.1-1.5,1.1-1.5,1.1
			l-0.1,0.1l-0.1,0c-1-0.3-1.7-0.2-2.2,0.1c-0.7,0.6-0.6,1.8-0.6,1.8l0,0.1l-0.1,0.1c-0.5,0.4-0.7,0.7-0.7,1.1
			c0,0.3,0.1,0.5,0.3,0.8c0.4,0.5,1.1,0.7,1.8,0.4c5.5-2,8.8-0.6,10.3,0.4c0.4,0.3,0.9,0.3,1.4,0.2c0.4-0.1,0.7-0.4,0.9-0.7
			c0.5-0.9-0.4-1.8-0.5-1.8l-0.1,0v-0.1c0-1.2-0.3-2-0.9-2.4c-0.4-0.3-0.9-0.4-1.3-0.4C35.4,50.7,35,50.9,34.9,50.9z"/>
	</g>
	<g>
		<path class="st1" d="M47.6,60.2c2-0.1,6.2,0.4,10.5,5.4c0.6,0.6,1.5,1,2.3,0.7c0.7-0.3,1.3-0.9,0.7-2.4c0,0,2.2-2.9-1.8-3.8
			c0,0-0.1-3.1-3.2-2.5c0,0-0.8-3.3-4-2.1c0,0-2.8-3.1-5.1,0.9c0,0-1.6,0.4-1.7,1.8C45.4,59.4,46.4,60.3,47.6,60.2z"/>
		<path class="st1" d="M58,65.7c-4.3-5-8.4-5.5-10.4-5.4c-0.7,0-1.3-0.2-1.8-0.7c-0.4-0.4-0.6-1-0.6-1.5c0.1-1.3,1.4-1.8,1.7-1.9
			c0.7-1.3,1.6-2,2.6-2.1c1.3-0.1,2.4,0.8,2.7,1.1c1-0.3,1.8-0.3,2.5,0.1c1,0.5,1.4,1.6,1.5,2c0.9-0.2,1.7,0,2.2,0.4
			c0.8,0.6,1,1.7,1,2.1c1.2,0.3,2,0.8,2.3,1.6c0.4,1-0.3,2.1-0.5,2.4c0.3,0.7,0.3,1.3,0.1,1.7c-0.2,0.4-0.5,0.6-0.9,0.8
			c-0.2,0.1-0.5,0.1-0.7,0.1C59.1,66.6,58.5,66.3,58,65.7z M56.2,57.8l-0.2,0l0-0.2c0,0-0.3-1.4-1.4-1.9c-0.6-0.3-1.4-0.3-2.4,0
			l-0.1,0L52,55.7c0,0-1.1-1.2-2.4-1.1c-0.9,0.1-1.7,0.8-2.4,2l0,0.1l-0.1,0c-0.1,0-1.4,0.4-1.5,1.6c0,0.5,0.1,0.9,0.5,1.3
			c0.4,0.4,1,0.6,1.5,0.6l0,0c2.1-0.1,6.2,0.4,10.7,5.5c0.5,0.6,1.4,0.9,2.1,0.6c0.4-0.1,0.6-0.3,0.7-0.6c0.2-0.4,0.1-0.9-0.1-1.5
			l0-0.1l0.1-0.1c0,0,0.8-1.1,0.5-2.2c-0.2-0.7-1-1.1-2.1-1.4l-0.1,0l0-0.1c0,0-0.1-1.3-0.9-2c-0.4-0.3-0.8-0.4-1.4-0.4
			C56.7,57.7,56.4,57.7,56.2,57.8z"/>
	</g>
	<g>
		<g>
			<g>
				<path class="st114" d="M54.8,70.6c0,0,0.4,0.2,0.9,0.6c0.6,0.3,1.4,0.8,2.1,1.2c0.8,0.4,1.6,0.8,2.2,1.1
					c0.3,0.2,0.5,0.3,0.7,0.4C60.9,73.9,61,74,61,74s-0.3-0.3-0.9-0.6c-0.6-0.4-1.3-0.8-2.1-1.2C56.4,71.3,54.8,70.6,54.8,70.6z"/>
			</g>
		</g>
	</g>
	<g>
		<g>
			<g>
				<path class="st114" d="M55,69.5c0,0,0.2,0.1,0.6,0.1c0.4,0.1,0.9,0.2,1.4,0.2c0.5,0.1,1,0.1,1.4,0.1c0.4,0,0.6,0,0.6,0
					s-0.2-0.1-0.6-0.2c-0.4-0.1-0.9-0.2-1.4-0.2c-0.5-0.1-1-0.1-1.4-0.1C55.2,69.5,55,69.5,55,69.5z"/>
			</g>
		</g>
	</g>
	<g>
		<g>
			<g>
				<path class="st114" d="M54.1,71.6c0,0,0.2,0.2,0.4,0.5c0.3,0.3,0.6,0.7,1,1c0.4,0.4,0.8,0.7,1.1,1c0.3,0.3,0.5,0.4,0.5,0.4
					S57,74.3,56.7,74c-0.3-0.3-0.6-0.7-1-1c-0.4-0.4-0.8-0.7-1.1-1C54.3,71.7,54.1,71.6,54.1,71.6z"/>
			</g>
		</g>
	</g>
	<g>
		<g>
			<g>
				<path class="st114" d="M29.7,61c0,0-0.2-0.1-0.6-0.3c-0.4-0.2-0.9-0.4-1.4-0.6c-0.5-0.2-1-0.4-1.4-0.5c-0.4-0.1-0.7-0.2-0.7-0.2
					s0.3,0.1,0.6,0.3c0.4,0.2,0.9,0.4,1.4,0.6c0.5,0.2,1,0.4,1.4,0.5C29.5,60.9,29.7,61,29.7,61z"/>
			</g>
		</g>
	</g>
	<g>
		<g>
			<g>
				<path class="st114" d="M30.2,60.4c0,0-0.1-0.1-0.2-0.3c-0.2-0.2-0.4-0.4-0.6-0.6c-0.2-0.2-0.5-0.4-0.7-0.6
					c-0.2-0.1-0.3-0.2-0.3-0.2s0.1,0.1,0.2,0.3c0.2,0.2,0.4,0.4,0.6,0.6c0.2,0.2,0.5,0.4,0.7,0.6C30,60.4,30.2,60.4,30.2,60.4z"/>
			</g>
		</g>
	</g>
	<g>
		<g>
			<g>
				<path class="st114" d="M29.5,61.7c0,0-0.2-0.1-0.4-0.1c-0.2-0.1-0.6-0.1-0.9-0.2c-0.3,0-0.7-0.1-0.9-0.1c-0.3,0-0.4,0-0.4,0
					s0.2,0.1,0.4,0.1c0.2,0.1,0.6,0.1,0.9,0.2c0.3,0,0.7,0.1,0.9,0.1C29.4,61.7,29.5,61.7,29.5,61.7z"/>
			</g>
		</g>
	</g>
	<g>
		<path class="st0" d="M26.7,25.2c-1.3-1.1,12.7-13,13.6-13.6c10-7.3,21.8-11.7,34.3-11.4c15.3,0.4,30.3,8,38.9,20.8
			c10.4,15.5,7.1,33.4,4.8,50.8c-0.1,0.4-5.3-22.1-23.8-19.7C62.8,56.1,26.7,25.3,26.7,25.2z"/>
		<path class="st0" d="M117.9,71.4c-2-6.4-8.4-21.1-23.4-19.2c-16.4,2.1-33.9-5.3-45.8-11.9c-12.8-7.1-21.7-14.7-22.1-15v0
			c-0.1-0.1-0.1-0.2-0.1-0.3c0.1-2.1,13.2-13.1,13.7-13.6C50.8,3.7,62.7-0.3,74.6,0c15.7,0.4,30.6,8.4,39,20.8
			c9.8,14.5,7.5,31.3,5.3,47.5c-0.2,1.2-0.3,2.3-0.5,3.5l0,0.1l-0.1,0c0,0,0,0,0,0C118.1,71.9,118.1,71.8,117.9,71.4z M40.4,11.7
			c-1,0.7-13.5,11.5-13.6,13.3c0,0.1,0,0.1,0,0.1l-0.1,0.1l0.1-0.1c0.4,0.3,9.2,7.8,22,14.9c11.8,6.5,29.3,13.9,45.6,11.8
			c15.1-1.9,21.6,12.5,23.7,19.2c0.1-0.9,0.2-1.8,0.4-2.8c2.2-16.1,4.5-32.8-5.2-47.2C105,8.6,90.1,0.7,74.6,0.3c-0.4,0-0.8,0-1.2,0
			C62,0.3,50.6,4.3,40.4,11.7z"/>
	</g>
	<g>
		<path class="st1" d="M94.2,51c0,0,2.4-6.2-4.7-5.8c0,0,1.1-5.8-5.4-5.1c0,0-2-5.2-6.8-3.7c0,0-2-5.9-8-4.3c0,0-1-4.8-6.5-3.2
			c0,0-2-5.3-6.6-2.6c0,0-2-5.9-7.4-2.8c0,0-1.5-6.2-7.3-2.3c0,0-2.7-4-6.5-1.4c0,0-4.1-3.3-6.1,0.7c0,0-4.4,0.8-3.7,6
			c0,0-4.4,3.1-1.7,7.4c0,0-3.4,3.1,0,7.9c0,0,3.7,3.7,8.1,0c0,0,2.5,4.4,7.6,2.6c0,0,0.9,4.1,7.4,2.8c0,0,1,4.8,7.8,3.8
			c0,0,2,4.6,8.5,4.1c0,0,0.9,6.1,8.3,5.1c0,0,2.6,5.9,8.5,3.9c0,0,2.8,4.4,6.5,1.1c0,0,5.6,1.5,5.6-3.4c0,0,4.2-1.1,2.8-5.3
			C95.1,55.7,97.1,53.1,94.2,51z"/>
		<path class="st1" d="M82.6,66.5c-1.8-0.3-3-1.8-3.3-2.3c-5.4,1.8-8.1-3.1-8.5-3.9c-0.5,0.1-1,0.1-1.5,0.1c-5.5,0-6.7-4.3-6.9-5.2
			c-5.9,0.4-8.1-3.4-8.5-4.1c-6.1,0.8-7.6-3-7.8-3.8c-5.6,1-7.1-2-7.3-2.8c-4.5,1.5-7-1.8-7.5-2.6c-4.5,3.6-8.2-0.1-8.2-0.2
			c-3.1-4.4-0.6-7.5-0.1-8c-2.4-4,1.2-7,1.8-7.5c-0.6-4.8,3.2-5.9,3.8-6.1c0.6-1.1,1.4-1.7,2.3-1.9c1.7-0.4,3.5,0.8,3.9,1.2
			c1.1-0.7,2.2-1,3.3-0.8c1.7,0.3,2.9,1.7,3.2,2.1c1.8-1.2,3.4-1.5,4.7-1c1.7,0.7,2.5,2.6,2.7,3.3c1.6-0.9,3-1.1,4.3-0.6
			c1.9,0.7,2.8,2.7,3.1,3.3c1.3-0.7,2.5-0.9,3.5-0.5c1.8,0.6,2.8,2.6,3,3.1c1.8-0.5,3.3-0.4,4.5,0.4c1.4,0.9,2,2.4,2.1,2.9
			c5.4-1.4,7.6,3.4,8,4.3c4.4-1.2,6.5,3,6.8,3.8c2-0.2,3.6,0.2,4.5,1.3c1.2,1.3,1.1,3.2,1,3.9c2.2-0.1,3.7,0.4,4.5,1.6
			c1.1,1.6,0.5,3.8,0.3,4.4c1,0.7,1.5,1.5,1.5,2.5c0.1,1.3-0.9,2.5-1.4,3.1c0.4,1.3,0.3,2.4-0.2,3.3c-0.8,1.4-2.2,1.9-2.7,2.1
			c0,1.3-0.4,2.3-1.3,2.9c-1.5,1.2-3.9,0.7-4.4,0.6c-0.9,0.8-1.9,1.2-2.8,1.2C82.9,66.5,82.8,66.5,82.6,66.5z M85.9,65
			c0,0,2.7,0.7,4.2-0.5c0.7-0.6,1.1-1.5,1.1-2.8v-0.1l0.1,0c0,0,1.8-0.5,2.6-1.9c0.5-0.9,0.5-1.9,0.1-3.1l0-0.1l0.1-0.1
			c0.5-0.4,1.5-1.6,1.4-2.9c0-0.9-0.5-1.6-1.5-2.3L94,51l0-0.1c0,0,1-2.5-0.2-4.2c-0.8-1-2.2-1.5-4.4-1.4l-0.2,0l0-0.2
			c0,0,0.4-2.3-0.9-3.8c-0.9-1-2.4-1.4-4.3-1.2l-0.1,0l0-0.1c-0.1-0.2-2-5.1-6.6-3.6l-0.2,0L77,36.3c0-0.1-2-5.8-7.8-4.2l-0.2,0
			l0-0.2c0,0-0.4-1.9-2-2.8c-1.1-0.7-2.6-0.8-4.3-0.3l-0.1,0l-0.1-0.1c0,0-0.9-2.4-2.9-3.1c-1-0.4-2.2-0.2-3.4,0.5L56,26.3l-0.1-0.2
			c0,0-0.9-2.5-3-3.3c-1.2-0.5-2.6-0.2-4.2,0.7l-0.2,0.1l-0.1-0.2c0,0-0.6-2.5-2.5-3.3c-1.3-0.5-2.8-0.1-4.6,1l-0.1,0.1l-0.1-0.1
			c0,0-1.2-1.8-3.1-2.1c-1.1-0.2-2.1,0.1-3.2,0.8l-0.1,0.1l-0.1-0.1c0,0-1.9-1.5-3.8-1.2c-0.9,0.2-1.6,0.8-2.1,1.8l0,0.1l-0.1,0
			c-0.2,0-4.2,0.8-3.6,5.8l0,0.1L25,26.5c-0.2,0.1-4.2,3.1-1.7,7.2l0.1,0.1l-0.1,0.1c-0.1,0.1-3.3,3.1,0,7.7c0.1,0.1,3.6,3.6,7.9,0
			l0.2-0.1l0.1,0.2c0,0,2.5,4.3,7.4,2.5l0.2-0.1l0,0.2c0,0.2,1,3.9,7.2,2.7l0.2,0l0,0.2c0,0,1,4.6,7.6,3.7l0.1,0l0.1,0.1
			c0,0,2,4.5,8.4,4l0.2,0l0,0.2c0,0.2,0.9,5.9,8.1,4.9l0.1,0l0.1,0.1c0,0.1,2.6,5.7,8.3,3.8l0.1,0l0.1,0.1c0,0,1.2,1.9,3.1,2.2
			c1,0.1,2.1-0.2,3.1-1.1L85.9,65L85.9,65z"/>
	</g>
	<g>
		<path class="st1" d="M126.7,67.5c0,0,6.3-0.2,4.6,6c0,0,3.9,3.6-0.3,8.1c0,0,1.6,5-4.6,6c0,0-2.5,5.1-8.8,1.9c0,0-6.2,1.9-7.8-4.4
			c0,0-5.3-1.6-2.4-7.7c0,0-4.1-6.2,2.8-8.1c0,0,1.2-7.1,7.3-4.1C117.5,65.1,123.3,60.5,126.7,67.5z"/>
		<path class="st1" d="M117.5,89.5c-0.4,0.1-2.9,0.7-5.1-0.5c-1.4-0.8-2.3-2.1-2.8-4c-0.4-0.1-2.2-0.8-2.9-2.6
			c-0.6-1.4-0.5-3.2,0.5-5.2c-0.3-0.5-1.8-3.1-0.9-5.3c0.5-1.4,1.8-2.4,3.8-2.9c0.1-0.6,0.8-3.4,2.9-4.5c1.3-0.6,2.8-0.5,4.5,0.3
			c0.5-0.3,2.8-1.9,5.3-1.3c1.7,0.4,3,1.6,4.1,3.7c0.5,0,2.9,0.1,4.2,1.7c0.8,1.1,1,2.5,0.5,4.3c0.3,0.3,1.6,1.7,1.6,3.7
			c0.1,1.5-0.6,3-2,4.5c0.1,0.4,0.5,2.2-0.5,3.7c-0.8,1.2-2.2,2-4.2,2.4c-0.2,0.4-1.2,2-3.2,2.7c-0.6,0.2-1.2,0.3-1.9,0.3
			C120.2,90.6,118.9,90.2,117.5,89.5z M126.7,67.6l-0.1,0l0-0.1c-1-2-2.3-3.3-3.9-3.6c-2.6-0.6-5.1,1.3-5.1,1.3l-0.1,0.1l-0.1,0
			c-1.7-0.8-3.1-0.9-4.3-0.3c-2.2,1.1-2.7,4.3-2.8,4.3l0,0.1l-0.1,0c-1.9,0.5-3.2,1.5-3.6,2.8c-0.9,2.3,0.9,5.1,0.9,5.1l0.1,0.1
			l0,0.1c-0.9,1.9-1.1,3.6-0.5,5c0.8,1.8,2.8,2.5,2.8,2.5l0.1,0l0,0.1c0.5,1.8,1.3,3.1,2.6,3.8c2.2,1.2,4.9,0.4,4.9,0.4l0.1,0l0.1,0
			c2.1,1,3.9,1.3,5.6,0.8c2.1-0.7,3-2.6,3.1-2.6l0-0.1l0.1,0c2-0.3,3.3-1,4.1-2.2c1-1.6,0.4-3.5,0.4-3.5l0-0.1l0.1-0.1
			c1.3-1.4,2-2.9,1.9-4.3c-0.1-2.1-1.6-3.5-1.6-3.5l-0.1-0.1l0-0.1c0.5-1.8,0.3-3.2-0.4-4.1C129.5,67.7,127.1,67.6,126.7,67.6
			C126.7,67.6,126.7,67.6,126.7,67.6z"/>
	</g>
	<g>
		<path class="st0" d="M78.5,115.2c0,0,9,33.5-11.4,52.2c0,0,3.8,5.5,21,21.2c0,0,34.4-47.2,3-93.3L78.5,115.2z"/>
		<path class="st115" d="M88.1,188.8l0.1-0.2c0.1-0.1,8.7-12,13.3-29.4c2.7-10.2,3.6-20.3,2.5-30c-1.3-12.1-5.6-23.6-12.8-34.1
			L91,95.3c16.2,23.8,14.5,47.8,10.2,63.8c-4.3,16.3-12.1,27.7-13.1,29.2c-15.5-14.2-20.1-20-20.8-20.9c10.5-9.7,13-23.4,13.3-33.1
			c0.3-10.6-1.9-19-2-19.1l-0.3,0.1c0,0.1,2.2,8.5,2,19c-0.3,9.7-2.8,23.3-13.3,33l-0.1,0.1l0.1,0.1c0,0.1,4,5.7,21,21.2L88.1,188.8
			z"/>
	</g>
	<g>
		<path class="st0" d="M74.4,178.6l4.7,5c2.3,2.4,2.9,6,1.7,9.1c-1.6,4-4.6,9.1-9.5,11.4c-8,3.7-16.5-4.5-13.3-12.8
			c1-2.6,2.8-5.7,5.7-9.3c0,0-7.4-0.6-6.1-5.2c0.6-2.2,2.9-2.9,5.4-3C67.3,173.6,71.4,175.4,74.4,178.6z"/>
		<path class="st0" d="M60.3,202.3c-3.1-2.9-4.1-7.2-2.6-11.1c1.1-2.8,3-5.9,5.5-9.1c-1-0.1-4.2-0.7-5.5-2.5
			c-0.6-0.8-0.7-1.8-0.4-2.8c0.5-1.9,2.4-3,5.5-3.1c4.3-0.2,8.5,1.6,11.6,4.8l4.7,5c2.3,2.5,3,6.1,1.7,9.2c-1.6,4-4.6,9.2-9.6,11.4
			c-1.3,0.6-2.8,0.9-4.1,0.9C64.7,205,62.3,204.1,60.3,202.3z M62.9,174c-3,0.1-4.7,1.1-5.2,2.9c-0.3,1-0.2,1.8,0.3,2.5
			c1.4,2.1,5.6,2.4,5.6,2.4l0.3,0l-0.2,0.2c-2.7,3.3-4.6,6.4-5.7,9.2c-1.5,3.8-0.5,7.9,2.5,10.8c2.9,2.8,7,3.4,10.6,1.8
			c4.9-2.2,7.8-7.4,9.4-11.3c1.2-3,0.6-6.5-1.6-8.9l-4.7-5c-2.8-3-6.7-4.7-10.7-4.7C63.3,173.9,63.1,173.9,62.9,174z"/>
	</g>
	<g>
		<g>
			<path class="st1" d="M64.8,170.4c4.2,8.7,11.6,15.5,20.6,19.1c3.8,1.5,7.5-0.2,7.9-3l0,0c0.4-2.7-1.6-5.3-4.3-6.4
				c-6.7-2.6-12.1-7.6-15.2-14.1c-1.3-2.5-4-4.4-6.7-3.7l0,0C64.4,162.9,63,166.7,64.8,170.4z"/>
		</g>
		<g>
			<path class="st1" d="M85.3,189.6c-9.1-3.5-16.5-10.3-20.7-19.1c-1-2-1.1-4.3-0.2-6.1c0.6-1.2,1.5-2,2.7-2.3
				c3-0.7,5.7,1.4,6.9,3.8c3.1,6.4,8.5,11.4,15.1,14c2.5,1,4.8,3.6,4.4,6.6c-0.2,1.2-0.9,2.2-2,2.8c-0.9,0.5-2,0.8-3.2,0.8
				C87.3,190.1,86.3,190,85.3,189.6z M67.1,162.5c-1,0.2-1.9,1-2.4,2.1c-0.8,1.7-0.7,3.8,0.2,5.8v0c4.2,8.7,11.5,15.5,20.5,19
				c2,0.8,4.2,0.7,5.8-0.2c1.1-0.6,1.7-1.5,1.9-2.6c0.4-2.8-1.8-5.3-4.2-6.2c-6.7-2.6-12.2-7.6-15.3-14.1c-1-2-3.1-3.8-5.5-3.8
				C67.8,162.3,67.5,162.4,67.1,162.5z"/>
		</g>
	</g>
</g>
<g>
</g>
<g>
</g>
<g>
</g>
<g>
</g>
<g>
</g>
<g>
</g>
</svg>
