<svg xmlns="http://www.w3.org/2000/svg" width="75.375" height="88.41" viewBox="0 0 75.375 88.41"><defs><style>.cls-1{fill:#fff;fill-rule:evenodd}</style></defs><path class="cls-1" d="M74.01 15.26a147.1 147.1 0 0 1-35.378-15 1.832 1.832 0 0 0-1.89 0 142.75 142.75 0 0 1-35.378 15 1.864 1.864 0 0 0-1.368 1.8v19A54.665 54.665 0 0 0 16.596 76c8.151 7.99 17.647 12.4 21.094 12.4S50.633 83.99 58.784 76a54.665 54.665 0 0 0 16.6-39.94v-19a1.864 1.864 0 0 0-1.374-1.8zm-.632 20.38c0 19.2-9.626 31.22-16.83 38.28-8.176 8.01-16.86 12.05-18.861 12.05s-10.685-4.04-18.862-12.05c-7.2-7.06-16.83-19.08-16.83-38.28V17.16A153.923 153.923 0 0 0 37.688 1.97a159.069 159.069 0 0 0 35.69 15.19v18.48zM17.99 18.28a1.4 1.4 0 0 0-1.808-.79c-2.492.98-5.049 1.89-7.6 2.69a1.391 1.391 0 0 0-.978 1.33v5.39a1.4 1.4 0 0 0 2.79 0v-4.37c2.289-.74 4.575-1.56 6.81-2.44a1.393 1.393 0 0 0 .786-1.81zm3.751-.13a1.389 1.389 0 0 0 .559-.12l.026-.01a1.394 1.394 0 1 0-1.126-2.55h-.023a1.4 1.4 0 0 0 .564 2.68zm36.631 45.58a1.4 1.4 0 0 0-1.931.4 34.318 34.318 0 0 1-4.007 5.01 36.471 36.471 0 0 1-4 3.56 1.4 1.4 0 0 0 1.691 2.22 39.876 39.876 0 0 0 4.314-3.84 37.075 37.075 0 0 0 4.337-5.42 1.393 1.393 0 0 0-.407-1.93zM45.195 74.88l-.08.05a1.393 1.393 0 0 0 .7 2.6 1.457 1.457 0 0 0 .7-.18l.092-.06a1.4 1.4 0 0 0-1.412-2.41zM26.219 43.66c-.89-.89-4.325-3.63-5.584-3.63a4.715 4.715 0 0 0-3.335 8.05L28.114 58.9a4.719 4.719 0 0 0 6.669 0l23.128-23.13a4.716 4.716 0 0 0-6.67-6.67L31.448 48.89zm26.642-13.65a2.653 2.653 0 0 1 3.753 3.75L33.485 56.89a2.647 2.647 0 0 1-3.753 0L18.716 45.88a2.656 2.656 0 1 1 3.753-3.76l7.641 7.64a2.121 2.121 0 0 0 3 0z"/></svg>