<svg xmlns="http://www.w3.org/2000/svg" width="16" height="16" viewBox="0 0 16 16"><defs><style>.cls-1{fill:#a7a7a7;fill-rule:evenodd}</style></defs><path id="User_Icon" data-name="User Icon" class="cls-1" d="M890 5170h-14a1 1 0 0 1-1-1v-3c0-1.87 1.649-3.47 4.069-4.33a3.9 3.9 0 0 1-.069-.67v-3a4 4 0 1 1 8 0v3a3.9 3.9 0 0 1-.068.67c2.42.86 4.068 2.46 4.068 4.33v3a1 1 0 0 1-1 1zm-5-12a2 2 0 0 0-4 0v3a2 2 0 0 0 4 0v-3zm4 8c0-1.08-1.152-2.02-2.862-2.55a3.952 3.952 0 0 1-6.277 0c-1.71.53-2.861 1.47-2.861 2.55v2h12v-2z" transform="translate(-875 -5154)"/></svg>